SplineFontDB: 3.0
FontName: ReElaine
FullName: ReElaine
FamilyName: ReElaine
Weight: Book
Copyright: (c) Copyright 2020, no body.
Version: CC BY-SA 3.0 http://creativecommons.org/licenses/by-sa/3.0/
ItalicAngle: 10
UnderlinePosition: -90
UnderlineWidth: 60
Ascent: 819
Descent: 205
InvalidEm: 0
sfntRevision: 0x00010000
LayerCount: 2
Layer: 0 1 "Arri+AOgA-re" 1
Layer: 1 1 "Avant" 0
XUID: [1021 706 -322349554 5415485]
StyleMap: 0x0040
FSType: 0
OS2Version: 2
OS2_WeightWidthSlopeOnly: 0
OS2_UseTypoMetrics: 0
CreationTime: 1590571504
ModificationTime: 1593012405
PfmFamily: 81
TTFWeight: 400
TTFWidth: 5
LineGap: 170
VLineGap: 0
Panose: 0 0 0 0 0 0 0 0 0 0
OS2TypoAscent: 683
OS2TypoAOffset: 0
OS2TypoDescent: -171
OS2TypoDOffset: 0
OS2TypoLinegap: 170
OS2WinAscent: 683
OS2WinAOffset: 0
OS2WinDescent: 171
OS2WinDOffset: 0
HheadAscent: 683
HheadAOffset: 0
HheadDescent: -171
HheadDOffset: 0
OS2SubXSize: 128
OS2SubYSize: 128
OS2SubXOff: 0
OS2SubYOff: -64
OS2SupXSize: 128
OS2SupYSize: 128
OS2SupXOff: 0
OS2SupYOff: 64
OS2StrikeYSize: 51
OS2StrikeYPos: 512
OS2CapHeight: 683
OS2XHeight: 424
OS2FamilyClass: 2048
OS2Vendor: 'dtyp'
OS2CodePages: 00000001.00000000
OS2UnicodeRanges: 00000003.00000000.00000000.00000000
MarkAttachClasses: 1
DEI: 91125
ShortTable: maxp 16
  1
  0
  138
  329
  47
  0
  0
  2
  128
  64
  128
  128
  128
  0
  0
  0
EndShort
LangName: 1033 "+AKkA Copyright 2020, no body." "" "Regular" "" "" "Version CC BY-SA 3.0 http://creativecommons.org/licenses/by-sa/3.0/" "" "n/a" "no body"
GaspTable: 1 65535 2 0
Encoding: UnicodeBmp
UnicodeInterp: none
NameList: AGL For New Fonts
DisplaySize: -48
AntiAlias: 1
FitToEm: 0
WinInfo: 38 38 14
BeginPrivate: 0
EndPrivate
Grid
-1024 -16.5999984741 m 0
 2048 -16.5999984741 l 1024
  Named: "pied"
-1024 384 m 0
 2048 384 l 1024
  Named: "x"
EndSplineSet
BeginChars: 65539 139

StartChar: .notdef
Encoding: 65536 -1 0
Width: 512
Flags: W
LayerCount: 2
Fore
SplineSet
0 683 m 1,0,-1
 0 0 l 1,1,-1
 438 0 l 1,2,-1
 438 683 l 1,3,-1
 0 683 l 1,0,-1
365 610 m 1,4,-1
 365 73 l 1,5,-1
 73 73 l 1,6,-1
 73 610 l 1,7,-1
 365 610 l 1,4,-1
EndSplineSet
EndChar

StartChar: parenleft
Encoding: 40 40 4
Width: 328
Flags: W
LayerCount: 2
Fore
SplineSet
190 52 m 1,0,-1
 222 67 l 1,1,-1
 253 52 l 1,2,-1
 261 19 l 1,3,-1
 239 -8 l 1,4,-1
 204 -8 l 1,5,-1
 183 19 l 1,6,-1
 190 52 l 1,0,-1
146 75 m 1,7,-1
 177 91 l 1,8,-1
 209 75 l 1,9,-1
 216 42 l 1,10,-1
 195 14 l 1,11,-1
 160 14 l 1,12,-1
 138 42 l 1,13,-1
 146 75 l 1,7,-1
112 108 m 1,14,-1
 144 123 l 1,15,-1
 175 108 l 1,16,-1
 182 74 l 1,17,-1
 161 47 l 1,18,-1
 126 47 l 1,19,-1
 105 74 l 1,20,-1
 112 108 l 1,14,-1
86 150 m 1,21,-1
 117 165 l 1,22,-1
 149 150 l 1,23,-1
 156 117 l 1,24,-1
 135 89 l 1,25,-1
 100 89 l 1,26,-1
 78 117 l 1,27,-1
 86 150 l 1,21,-1
71 198 m 1,28,-1
 102 213 l 1,29,-1
 134 198 l 1,30,-1
 141 164 l 1,31,-1
 120 137 l 1,32,-1
 85 137 l 1,33,-1
 63 164 l 1,34,-1
 71 198 l 1,28,-1
65 247 m 1,35,-1
 96 262 l 1,36,-1
 127 247 l 1,37,-1
 135 213 l 1,38,-1
 113 186 l 1,39,-1
 79 186 l 1,40,-1
 57 213 l 1,41,-1
 65 247 l 1,35,-1
65 295 m 1,42,-1
 96 310 l 1,43,-1
 128 295 l 1,44,-1
 135 261 l 1,45,-1
 114 234 l 1,46,-1
 79 234 l 1,47,-1
 57 261 l 1,48,-1
 65 295 l 1,42,-1
72 344 m 1,49,-1
 103 359 l 1,50,-1
 134 344 l 1,51,-1
 142 310 l 1,52,-1
 120 283 l 1,53,-1
 86 283 l 1,54,-1
 64 310 l 1,55,-1
 72 344 l 1,49,-1
87 390 m 1,56,-1
 118 406 l 1,57,-1
 150 390 l 1,58,-1
 157 357 l 1,59,-1
 136 330 l 1,60,-1
 101 330 l 1,61,-1
 79 357 l 1,62,-1
 87 390 l 1,56,-1
114 433 m 1,63,-1
 145 448 l 1,64,-1
 176 433 l 1,65,-1
 184 399 l 1,66,-1
 162 372 l 1,67,-1
 128 372 l 1,68,-1
 106 399 l 1,69,-1
 114 433 l 1,63,-1
149 468 m 1,70,-1
 180 483 l 1,71,-1
 211 468 l 1,72,-1
 219 434 l 1,73,-1
 198 407 l 1,74,-1
 163 407 l 1,75,-1
 141 434 l 1,76,-1
 149 468 l 1,70,-1
207 504 m 1,77,-1
 238 520 l 1,78,-1
 269 504 l 1,79,-1
 277 471 l 1,80,-1
 255 443 l 1,81,-1
 221 443 l 1,82,-1
 199 471 l 1,83,-1
 207 504 l 1,77,-1
174 504 m 1,84,-1
 206 520 l 1,85,-1
 237 504 l 1,86,-1
 244 471 l 1,87,-1
 223 443 l 1,88,-1
 188 443 l 1,89,-1
 167 471 l 1,90,-1
 174 504 l 1,84,-1
EndSplineSet
EndChar

StartChar: parenright
Encoding: 41 41 5
Width: 324
Flags: W
LayerCount: 2
Fore
SplineSet
74 484 m 1,0,-1
 105 499 l 1,1,-1
 136 484 l 1,2,-1
 144 450 l 1,3,-1
 122 423 l 1,4,-1
 88 423 l 1,5,-1
 66 450 l 1,6,-1
 74 484 l 1,0,-1
114 456 m 1,7,-1
 146 471 l 1,8,-1
 177 456 l 1,9,-1
 185 422 l 1,10,-1
 163 395 l 1,11,-1
 128 395 l 1,12,-1
 107 422 l 1,13,-1
 114 456 l 1,7,-1
145 421 m 1,14,-1
 176 436 l 1,15,-1
 208 421 l 1,16,-1
 215 387 l 1,17,-1
 194 360 l 1,18,-1
 159 360 l 1,19,-1
 137 387 l 1,20,-1
 145 421 l 1,14,-1
168 376 m 1,21,-1
 200 391 l 1,22,-1
 231 376 l 1,23,-1
 239 342 l 1,24,-1
 217 315 l 1,25,-1
 182 315 l 1,26,-1
 161 342 l 1,27,-1
 168 376 l 1,21,-1
181 326 m 1,28,-1
 212 341 l 1,29,-1
 244 326 l 1,30,-1
 251 293 l 1,31,-1
 230 265 l 1,32,-1
 195 265 l 1,33,-1
 173 293 l 1,34,-1
 181 326 l 1,28,-1
185 278 m 1,35,-1
 216 293 l 1,36,-1
 248 278 l 1,37,-1
 255 244 l 1,38,-1
 234 217 l 1,39,-1
 199 217 l 1,40,-1
 177 244 l 1,41,-1
 185 278 l 1,35,-1
183 231 m 1,42,-1
 215 246 l 1,43,-1
 246 231 l 1,44,-1
 254 197 l 1,45,-1
 232 170 l 1,46,-1
 197 170 l 1,47,-1
 176 197 l 1,48,-1
 183 231 l 1,42,-1
174 181 m 1,49,-1
 205 196 l 1,50,-1
 237 181 l 1,51,-1
 244 147 l 1,52,-1
 223 120 l 1,53,-1
 188 120 l 1,54,-1
 166 147 l 1,55,-1
 174 181 l 1,49,-1
155 134 m 1,56,-1
 187 150 l 1,57,-1
 218 134 l 1,58,-1
 226 101 l 1,59,-1
 204 74 l 1,60,-1
 169 74 l 1,61,-1
 148 101 l 1,62,-1
 155 134 l 1,56,-1
127 96 m 1,63,-1
 158 111 l 1,64,-1
 190 96 l 1,65,-1
 197 62 l 1,66,-1
 176 35 l 1,67,-1
 141 35 l 1,68,-1
 119 62 l 1,69,-1
 127 96 l 1,63,-1
88 66 m 1,70,-1
 119 81 l 1,71,-1
 151 66 l 1,72,-1
 158 32 l 1,73,-1
 137 5 l 1,74,-1
 102 5 l 1,75,-1
 80 32 l 1,76,-1
 88 66 l 1,70,-1
41 47 m 1,77,-1
 72 62 l 1,78,-1
 104 47 l 1,79,-1
 111 13 l 1,80,-1
 90 -13 l 1,81,-1
 55 -13 l 1,82,-1
 33 13 l 1,83,-1
 41 47 l 1,77,-1
EndSplineSet
EndChar

StartChar: plus
Encoding: 43 43 6
Width: 419
Flags: W
LayerCount: 2
Fore
SplineSet
166 123 m 1,0,-1
 198 139 l 1,1,-1
 229 123 l 1,2,-1
 236 90 l 1,3,-1
 215 62 l 1,4,-1
 180 62 l 1,5,-1
 159 90 l 1,6,-1
 166 123 l 1,0,-1
166 173 m 1,7,-1
 198 189 l 1,8,-1
 229 173 l 1,9,-1
 236 140 l 1,10,-1
 215 112 l 1,11,-1
 180 112 l 1,12,-1
 159 140 l 1,13,-1
 166 173 l 1,7,-1
166 273 m 1,14,-1
 198 289 l 1,15,-1
 229 273 l 1,16,-1
 236 240 l 1,17,-1
 215 212 l 1,18,-1
 180 212 l 1,19,-1
 159 240 l 1,20,-1
 166 273 l 1,14,-1
166 323 m 1,21,-1
 198 339 l 1,22,-1
 229 323 l 1,23,-1
 236 290 l 1,24,-1
 215 262 l 1,25,-1
 180 262 l 1,26,-1
 159 290 l 1,27,-1
 166 323 l 1,21,-1
266 224 m 1,28,-1
 298 240 l 1,29,-1
 329 224 l 1,30,-1
 336 191 l 1,31,-1
 315 164 l 1,32,-1
 280 164 l 1,33,-1
 259 191 l 1,34,-1
 266 224 l 1,28,-1
216 224 m 1,35,-1
 248 240 l 1,36,-1
 279 224 l 1,37,-1
 286 191 l 1,38,-1
 265 164 l 1,39,-1
 230 164 l 1,40,-1
 209 191 l 1,41,-1
 216 224 l 1,35,-1
166 224 m 1,42,-1
 198 240 l 1,43,-1
 229 224 l 1,44,-1
 236 191 l 1,45,-1
 215 164 l 1,46,-1
 180 164 l 1,47,-1
 159 191 l 1,48,-1
 166 224 l 1,42,-1
116 224 m 1,49,-1
 148 240 l 1,50,-1
 179 224 l 1,51,-1
 186 191 l 1,52,-1
 165 164 l 1,53,-1
 130 164 l 1,54,-1
 109 191 l 1,55,-1
 116 224 l 1,49,-1
66 224 m 1,56,-1
 98 240 l 1,57,-1
 129 224 l 1,58,-1
 136 191 l 1,59,-1
 115 164 l 1,60,-1
 80 164 l 1,61,-1
 59 191 l 1,62,-1
 66 224 l 1,56,-1
EndSplineSet
EndChar

StartChar: comma
Encoding: 44 44 7
Width: 209
Flags: W
LayerCount: 2
Fore
SplineSet
85 72 m 5,0,-1
 117 87 l 5,1,-1
 148 72 l 5,2,-1
 156 38 l 5,3,-1
 134 11 l 5,4,-1
 99 11 l 5,5,-1
 78 38 l 5,6,-1
 85 72 l 5,0,-1
56 32 m 5,7,-1
 87 47 l 5,8,-1
 118 32 l 5,9,-1
 126 -2 l 5,10,-1
 104 -29 l 5,11,-1
 69 -29 l 5,12,-1
 48 -2 l 5,13,-1
 56 32 l 5,7,-1
26 -9 m 5,14,-1
 57 7 l 5,15,-1
 88 -9 l 5,16,-1
 96 -42 l 5,17,-1
 74 -68 l 5,18,-1
 40 -68 l 5,19,-1
 18 -42 l 5,20,-1
 26 -9 l 5,14,-1
EndSplineSet
EndChar

StartChar: hyphen
Encoding: 45 45 8
Width: 460
Flags: W
LayerCount: 2
Fore
SplineSet
291 274 m 1,0,-1
 323 290 l 1,1,-1
 354 274 l 1,2,-1
 361 241 l 1,3,-1
 340 214 l 1,4,-1
 305 214 l 1,5,-1
 284 241 l 1,6,-1
 291 274 l 1,0,-1
241 274 m 1,7,-1
 273 290 l 1,8,-1
 304 274 l 1,9,-1
 311 241 l 1,10,-1
 290 214 l 1,11,-1
 255 214 l 1,12,-1
 234 241 l 1,13,-1
 241 274 l 1,7,-1
191 274 m 1,14,-1
 223 290 l 1,15,-1
 254 274 l 1,16,-1
 261 241 l 1,17,-1
 240 214 l 1,18,-1
 205 214 l 1,19,-1
 184 241 l 1,20,-1
 191 274 l 1,14,-1
141 274 m 1,21,-1
 173 290 l 1,22,-1
 204 274 l 1,23,-1
 211 241 l 1,24,-1
 190 214 l 1,25,-1
 155 214 l 1,26,-1
 134 241 l 1,27,-1
 141 274 l 1,21,-1
91 274 m 1,28,-1
 123 290 l 1,29,-1
 154 274 l 1,30,-1
 161 241 l 1,31,-1
 140 214 l 1,32,-1
 105 214 l 1,33,-1
 84 241 l 1,34,-1
 91 274 l 1,28,-1
EndSplineSet
EndChar

StartChar: period
Encoding: 46 46 9
Width: 227
Flags: W
LayerCount: 2
Fore
SplineSet
97 42 m 1,0,-1
 129 58 l 1,1,-1
 160 42 l 1,2,-1
 167 9 l 1,3,-1
 146 -19 l 1,4,-1
 111 -19 l 1,5,-1
 90 9 l 1,6,-1
 97 42 l 1,0,-1
63 59 m 1,7,-1
 94 74 l 1,8,-1
 126 59 l 1,9,-1
 133 25 l 1,10,-1
 112 -2 l 1,11,-1
 77 -2 l 1,12,-1
 55 25 l 1,13,-1
 63 59 l 1,7,-1
85 87 m 1,14,-1
 116 103 l 1,15,-1
 147 87 l 1,16,-1
 155 54 l 1,17,-1
 133 26 l 1,18,-1
 99 26 l 1,19,-1
 77 54 l 1,20,-1
 85 87 l 1,14,-1
97 42 m 1,21,-1
 129 58 l 1,22,-1
 160 42 l 1,23,-1
 167 9 l 1,24,-1
 146 -19 l 1,25,-1
 111 -19 l 1,26,-1
 90 9 l 1,27,-1
 97 42 l 1,21,-1
EndSplineSet
EndChar

StartChar: slash
Encoding: 47 47 10
Width: 448
Flags: W
LayerCount: 2
Fore
SplineSet
33 44 m 1,0,-1
 65 60 l 1,1,-1
 96 44 l 1,2,-1
 103 11 l 1,3,-1
 82 -16 l 1,4,-1
 47 -16 l 1,5,-1
 26 11 l 1,6,-1
 33 44 l 1,0,-1
38 81 m 1,7,-1
 69 96 l 1,8,-1
 100 81 l 1,9,-1
 108 47 l 1,10,-1
 86 20 l 1,11,-1
 52 20 l 1,12,-1
 30 47 l 1,13,-1
 38 81 l 1,7,-1
69 120 m 1,14,-1
 101 135 l 1,15,-1
 132 120 l 1,16,-1
 140 86 l 1,17,-1
 118 59 l 1,18,-1
 83 59 l 1,19,-1
 62 86 l 1,20,-1
 69 120 l 1,14,-1
101 159 m 1,21,-1
 132 174 l 1,22,-1
 163 159 l 1,23,-1
 171 125 l 1,24,-1
 150 98 l 1,25,-1
 115 98 l 1,26,-1
 93 125 l 1,27,-1
 101 159 l 1,21,-1
133 198 m 1,28,-1
 164 213 l 1,29,-1
 195 198 l 1,30,-1
 203 164 l 1,31,-1
 181 137 l 1,32,-1
 146 137 l 1,33,-1
 125 164 l 1,34,-1
 133 198 l 1,28,-1
164 237 m 1,35,-1
 195 252 l 1,36,-1
 227 237 l 1,37,-1
 234 203 l 1,38,-1
 213 176 l 1,39,-1
 178 176 l 1,40,-1
 156 203 l 1,41,-1
 164 237 l 1,35,-1
196 275 m 1,42,-1
 227 290 l 1,43,-1
 258 275 l 1,44,-1
 266 242 l 1,45,-1
 244 214 l 1,46,-1
 210 214 l 1,47,-1
 188 242 l 1,48,-1
 196 275 l 1,42,-1
227 314 m 1,49,-1
 259 329 l 1,50,-1
 290 314 l 1,51,-1
 298 280 l 1,52,-1
 276 253 l 1,53,-1
 241 253 l 1,54,-1
 220 280 l 1,55,-1
 227 314 l 1,49,-1
259 353 m 1,56,-1
 290 368 l 1,57,-1
 321 353 l 1,58,-1
 329 319 l 1,59,-1
 308 292 l 1,60,-1
 273 292 l 1,61,-1
 251 319 l 1,62,-1
 259 353 l 1,56,-1
291 392 m 1,63,-1
 322 407 l 1,64,-1
 353 392 l 1,65,-1
 361 358 l 1,66,-1
 339 331 l 1,67,-1
 304 331 l 1,68,-1
 283 358 l 1,69,-1
 291 392 l 1,63,-1
322 431 m 1,70,-1
 353 446 l 1,71,-1
 385 431 l 1,72,-1
 392 397 l 1,73,-1
 371 370 l 1,74,-1
 336 370 l 1,75,-1
 314 397 l 1,76,-1
 322 431 l 1,70,-1
337 471 m 1,77,-1
 368 486 l 1,78,-1
 399 471 l 1,79,-1
 407 437 l 1,80,-1
 385 410 l 1,81,-1
 351 410 l 1,82,-1
 329 437 l 1,83,-1
 337 471 l 1,77,-1
363 494 m 1,84,-1
 395 510 l 1,85,-1
 426 494 l 1,86,-1
 433 461 l 1,87,-1
 412 433 l 1,88,-1
 377 433 l 1,89,-1
 356 461 l 1,90,-1
 363 494 l 1,84,-1
EndSplineSet
EndChar

StartChar: zero
Encoding: 48 48 11
Width: 546
Flags: W
LayerCount: 2
Fore
SplineSet
80 81 m 1,0,-1
 111 96 l 1,1,-1
 142 81 l 1,2,-1
 150 47 l 1,3,-1
 128 20 l 1,4,-1
 94 20 l 1,5,-1
 72 47 l 1,6,-1
 80 81 l 1,0,-1
111 120 m 1,7,-1
 143 135 l 1,8,-1
 174 120 l 1,9,-1
 182 86 l 1,10,-1
 160 59 l 1,11,-1
 125 59 l 1,12,-1
 104 86 l 1,13,-1
 111 120 l 1,7,-1
143 159 m 1,14,-1
 174 174 l 1,15,-1
 205 159 l 1,16,-1
 213 125 l 1,17,-1
 192 98 l 1,18,-1
 157 98 l 1,19,-1
 135 125 l 1,20,-1
 143 159 l 1,14,-1
175 198 m 1,21,-1
 206 213 l 1,22,-1
 237 198 l 1,23,-1
 245 164 l 1,24,-1
 223 137 l 1,25,-1
 188 137 l 1,26,-1
 167 164 l 1,27,-1
 175 198 l 1,21,-1
206 237 m 1,28,-1
 237 252 l 1,29,-1
 269 237 l 1,30,-1
 276 203 l 1,31,-1
 255 176 l 1,32,-1
 220 176 l 1,33,-1
 198 203 l 1,34,-1
 206 237 l 1,28,-1
238 275 m 1,35,-1
 269 290 l 1,36,-1
 300 275 l 1,37,-1
 308 242 l 1,38,-1
 286 214 l 1,39,-1
 252 214 l 1,40,-1
 230 242 l 1,41,-1
 238 275 l 1,35,-1
269 314 m 1,42,-1
 301 329 l 1,43,-1
 332 314 l 1,44,-1
 340 280 l 1,45,-1
 318 253 l 1,46,-1
 283 253 l 1,47,-1
 262 280 l 1,48,-1
 269 314 l 1,42,-1
301 353 m 1,49,-1
 332 368 l 1,50,-1
 363 353 l 1,51,-1
 371 319 l 1,52,-1
 350 292 l 1,53,-1
 315 292 l 1,54,-1
 293 319 l 1,55,-1
 301 353 l 1,49,-1
333 392 m 1,56,-1
 364 407 l 1,57,-1
 395 392 l 1,58,-1
 403 358 l 1,59,-1
 381 331 l 1,60,-1
 346 331 l 1,61,-1
 325 358 l 1,62,-1
 333 392 l 1,56,-1
364 431 m 1,63,-1
 395 446 l 1,64,-1
 427 431 l 1,65,-1
 434 397 l 1,66,-1
 413 370 l 1,67,-1
 378 370 l 1,68,-1
 356 397 l 1,69,-1
 364 431 l 1,63,-1
379 471 m 1,70,-1
 410 486 l 1,71,-1
 441 471 l 1,72,-1
 449 437 l 1,73,-1
 427 410 l 1,74,-1
 393 410 l 1,75,-1
 371 437 l 1,76,-1
 379 471 l 1,70,-1
163 504 m 1,77,-1
 195 520 l 1,78,-1
 226 504 l 1,79,-1
 233 471 l 1,80,-1
 212 443 l 1,81,-1
 177 443 l 1,82,-1
 156 471 l 1,83,-1
 163 504 l 1,77,-1
308 484 m 1,84,-1
 339 499 l 1,85,-1
 370 484 l 1,86,-1
 378 450 l 1,87,-1
 356 423 l 1,88,-1
 322 423 l 1,89,-1
 300 450 l 1,90,-1
 308 484 l 1,84,-1
348 456 m 1,91,-1
 380 471 l 1,92,-1
 411 456 l 1,93,-1
 419 422 l 1,94,-1
 397 395 l 1,95,-1
 362 395 l 1,96,-1
 341 422 l 1,97,-1
 348 456 l 1,91,-1
379 421 m 1,98,-1
 410 436 l 1,99,-1
 442 421 l 1,100,-1
 449 387 l 1,101,-1
 428 360 l 1,102,-1
 393 360 l 1,103,-1
 371 387 l 1,104,-1
 379 421 l 1,98,-1
402 376 m 1,105,-1
 434 391 l 1,106,-1
 465 376 l 1,107,-1
 473 342 l 1,108,-1
 451 315 l 1,109,-1
 416 315 l 1,110,-1
 395 342 l 1,111,-1
 402 376 l 1,105,-1
415 326 m 1,112,-1
 446 341 l 1,113,-1
 478 326 l 1,114,-1
 485 293 l 1,115,-1
 464 265 l 1,116,-1
 429 265 l 1,117,-1
 407 293 l 1,118,-1
 415 326 l 1,112,-1
419 278 m 1,119,-1
 450 293 l 1,120,-1
 482 278 l 1,121,-1
 489 244 l 1,122,-1
 468 217 l 1,123,-1
 433 217 l 1,124,-1
 411 244 l 1,125,-1
 419 278 l 1,119,-1
417 231 m 1,126,-1
 449 246 l 1,127,-1
 480 231 l 1,128,-1
 488 197 l 1,129,-1
 466 170 l 1,130,-1
 431 170 l 1,131,-1
 410 197 l 1,132,-1
 417 231 l 1,126,-1
408 181 m 1,133,-1
 439 196 l 1,134,-1
 471 181 l 1,135,-1
 478 147 l 1,136,-1
 457 120 l 1,137,-1
 422 120 l 1,138,-1
 400 147 l 1,139,-1
 408 181 l 1,133,-1
389 134 m 1,140,-1
 421 150 l 1,141,-1
 452 134 l 1,142,-1
 460 101 l 1,143,-1
 438 74 l 1,144,-1
 403 74 l 1,145,-1
 382 101 l 1,146,-1
 389 134 l 1,140,-1
361 96 m 1,147,-1
 392 111 l 1,148,-1
 424 96 l 1,149,-1
 431 62 l 1,150,-1
 410 35 l 1,151,-1
 375 35 l 1,152,-1
 353 62 l 1,153,-1
 361 96 l 1,147,-1
322 66 m 1,154,-1
 353 81 l 1,155,-1
 385 66 l 1,156,-1
 392 32 l 1,157,-1
 371 5 l 1,158,-1
 336 5 l 1,159,-1
 314 32 l 1,160,-1
 322 66 l 1,154,-1
275 47 m 1,161,-1
 306 62 l 1,162,-1
 338 47 l 1,163,-1
 345 13 l 1,164,-1
 324 -13 l 1,165,-1
 289 -13 l 1,166,-1
 267 13 l 1,167,-1
 275 47 l 1,161,-1
228 40 m 1,168,-1
 259 55 l 1,169,-1
 290 40 l 1,170,-1
 298 6 l 1,171,-1
 277 -20 l 1,172,-1
 242 -20 l 1,173,-1
 220 6 l 1,174,-1
 228 40 l 1,168,-1
179 52 m 1,175,-1
 211 67 l 1,176,-1
 242 52 l 1,177,-1
 250 19 l 1,178,-1
 228 -8 l 1,179,-1
 193 -8 l 1,180,-1
 172 19 l 1,181,-1
 179 52 l 1,175,-1
135 75 m 1,182,-1
 166 91 l 1,183,-1
 198 75 l 1,184,-1
 205 42 l 1,185,-1
 184 14 l 1,186,-1
 149 14 l 1,187,-1
 127 42 l 1,188,-1
 135 75 l 1,182,-1
101 108 m 1,189,-1
 133 123 l 1,190,-1
 164 108 l 1,191,-1
 171 74 l 1,192,-1
 150 47 l 1,193,-1
 115 47 l 1,194,-1
 94 74 l 1,195,-1
 101 108 l 1,189,-1
75 150 m 1,196,-1
 106 165 l 1,197,-1
 138 150 l 1,198,-1
 145 117 l 1,199,-1
 124 89 l 1,200,-1
 89 89 l 1,201,-1
 67 117 l 1,202,-1
 75 150 l 1,196,-1
60 198 m 1,203,-1
 91 213 l 1,204,-1
 123 198 l 1,205,-1
 130 164 l 1,206,-1
 109 137 l 1,207,-1
 74 137 l 1,208,-1
 52 164 l 1,209,-1
 60 198 l 1,203,-1
54 247 m 1,210,-1
 85 262 l 1,211,-1
 116 247 l 1,212,-1
 124 213 l 1,213,-1
 102 186 l 1,214,-1
 68 186 l 1,215,-1
 46 213 l 1,216,-1
 54 247 l 1,210,-1
54 295 m 1,217,-1
 85 310 l 1,218,-1
 117 295 l 1,219,-1
 124 261 l 1,220,-1
 103 234 l 1,221,-1
 68 234 l 1,222,-1
 46 261 l 1,223,-1
 54 295 l 1,217,-1
61 344 m 1,224,-1
 92 359 l 1,225,-1
 123 344 l 1,226,-1
 131 310 l 1,227,-1
 109 283 l 1,228,-1
 75 283 l 1,229,-1
 53 310 l 1,230,-1
 61 344 l 1,224,-1
76 390 m 1,231,-1
 107 406 l 1,232,-1
 139 390 l 1,233,-1
 146 357 l 1,234,-1
 125 330 l 1,235,-1
 90 330 l 1,236,-1
 68 357 l 1,237,-1
 76 390 l 1,231,-1
103 433 m 1,238,-1
 134 448 l 1,239,-1
 165 433 l 1,240,-1
 173 399 l 1,241,-1
 151 372 l 1,242,-1
 117 372 l 1,243,-1
 95 399 l 1,244,-1
 103 433 l 1,238,-1
138 468 m 1,245,-1
 169 483 l 1,246,-1
 200 468 l 1,247,-1
 208 434 l 1,248,-1
 187 407 l 1,249,-1
 152 407 l 1,250,-1
 130 434 l 1,251,-1
 138 468 l 1,245,-1
205 504 m 1,252,-1
 236 520 l 1,253,-1
 267 504 l 1,254,-1
 275 471 l 1,255,-1
 253 443 l 1,256,-1
 219 443 l 1,257,-1
 197 471 l 1,258,-1
 205 504 l 1,252,-1
163 504 m 1,259,-1
 195 520 l 1,260,-1
 226 504 l 1,261,-1
 233 471 l 1,262,-1
 212 443 l 1,263,-1
 177 443 l 1,264,-1
 156 471 l 1,265,-1
 163 504 l 1,259,-1
244 489 m 1,266,-1
 276 505 l 1,267,-1
 307 489 l 1,268,-1
 314 456 l 1,269,-1
 293 428 l 1,270,-1
 258 428 l 1,271,-1
 237 456 l 1,272,-1
 244 489 l 1,266,-1
EndSplineSet
EndChar

StartChar: one
Encoding: 49 49 12
Width: 413
Flags: W
LayerCount: 2
Fore
SplineSet
208 479 m 1,0,-1
 240 494 l 1,1,-1
 271 479 l 1,2,-1
 278 445 l 1,3,-1
 257 418 l 1,4,-1
 222 418 l 1,5,-1
 201 445 l 1,6,-1
 208 479 l 1,0,-1
179 442 m 1,7,-1
 210 457 l 1,8,-1
 242 442 l 1,9,-1
 249 408 l 1,10,-1
 228 381 l 1,11,-1
 193 381 l 1,12,-1
 171 408 l 1,13,-1
 179 442 l 1,7,-1
147 403 m 1,14,-1
 178 418 l 1,15,-1
 209 403 l 1,16,-1
 217 370 l 1,17,-1
 195 342 l 1,18,-1
 160 342 l 1,19,-1
 139 370 l 1,20,-1
 147 403 l 1,14,-1
114 365 m 1,21,-1
 145 380 l 1,22,-1
 177 365 l 1,23,-1
 184 331 l 1,24,-1
 163 304 l 1,25,-1
 128 304 l 1,26,-1
 106 331 l 1,27,-1
 114 365 l 1,21,-1
83 328 m 1,28,-1
 114 343 l 1,29,-1
 146 328 l 1,30,-1
 153 295 l 1,31,-1
 132 267 l 1,32,-1
 97 267 l 1,33,-1
 75 295 l 1,34,-1
 83 328 l 1,28,-1
51 290 m 1,35,-1
 82 305 l 1,36,-1
 113 290 l 1,37,-1
 121 256 l 1,38,-1
 99 229 l 1,39,-1
 65 229 l 1,40,-1
 43 256 l 1,41,-1
 51 290 l 1,35,-1
234 42 m 1,42,-1
 266 57 l 1,43,-1
 297 42 l 1,44,-1
 304 8 l 1,45,-1
 283 -18 l 1,46,-1
 248 -18 l 1,47,-1
 227 8 l 1,48,-1
 234 42 l 1,42,-1
234 92 m 1,49,-1
 266 107 l 1,50,-1
 297 92 l 1,51,-1
 304 58 l 1,52,-1
 283 31 l 1,53,-1
 248 31 l 1,54,-1
 227 58 l 1,55,-1
 234 92 l 1,49,-1
234 142 m 1,56,-1
 266 157 l 1,57,-1
 297 142 l 1,58,-1
 304 108 l 1,59,-1
 283 81 l 1,60,-1
 248 81 l 1,61,-1
 227 108 l 1,62,-1
 234 142 l 1,56,-1
234 192 m 1,63,-1
 266 207 l 1,64,-1
 297 192 l 1,65,-1
 304 158 l 1,66,-1
 283 131 l 1,67,-1
 248 131 l 1,68,-1
 227 158 l 1,69,-1
 234 192 l 1,63,-1
234 242 m 1,70,-1
 266 257 l 1,71,-1
 297 242 l 1,72,-1
 304 208 l 1,73,-1
 283 181 l 1,74,-1
 248 181 l 1,75,-1
 227 208 l 1,76,-1
 234 242 l 1,70,-1
234 292 m 1,77,-1
 266 307 l 1,78,-1
 297 292 l 1,79,-1
 304 258 l 1,80,-1
 283 231 l 1,81,-1
 248 231 l 1,82,-1
 227 258 l 1,83,-1
 234 292 l 1,77,-1
234 342 m 1,84,-1
 266 357 l 1,85,-1
 297 342 l 1,86,-1
 304 308 l 1,87,-1
 283 281 l 1,88,-1
 248 281 l 1,89,-1
 227 308 l 1,90,-1
 234 342 l 1,84,-1
234 392 m 1,91,-1
 266 407 l 1,92,-1
 297 392 l 1,93,-1
 304 358 l 1,94,-1
 283 331 l 1,95,-1
 248 331 l 1,96,-1
 227 358 l 1,97,-1
 234 392 l 1,91,-1
234 442 m 1,98,-1
 266 457 l 1,99,-1
 297 442 l 1,100,-1
 304 408 l 1,101,-1
 283 381 l 1,102,-1
 248 381 l 1,103,-1
 227 408 l 1,104,-1
 234 442 l 1,98,-1
EndSplineSet
EndChar

StartChar: two
Encoding: 50 50 13
Width: 497
Flags: W
LayerCount: 2
Fore
SplineSet
133 460 m 1,0,-1
 165 476 l 1,1,-1
 196 460 l 1,2,-1
 203 427 l 1,3,-1
 182 399 l 1,4,-1
 147 399 l 1,5,-1
 126 427 l 1,6,-1
 133 460 l 1,0,-1
175 488 m 1,7,-1
 206 503 l 1,8,-1
 238 488 l 1,9,-1
 245 454 l 1,10,-1
 224 427 l 1,11,-1
 189 427 l 1,12,-1
 167 454 l 1,13,-1
 175 488 l 1,7,-1
223 495 m 1,14,-1
 255 511 l 1,15,-1
 286 495 l 1,16,-1
 293 462 l 1,17,-1
 272 434 l 1,18,-1
 237 434 l 1,19,-1
 216 462 l 1,20,-1
 223 495 l 1,14,-1
270 488 m 1,21,-1
 301 503 l 1,22,-1
 332 488 l 1,23,-1
 340 454 l 1,24,-1
 319 427 l 1,25,-1
 284 427 l 1,26,-1
 262 454 l 1,27,-1
 270 488 l 1,21,-1
313 460 m 1,28,-1
 345 476 l 1,29,-1
 376 460 l 1,30,-1
 383 427 l 1,31,-1
 362 399 l 1,32,-1
 327 399 l 1,33,-1
 306 427 l 1,34,-1
 313 460 l 1,28,-1
340 422 m 1,35,-1
 372 437 l 1,36,-1
 403 422 l 1,37,-1
 411 388 l 1,38,-1
 389 361 l 1,39,-1
 354 361 l 1,40,-1
 333 388 l 1,41,-1
 340 422 l 1,35,-1
348 370 m 1,42,-1
 380 386 l 1,43,-1
 411 370 l 1,44,-1
 418 337 l 1,45,-1
 397 309 l 1,46,-1
 362 309 l 1,47,-1
 341 337 l 1,48,-1
 348 370 l 1,42,-1
103 430 m 1,49,-1
 135 446 l 1,50,-1
 166 430 l 1,51,-1
 173 397 l 1,52,-1
 152 369 l 1,53,-1
 117 369 l 1,54,-1
 96 397 l 1,55,-1
 103 430 l 1,49,-1
84 383 m 1,56,-1
 115 398 l 1,57,-1
 146 383 l 1,58,-1
 154 349 l 1,59,-1
 133 322 l 1,60,-1
 98 322 l 1,61,-1
 76 349 l 1,62,-1
 84 383 l 1,56,-1
83 44 m 1,63,-1
 115 60 l 1,64,-1
 146 44 l 1,65,-1
 153 11 l 1,66,-1
 132 -16 l 1,67,-1
 97 -16 l 1,68,-1
 76 11 l 1,69,-1
 83 44 l 1,63,-1
319 325 m 1,70,-1
 350 340 l 1,71,-1
 382 325 l 1,72,-1
 389 291 l 1,73,-1
 368 264 l 1,74,-1
 333 264 l 1,75,-1
 311 291 l 1,76,-1
 319 325 l 1,70,-1
287 286 m 1,77,-1
 318 301 l 1,78,-1
 349 286 l 1,79,-1
 357 253 l 1,80,-1
 335 225 l 1,81,-1
 300 225 l 1,82,-1
 279 253 l 1,83,-1
 287 286 l 1,77,-1
254 248 m 1,84,-1
 285 263 l 1,85,-1
 317 248 l 1,86,-1
 324 214 l 1,87,-1
 303 187 l 1,88,-1
 268 187 l 1,89,-1
 246 214 l 1,90,-1
 254 248 l 1,84,-1
223 211 m 1,91,-1
 254 226 l 1,92,-1
 286 211 l 1,93,-1
 293 178 l 1,94,-1
 272 150 l 1,95,-1
 237 150 l 1,96,-1
 215 178 l 1,97,-1
 223 211 l 1,91,-1
191 173 m 1,98,-1
 222 188 l 1,99,-1
 253 173 l 1,100,-1
 261 139 l 1,101,-1
 239 112 l 1,102,-1
 205 112 l 1,103,-1
 183 139 l 1,104,-1
 191 173 l 1,98,-1
158 134 m 1,105,-1
 189 149 l 1,106,-1
 221 134 l 1,107,-1
 228 101 l 1,108,-1
 207 73 l 1,109,-1
 172 73 l 1,110,-1
 151 101 l 1,111,-1
 158 134 l 1,105,-1
122 102 m 1,112,-1
 153 117 l 1,113,-1
 184 102 l 1,114,-1
 192 68 l 1,115,-1
 170 41 l 1,116,-1
 136 41 l 1,117,-1
 114 68 l 1,118,-1
 122 102 l 1,112,-1
104 65 m 1,119,-1
 135 80 l 1,120,-1
 166 65 l 1,121,-1
 174 31 l 1,122,-1
 152 4 l 1,123,-1
 118 4 l 1,124,-1
 96 31 l 1,125,-1
 104 65 l 1,119,-1
338 49 m 1,126,-1
 370 65 l 1,127,-1
 401 49 l 1,128,-1
 408 16 l 1,129,-1
 387 -11 l 1,130,-1
 352 -11 l 1,131,-1
 331 16 l 1,132,-1
 338 49 l 1,126,-1
276 44 m 1,133,-1
 307 60 l 1,134,-1
 338 44 l 1,135,-1
 346 11 l 1,136,-1
 324 -16 l 1,137,-1
 290 -16 l 1,138,-1
 268 11 l 1,139,-1
 276 44 l 1,133,-1
226 44 m 1,140,-1
 257 60 l 1,141,-1
 288 44 l 1,142,-1
 296 11 l 1,143,-1
 274 -16 l 1,144,-1
 240 -16 l 1,145,-1
 218 11 l 1,146,-1
 226 44 l 1,140,-1
176 44 m 1,147,-1
 207 60 l 1,148,-1
 238 44 l 1,149,-1
 246 11 l 1,150,-1
 224 -16 l 1,151,-1
 190 -16 l 1,152,-1
 168 11 l 1,153,-1
 176 44 l 1,147,-1
126 44 m 1,154,-1
 157 60 l 1,155,-1
 188 44 l 1,156,-1
 196 11 l 1,157,-1
 174 -16 l 1,158,-1
 140 -16 l 1,159,-1
 118 11 l 1,160,-1
 126 44 l 1,154,-1
EndSplineSet
EndChar

StartChar: three
Encoding: 51 51 14
Width: 520
Flags: W
LayerCount: 2
Fore
SplineSet
202 302 m 1,0,-1
 233 318 l 1,1,-1
 265 302 l 1,2,-1
 272 269 l 1,3,-1
 251 241 l 1,4,-1
 216 241 l 1,5,-1
 194 269 l 1,6,-1
 202 302 l 1,0,-1
244 301 m 1,7,-1
 275 316 l 1,8,-1
 307 301 l 1,9,-1
 314 267 l 1,10,-1
 293 240 l 1,11,-1
 258 240 l 1,12,-1
 236 267 l 1,13,-1
 244 301 l 1,7,-1
330 256 m 1,14,-1
 361 271 l 1,15,-1
 393 256 l 1,16,-1
 400 222 l 1,17,-1
 379 195 l 1,18,-1
 344 195 l 1,19,-1
 322 222 l 1,20,-1
 330 256 l 1,14,-1
359 299 m 1,21,-1
 391 314 l 1,22,-1
 422 299 l 1,23,-1
 430 265 l 1,24,-1
 408 238 l 1,25,-1
 373 238 l 1,26,-1
 352 265 l 1,27,-1
 359 299 l 1,21,-1
378 199 m 1,28,-1
 409 214 l 1,29,-1
 441 199 l 1,30,-1
 448 165 l 1,31,-1
 427 138 l 1,32,-1
 392 138 l 1,33,-1
 370 165 l 1,34,-1
 378 199 l 1,28,-1
372 155 m 1,35,-1
 403 170 l 1,36,-1
 435 155 l 1,37,-1
 442 121 l 1,38,-1
 421 94 l 1,39,-1
 386 94 l 1,40,-1
 364 121 l 1,41,-1
 372 155 l 1,35,-1
354 111 m 1,42,-1
 385 126 l 1,43,-1
 416 111 l 1,44,-1
 424 77 l 1,45,-1
 402 50 l 1,46,-1
 368 50 l 1,47,-1
 346 77 l 1,48,-1
 354 111 l 1,42,-1
322 73 m 1,49,-1
 353 88 l 1,50,-1
 385 73 l 1,51,-1
 392 39 l 1,52,-1
 371 12 l 1,53,-1
 336 12 l 1,54,-1
 314 39 l 1,55,-1
 322 73 l 1,49,-1
280 49 m 1,56,-1
 311 64 l 1,57,-1
 342 49 l 1,58,-1
 350 15 l 1,59,-1
 328 -11 l 1,60,-1
 294 -11 l 1,61,-1
 272 15 l 1,62,-1
 280 49 l 1,56,-1
229 40 m 1,63,-1
 260 55 l 1,64,-1
 291 40 l 1,65,-1
 299 6 l 1,66,-1
 277 -20 l 1,67,-1
 243 -20 l 1,68,-1
 221 6 l 1,69,-1
 229 40 l 1,63,-1
182 43 m 1,70,-1
 214 58 l 1,71,-1
 245 43 l 1,72,-1
 253 9 l 1,73,-1
 231 -17 l 1,74,-1
 196 -17 l 1,75,-1
 175 9 l 1,76,-1
 182 43 l 1,70,-1
137 60 m 1,77,-1
 169 75 l 1,78,-1
 200 60 l 1,79,-1
 208 26 l 1,80,-1
 186 0 l 1,81,-1
 151 0 l 1,82,-1
 130 26 l 1,83,-1
 137 60 l 1,77,-1
101 93 m 1,84,-1
 132 108 l 1,85,-1
 163 93 l 1,86,-1
 171 59 l 1,87,-1
 149 32 l 1,88,-1
 115 32 l 1,89,-1
 93 59 l 1,90,-1
 101 93 l 1,84,-1
76 135 m 1,91,-1
 107 150 l 1,92,-1
 138 135 l 1,93,-1
 146 101 l 1,94,-1
 124 74 l 1,95,-1
 90 74 l 1,96,-1
 68 101 l 1,97,-1
 76 135 l 1,91,-1
65 182 m 1,98,-1
 96 198 l 1,99,-1
 127 182 l 1,100,-1
 135 149 l 1,101,-1
 113 121 l 1,102,-1
 79 121 l 1,103,-1
 57 149 l 1,104,-1
 65 182 l 1,98,-1
288 292 m 1,105,-1
 320 308 l 1,106,-1
 351 292 l 1,107,-1
 358 259 l 1,108,-1
 337 231 l 1,109,-1
 302 231 l 1,110,-1
 281 259 l 1,111,-1
 288 292 l 1,105,-1
202 494 m 1,112,-1
 233 510 l 1,113,-1
 265 494 l 1,114,-1
 272 461 l 1,115,-1
 251 433 l 1,116,-1
 216 433 l 1,117,-1
 194 461 l 1,118,-1
 202 494 l 1,112,-1
244 493 m 1,119,-1
 275 508 l 1,120,-1
 307 493 l 1,121,-1
 314 459 l 1,122,-1
 293 432 l 1,123,-1
 258 432 l 1,124,-1
 236 459 l 1,125,-1
 244 493 l 1,119,-1
330 448 m 1,126,-1
 361 463 l 1,127,-1
 393 448 l 1,128,-1
 400 414 l 1,129,-1
 379 387 l 1,130,-1
 344 387 l 1,131,-1
 322 414 l 1,132,-1
 330 448 l 1,126,-1
359 409 m 1,133,-1
 391 424 l 1,134,-1
 422 409 l 1,135,-1
 430 375 l 1,136,-1
 408 348 l 1,137,-1
 373 348 l 1,138,-1
 352 375 l 1,139,-1
 359 409 l 1,133,-1
375 362 m 1,140,-1
 406 377 l 1,141,-1
 437 362 l 1,142,-1
 445 328 l 1,143,-1
 423 301 l 1,144,-1
 389 301 l 1,145,-1
 367 328 l 1,146,-1
 375 362 l 1,140,-1
354 221 m 1,147,-1
 385 236 l 1,148,-1
 416 221 l 1,149,-1
 424 187 l 1,150,-1
 402 160 l 1,151,-1
 368 160 l 1,152,-1
 346 187 l 1,153,-1
 354 221 l 1,147,-1
74 390 m 1,154,-1
 105 405 l 1,155,-1
 137 390 l 1,156,-1
 144 356 l 1,157,-1
 123 329 l 1,158,-1
 88 329 l 1,159,-1
 66 356 l 1,160,-1
 74 390 l 1,154,-1
98 433 m 1,161,-1
 129 448 l 1,162,-1
 160 433 l 1,163,-1
 168 399 l 1,164,-1
 146 372 l 1,165,-1
 112 372 l 1,166,-1
 90 399 l 1,167,-1
 98 433 l 1,161,-1
131 467 m 1,168,-1
 162 482 l 1,169,-1
 194 467 l 1,170,-1
 201 433 l 1,171,-1
 180 406 l 1,172,-1
 145 406 l 1,173,-1
 123 433 l 1,174,-1
 131 467 l 1,168,-1
148 494 m 1,175,-1
 180 510 l 1,176,-1
 211 494 l 1,177,-1
 218 461 l 1,178,-1
 197 433 l 1,179,-1
 162 433 l 1,180,-1
 141 461 l 1,181,-1
 148 494 l 1,175,-1
288 484 m 1,182,-1
 320 500 l 1,183,-1
 351 484 l 1,184,-1
 358 451 l 1,185,-1
 337 423 l 1,186,-1
 302 423 l 1,187,-1
 281 451 l 1,188,-1
 288 484 l 1,182,-1
EndSplineSet
EndChar

StartChar: four
Encoding: 52 52 15
Width: 488
Flags: W
LayerCount: 2
Fore
SplineSet
291 52 m 1,0,-1
 323 67 l 1,1,-1
 354 52 l 1,2,-1
 361 18 l 1,3,-1
 340 -8 l 1,4,-1
 305 -8 l 1,5,-1
 284 18 l 1,6,-1
 291 52 l 1,0,-1
291 102 m 1,7,-1
 323 117 l 1,8,-1
 354 102 l 1,9,-1
 361 68 l 1,10,-1
 340 41 l 1,11,-1
 305 41 l 1,12,-1
 284 68 l 1,13,-1
 291 102 l 1,7,-1
291 152 m 1,14,-1
 323 167 l 1,15,-1
 354 152 l 1,16,-1
 361 118 l 1,17,-1
 340 91 l 1,18,-1
 305 91 l 1,19,-1
 284 118 l 1,20,-1
 291 152 l 1,14,-1
291 202 m 1,21,-1
 323 217 l 1,22,-1
 354 202 l 1,23,-1
 361 168 l 1,24,-1
 340 141 l 1,25,-1
 305 141 l 1,26,-1
 284 168 l 1,27,-1
 291 202 l 1,21,-1
291 252 m 1,28,-1
 323 267 l 1,29,-1
 354 252 l 1,30,-1
 361 218 l 1,31,-1
 340 191 l 1,32,-1
 305 191 l 1,33,-1
 284 218 l 1,34,-1
 291 252 l 1,28,-1
291 302 m 1,35,-1
 323 317 l 1,36,-1
 354 302 l 1,37,-1
 361 268 l 1,38,-1
 340 241 l 1,39,-1
 305 241 l 1,40,-1
 284 268 l 1,41,-1
 291 302 l 1,35,-1
291 352 m 1,42,-1
 323 367 l 1,43,-1
 354 352 l 1,44,-1
 361 318 l 1,45,-1
 340 291 l 1,46,-1
 305 291 l 1,47,-1
 284 318 l 1,48,-1
 291 352 l 1,42,-1
291 402 m 1,49,-1
 323 417 l 1,50,-1
 354 402 l 1,51,-1
 361 368 l 1,52,-1
 340 341 l 1,53,-1
 305 341 l 1,54,-1
 284 368 l 1,55,-1
 291 402 l 1,49,-1
314 491 m 1,56,-1
 346 507 l 1,57,-1
 377 491 l 1,58,-1
 384 458 l 1,59,-1
 363 430 l 1,60,-1
 328 430 l 1,61,-1
 307 458 l 1,62,-1
 314 491 l 1,56,-1
49 165 m 1,63,-1
 81 181 l 1,64,-1
 112 165 l 1,65,-1
 119 132 l 1,66,-1
 98 105 l 1,67,-1
 63 105 l 1,68,-1
 42 132 l 1,69,-1
 49 165 l 1,63,-1
285 446 m 1,70,-1
 316 461 l 1,71,-1
 348 446 l 1,72,-1
 355 412 l 1,73,-1
 334 385 l 1,74,-1
 299 385 l 1,75,-1
 277 412 l 1,76,-1
 285 446 l 1,70,-1
253 407 m 1,77,-1
 284 422 l 1,78,-1
 315 407 l 1,79,-1
 323 374 l 1,80,-1
 301 346 l 1,81,-1
 266 346 l 1,82,-1
 245 374 l 1,83,-1
 253 407 l 1,77,-1
220 369 m 1,84,-1
 251 384 l 1,85,-1
 283 369 l 1,86,-1
 290 335 l 1,87,-1
 269 308 l 1,88,-1
 234 308 l 1,89,-1
 212 335 l 1,90,-1
 220 369 l 1,84,-1
189 332 m 1,91,-1
 220 347 l 1,92,-1
 252 332 l 1,93,-1
 259 299 l 1,94,-1
 238 271 l 1,95,-1
 203 271 l 1,96,-1
 181 299 l 1,97,-1
 189 332 l 1,91,-1
157 294 m 1,98,-1
 188 309 l 1,99,-1
 219 294 l 1,100,-1
 227 260 l 1,101,-1
 205 233 l 1,102,-1
 171 233 l 1,103,-1
 149 260 l 1,104,-1
 157 294 l 1,98,-1
124 255 m 1,105,-1
 155 270 l 1,106,-1
 187 255 l 1,107,-1
 194 222 l 1,108,-1
 173 194 l 1,109,-1
 138 194 l 1,110,-1
 117 222 l 1,111,-1
 124 255 l 1,105,-1
88 223 m 1,112,-1
 119 238 l 1,113,-1
 150 223 l 1,114,-1
 158 189 l 1,115,-1
 136 162 l 1,116,-1
 102 162 l 1,117,-1
 80 189 l 1,118,-1
 88 223 l 1,112,-1
70 186 m 1,119,-1
 101 201 l 1,120,-1
 132 186 l 1,121,-1
 140 152 l 1,122,-1
 118 125 l 1,123,-1
 84 125 l 1,124,-1
 62 152 l 1,125,-1
 70 186 l 1,119,-1
336 170 m 1,126,-1
 368 186 l 1,127,-1
 399 170 l 1,128,-1
 406 137 l 1,129,-1
 385 110 l 1,130,-1
 350 110 l 1,131,-1
 329 137 l 1,132,-1
 336 170 l 1,126,-1
242 165 m 1,133,-1
 273 181 l 1,134,-1
 304 165 l 1,135,-1
 312 132 l 1,136,-1
 290 105 l 1,137,-1
 256 105 l 1,138,-1
 234 132 l 1,139,-1
 242 165 l 1,133,-1
192 165 m 1,140,-1
 223 181 l 1,141,-1
 254 165 l 1,142,-1
 262 132 l 1,143,-1
 240 105 l 1,144,-1
 206 105 l 1,145,-1
 184 132 l 1,146,-1
 192 165 l 1,140,-1
142 165 m 1,147,-1
 173 181 l 1,148,-1
 204 165 l 1,149,-1
 212 132 l 1,150,-1
 190 105 l 1,151,-1
 156 105 l 1,152,-1
 134 132 l 1,153,-1
 142 165 l 1,147,-1
92 165 m 1,154,-1
 123 181 l 1,155,-1
 154 165 l 1,156,-1
 162 132 l 1,157,-1
 140 105 l 1,158,-1
 106 105 l 1,159,-1
 84 132 l 1,160,-1
 92 165 l 1,154,-1
EndSplineSet
EndChar

StartChar: five
Encoding: 53 53 16
Width: 522
Flags: W
LayerCount: 2
Fore
SplineSet
308 494 m 1,0,-1
 340 510 l 1,1,-1
 371 494 l 1,2,-1
 378 461 l 1,3,-1
 357 433 l 1,4,-1
 322 433 l 1,5,-1
 301 461 l 1,6,-1
 308 494 l 1,0,-1
94 302 m 1,7,-1
 126 317 l 1,8,-1
 157 302 l 1,9,-1
 164 268 l 1,10,-1
 143 241 l 1,11,-1
 108 241 l 1,12,-1
 87 268 l 1,13,-1
 94 302 l 1,7,-1
94 352 m 1,14,-1
 126 367 l 1,15,-1
 157 352 l 1,16,-1
 164 318 l 1,17,-1
 143 291 l 1,18,-1
 108 291 l 1,19,-1
 87 318 l 1,20,-1
 94 352 l 1,14,-1
94 402 m 1,21,-1
 126 417 l 1,22,-1
 157 402 l 1,23,-1
 164 368 l 1,24,-1
 143 341 l 1,25,-1
 108 341 l 1,26,-1
 87 368 l 1,27,-1
 94 402 l 1,21,-1
94 452 m 1,28,-1
 126 467 l 1,29,-1
 157 452 l 1,30,-1
 164 418 l 1,31,-1
 143 391 l 1,32,-1
 108 391 l 1,33,-1
 87 418 l 1,34,-1
 94 452 l 1,28,-1
109 494 m 1,35,-1
 141 510 l 1,36,-1
 172 494 l 1,37,-1
 179 461 l 1,38,-1
 158 433 l 1,39,-1
 123 433 l 1,40,-1
 102 461 l 1,41,-1
 109 494 l 1,35,-1
159 494 m 1,42,-1
 191 510 l 1,43,-1
 222 494 l 1,44,-1
 229 461 l 1,45,-1
 208 433 l 1,46,-1
 173 433 l 1,47,-1
 152 461 l 1,48,-1
 159 494 l 1,42,-1
209 494 m 1,49,-1
 241 510 l 1,50,-1
 272 494 l 1,51,-1
 279 461 l 1,52,-1
 258 433 l 1,53,-1
 223 433 l 1,54,-1
 202 461 l 1,55,-1
 209 494 l 1,49,-1
259 494 m 1,56,-1
 291 510 l 1,57,-1
 322 494 l 1,58,-1
 329 461 l 1,59,-1
 308 433 l 1,60,-1
 273 433 l 1,61,-1
 252 461 l 1,62,-1
 259 494 l 1,56,-1
151 302 m 1,63,-1
 182 318 l 1,64,-1
 214 302 l 1,65,-1
 221 269 l 1,66,-1
 200 241 l 1,67,-1
 165 241 l 1,68,-1
 143 269 l 1,69,-1
 151 302 l 1,63,-1
196 302 m 1,70,-1
 227 318 l 1,71,-1
 259 302 l 1,72,-1
 266 269 l 1,73,-1
 245 241 l 1,74,-1
 210 241 l 1,75,-1
 188 269 l 1,76,-1
 196 302 l 1,70,-1
238 301 m 1,77,-1
 269 316 l 1,78,-1
 301 301 l 1,79,-1
 308 267 l 1,80,-1
 287 240 l 1,81,-1
 252 240 l 1,82,-1
 230 267 l 1,83,-1
 238 301 l 1,77,-1
324 274 m 1,84,-1
 355 289 l 1,85,-1
 387 274 l 1,86,-1
 394 240 l 1,87,-1
 373 213 l 1,88,-1
 338 213 l 1,89,-1
 316 240 l 1,90,-1
 324 274 l 1,84,-1
372 204 m 1,91,-1
 403 219 l 1,92,-1
 435 204 l 1,93,-1
 442 170 l 1,94,-1
 421 143 l 1,95,-1
 386 143 l 1,96,-1
 364 170 l 1,97,-1
 372 204 l 1,91,-1
366 155 m 1,98,-1
 397 170 l 1,99,-1
 429 155 l 1,100,-1
 436 121 l 1,101,-1
 415 94 l 1,102,-1
 380 94 l 1,103,-1
 358 121 l 1,104,-1
 366 155 l 1,98,-1
348 111 m 1,105,-1
 379 126 l 1,106,-1
 410 111 l 1,107,-1
 418 77 l 1,108,-1
 396 50 l 1,109,-1
 362 50 l 1,110,-1
 340 77 l 1,111,-1
 348 111 l 1,105,-1
316 73 m 1,112,-1
 347 88 l 1,113,-1
 379 73 l 1,114,-1
 386 39 l 1,115,-1
 365 12 l 1,116,-1
 330 12 l 1,117,-1
 308 39 l 1,118,-1
 316 73 l 1,112,-1
274 49 m 1,119,-1
 305 64 l 1,120,-1
 336 49 l 1,121,-1
 344 15 l 1,122,-1
 322 -11 l 1,123,-1
 288 -11 l 1,124,-1
 266 15 l 1,125,-1
 274 49 l 1,119,-1
223 40 m 1,126,-1
 254 55 l 1,127,-1
 285 40 l 1,128,-1
 293 6 l 1,129,-1
 271 -20 l 1,130,-1
 237 -20 l 1,131,-1
 215 6 l 1,132,-1
 223 40 l 1,126,-1
176 43 m 1,133,-1
 208 58 l 1,134,-1
 239 43 l 1,135,-1
 247 9 l 1,136,-1
 225 -17 l 1,137,-1
 190 -17 l 1,138,-1
 169 9 l 1,139,-1
 176 43 l 1,133,-1
131 60 m 1,140,-1
 163 75 l 1,141,-1
 194 60 l 1,142,-1
 202 26 l 1,143,-1
 180 0 l 1,144,-1
 145 0 l 1,145,-1
 124 26 l 1,146,-1
 131 60 l 1,140,-1
95 93 m 1,147,-1
 126 108 l 1,148,-1
 157 93 l 1,149,-1
 165 59 l 1,150,-1
 143 32 l 1,151,-1
 109 32 l 1,152,-1
 87 59 l 1,153,-1
 95 93 l 1,147,-1
70 135 m 1,154,-1
 101 150 l 1,155,-1
 132 135 l 1,156,-1
 140 101 l 1,157,-1
 118 74 l 1,158,-1
 84 74 l 1,159,-1
 62 101 l 1,160,-1
 70 135 l 1,154,-1
282 292 m 1,161,-1
 314 308 l 1,162,-1
 345 292 l 1,163,-1
 352 259 l 1,164,-1
 331 231 l 1,165,-1
 296 231 l 1,166,-1
 275 259 l 1,167,-1
 282 292 l 1,161,-1
348 239 m 1,168,-1
 379 254 l 1,169,-1
 410 239 l 1,170,-1
 418 205 l 1,171,-1
 396 178 l 1,172,-1
 362 178 l 1,173,-1
 340 205 l 1,174,-1
 348 239 l 1,168,-1
EndSplineSet
EndChar

StartChar: six
Encoding: 54 54 17
Width: 500
Flags: W
LayerCount: 2
Fore
SplineSet
82 353 m 1,0,-1
 113 368 l 1,1,-1
 144 353 l 1,2,-1
 152 319 l 1,3,-1
 131 292 l 1,4,-1
 96 292 l 1,5,-1
 74 319 l 1,6,-1
 82 353 l 1,0,-1
105 392 m 1,7,-1
 136 407 l 1,8,-1
 167 392 l 1,9,-1
 175 358 l 1,10,-1
 153 331 l 1,11,-1
 118 331 l 1,12,-1
 97 358 l 1,13,-1
 105 392 l 1,7,-1
134 431 m 1,14,-1
 165 446 l 1,15,-1
 197 431 l 1,16,-1
 204 397 l 1,17,-1
 183 370 l 1,18,-1
 148 370 l 1,19,-1
 126 397 l 1,20,-1
 134 431 l 1,14,-1
160 471 m 1,21,-1
 191 486 l 1,22,-1
 222 471 l 1,23,-1
 230 437 l 1,24,-1
 208 410 l 1,25,-1
 174 410 l 1,26,-1
 152 437 l 1,27,-1
 160 471 l 1,21,-1
186 494 m 1,28,-1
 218 510 l 1,29,-1
 249 494 l 1,30,-1
 256 461 l 1,31,-1
 235 433 l 1,32,-1
 200 433 l 1,33,-1
 179 461 l 1,34,-1
 186 494 l 1,28,-1
190 384 m 1,35,-1
 221 400 l 1,36,-1
 253 384 l 1,37,-1
 260 351 l 1,38,-1
 239 323 l 1,39,-1
 204 323 l 1,40,-1
 182 351 l 1,41,-1
 190 384 l 1,35,-1
232 383 m 1,42,-1
 263 398 l 1,43,-1
 295 383 l 1,44,-1
 302 349 l 1,45,-1
 281 322 l 1,46,-1
 246 322 l 1,47,-1
 224 349 l 1,48,-1
 232 383 l 1,42,-1
318 338 m 1,49,-1
 349 353 l 1,50,-1
 381 338 l 1,51,-1
 388 304 l 1,52,-1
 367 277 l 1,53,-1
 332 277 l 1,54,-1
 310 304 l 1,55,-1
 318 338 l 1,49,-1
347 299 m 1,56,-1
 379 314 l 1,57,-1
 410 299 l 1,58,-1
 418 265 l 1,59,-1
 396 238 l 1,60,-1
 361 238 l 1,61,-1
 340 265 l 1,62,-1
 347 299 l 1,56,-1
363 252 m 1,63,-1
 394 267 l 1,64,-1
 425 252 l 1,65,-1
 433 218 l 1,66,-1
 411 191 l 1,67,-1
 377 191 l 1,68,-1
 355 218 l 1,69,-1
 363 252 l 1,63,-1
366 204 m 1,70,-1
 397 219 l 1,71,-1
 429 204 l 1,72,-1
 436 170 l 1,73,-1
 415 143 l 1,74,-1
 380 143 l 1,75,-1
 358 170 l 1,76,-1
 366 204 l 1,70,-1
360 155 m 1,77,-1
 391 170 l 1,78,-1
 423 155 l 1,79,-1
 430 121 l 1,80,-1
 409 94 l 1,81,-1
 374 94 l 1,82,-1
 352 121 l 1,83,-1
 360 155 l 1,77,-1
342 111 m 1,84,-1
 373 126 l 1,85,-1
 404 111 l 1,86,-1
 412 77 l 1,87,-1
 390 50 l 1,88,-1
 356 50 l 1,89,-1
 334 77 l 1,90,-1
 342 111 l 1,84,-1
310 73 m 1,91,-1
 341 88 l 1,92,-1
 373 73 l 1,93,-1
 380 39 l 1,94,-1
 359 12 l 1,95,-1
 324 12 l 1,96,-1
 302 39 l 1,97,-1
 310 73 l 1,91,-1
268 49 m 1,98,-1
 299 64 l 1,99,-1
 330 49 l 1,100,-1
 338 15 l 1,101,-1
 316 -11 l 1,102,-1
 282 -11 l 1,103,-1
 260 15 l 1,104,-1
 268 49 l 1,98,-1
217 40 m 1,105,-1
 248 55 l 1,106,-1
 279 40 l 1,107,-1
 287 6 l 1,108,-1
 265 -20 l 1,109,-1
 231 -20 l 1,110,-1
 209 6 l 1,111,-1
 217 40 l 1,105,-1
170 43 m 1,112,-1
 202 58 l 1,113,-1
 233 43 l 1,114,-1
 241 9 l 1,115,-1
 219 -17 l 1,116,-1
 184 -17 l 1,117,-1
 163 9 l 1,118,-1
 170 43 l 1,112,-1
125 60 m 1,119,-1
 157 75 l 1,120,-1
 188 60 l 1,121,-1
 196 26 l 1,122,-1
 174 0 l 1,123,-1
 139 0 l 1,124,-1
 118 26 l 1,125,-1
 125 60 l 1,119,-1
89 93 m 1,126,-1
 120 108 l 1,127,-1
 151 93 l 1,128,-1
 159 59 l 1,129,-1
 137 32 l 1,130,-1
 103 32 l 1,131,-1
 81 59 l 1,132,-1
 89 93 l 1,126,-1
64 135 m 1,133,-1
 95 150 l 1,134,-1
 126 135 l 1,135,-1
 134 101 l 1,136,-1
 112 74 l 1,137,-1
 78 74 l 1,138,-1
 56 101 l 1,139,-1
 64 135 l 1,133,-1
53 182 m 1,140,-1
 84 198 l 1,141,-1
 115 182 l 1,142,-1
 123 149 l 1,143,-1
 101 121 l 1,144,-1
 67 121 l 1,145,-1
 45 149 l 1,146,-1
 53 182 l 1,140,-1
52 231 m 1,147,-1
 83 246 l 1,148,-1
 115 231 l 1,149,-1
 122 197 l 1,150,-1
 101 170 l 1,151,-1
 66 170 l 1,152,-1
 44 197 l 1,153,-1
 52 231 l 1,147,-1
62 280 m 1,154,-1
 93 295 l 1,155,-1
 125 280 l 1,156,-1
 132 246 l 1,157,-1
 111 219 l 1,158,-1
 76 219 l 1,159,-1
 54 246 l 1,160,-1
 62 280 l 1,154,-1
86 323 m 1,161,-1
 117 338 l 1,162,-1
 148 323 l 1,163,-1
 156 289 l 1,164,-1
 134 262 l 1,165,-1
 100 262 l 1,166,-1
 78 289 l 1,167,-1
 86 323 l 1,161,-1
119 357 m 1,168,-1
 150 372 l 1,169,-1
 182 357 l 1,170,-1
 189 323 l 1,171,-1
 168 296 l 1,172,-1
 133 296 l 1,173,-1
 111 323 l 1,174,-1
 119 357 l 1,168,-1
276 374 m 1,175,-1
 308 390 l 1,176,-1
 339 374 l 1,177,-1
 346 341 l 1,178,-1
 325 313 l 1,179,-1
 290 313 l 1,180,-1
 269 341 l 1,181,-1
 276 374 l 1,175,-1
EndSplineSet
EndChar

StartChar: seven
Encoding: 55 55 18
Width: 502
Flags: W
LayerCount: 2
Fore
SplineSet
68 494 m 1,0,-1
 100 510 l 1,1,-1
 131 494 l 1,2,-1
 138 461 l 1,3,-1
 117 433 l 1,4,-1
 82 433 l 1,5,-1
 61 461 l 1,6,-1
 68 494 l 1,0,-1
87 44 m 5,7,-1
 119 60 l 5,8,-1
 150 44 l 5,9,-1
 157 11 l 5,10,-1
 136 -16 l 5,11,-1
 101 -16 l 5,12,-1
 80 11 l 5,13,-1
 87 44 l 5,7,-1
92 81 m 5,14,-1
 123 96 l 5,15,-1
 154 81 l 5,16,-1
 162 47 l 5,17,-1
 140 20 l 5,18,-1
 106 20 l 5,19,-1
 84 47 l 5,20,-1
 92 81 l 5,14,-1
123 120 m 5,21,-1
 155 135 l 5,22,-1
 186 120 l 5,23,-1
 194 86 l 5,24,-1
 172 59 l 5,25,-1
 137 59 l 5,26,-1
 116 86 l 5,27,-1
 123 120 l 5,21,-1
155 159 m 5,28,-1
 186 174 l 5,29,-1
 217 159 l 5,30,-1
 225 125 l 5,31,-1
 204 98 l 5,32,-1
 169 98 l 5,33,-1
 147 125 l 5,34,-1
 155 159 l 5,28,-1
187 198 m 5,35,-1
 218 213 l 5,36,-1
 249 198 l 5,37,-1
 257 164 l 5,38,-1
 235 137 l 5,39,-1
 200 137 l 5,40,-1
 179 164 l 5,41,-1
 187 198 l 5,35,-1
218 237 m 5,42,-1
 249 252 l 5,43,-1
 281 237 l 5,44,-1
 288 203 l 5,45,-1
 267 176 l 5,46,-1
 232 176 l 5,47,-1
 210 203 l 5,48,-1
 218 237 l 5,42,-1
250 275 m 5,49,-1
 281 290 l 5,50,-1
 312 275 l 5,51,-1
 320 242 l 5,52,-1
 298 214 l 5,53,-1
 264 214 l 5,54,-1
 242 242 l 5,55,-1
 250 275 l 5,49,-1
281 314 m 5,56,-1
 313 329 l 5,57,-1
 344 314 l 5,58,-1
 352 280 l 5,59,-1
 330 253 l 5,60,-1
 295 253 l 5,61,-1
 274 280 l 5,62,-1
 281 314 l 5,56,-1
313 353 m 5,63,-1
 344 368 l 5,64,-1
 375 353 l 5,65,-1
 383 319 l 5,66,-1
 362 292 l 5,67,-1
 327 292 l 5,68,-1
 305 319 l 5,69,-1
 313 353 l 5,63,-1
345 392 m 5,70,-1
 376 407 l 5,71,-1
 407 392 l 5,72,-1
 415 358 l 5,73,-1
 393 331 l 5,74,-1
 358 331 l 5,75,-1
 337 358 l 5,76,-1
 345 392 l 5,70,-1
376 431 m 5,77,-1
 407 446 l 5,78,-1
 439 431 l 5,79,-1
 446 397 l 5,80,-1
 425 370 l 5,81,-1
 390 370 l 5,82,-1
 368 397 l 5,83,-1
 376 431 l 5,77,-1
391 471 m 5,84,-1
 422 486 l 5,85,-1
 453 471 l 5,86,-1
 461 437 l 5,87,-1
 439 410 l 5,88,-1
 405 410 l 5,89,-1
 383 437 l 5,90,-1
 391 471 l 5,84,-1
117 494 m 1,91,-1
 149 510 l 1,92,-1
 180 494 l 1,93,-1
 187 461 l 1,94,-1
 166 433 l 1,95,-1
 131 433 l 1,96,-1
 110 461 l 1,97,-1
 117 494 l 1,91,-1
167 494 m 1,98,-1
 199 510 l 1,99,-1
 230 494 l 1,100,-1
 237 461 l 1,101,-1
 216 433 l 1,102,-1
 181 433 l 1,103,-1
 160 461 l 1,104,-1
 167 494 l 1,98,-1
217 494 m 1,105,-1
 249 510 l 1,106,-1
 280 494 l 1,107,-1
 287 461 l 1,108,-1
 266 433 l 1,109,-1
 231 433 l 1,110,-1
 210 461 l 1,111,-1
 217 494 l 1,105,-1
267 494 m 1,112,-1
 299 510 l 1,113,-1
 330 494 l 1,114,-1
 337 461 l 1,115,-1
 316 433 l 1,116,-1
 281 433 l 1,117,-1
 260 461 l 1,118,-1
 267 494 l 1,112,-1
317 494 m 1,119,-1
 349 510 l 1,120,-1
 380 494 l 1,121,-1
 387 461 l 1,122,-1
 366 433 l 1,123,-1
 331 433 l 1,124,-1
 310 461 l 1,125,-1
 317 494 l 1,119,-1
367 494 m 1,126,-1
 399 510 l 1,127,-1
 430 494 l 1,128,-1
 437 461 l 1,129,-1
 416 433 l 1,130,-1
 381 433 l 1,131,-1
 360 461 l 1,132,-1
 367 494 l 1,126,-1
417 494 m 5,133,-1
 449 510 l 5,134,-1
 480 494 l 5,135,-1
 487 461 l 5,136,-1
 466 433 l 5,137,-1
 431 433 l 5,138,-1
 410 461 l 5,139,-1
 417 494 l 5,133,-1
EndSplineSet
EndChar

StartChar: eight
Encoding: 56 56 19
Width: 522
Flags: W
LayerCount: 2
Fore
SplineSet
213 334 m 1,0,-1
 244 350 l 1,1,-1
 276 334 l 1,2,-1
 283 301 l 1,3,-1
 262 273 l 1,4,-1
 227 273 l 1,5,-1
 205 301 l 1,6,-1
 213 334 l 1,0,-1
255 333 m 1,7,-1
 286 348 l 1,8,-1
 318 333 l 1,9,-1
 325 299 l 1,10,-1
 304 272 l 1,11,-1
 269 272 l 1,12,-1
 247 299 l 1,13,-1
 255 333 l 1,7,-1
341 300 m 1,14,-1
 372 315 l 1,15,-1
 404 300 l 1,16,-1
 411 266 l 1,17,-1
 390 239 l 1,18,-1
 355 239 l 1,19,-1
 333 266 l 1,20,-1
 341 300 l 1,14,-1
377 311 m 1,21,-1
 409 326 l 1,22,-1
 440 311 l 1,23,-1
 448 277 l 1,24,-1
 426 250 l 1,25,-1
 391 250 l 1,26,-1
 370 277 l 1,27,-1
 377 311 l 1,21,-1
389 204 m 1,28,-1
 420 219 l 1,29,-1
 452 204 l 1,30,-1
 459 170 l 1,31,-1
 438 143 l 1,32,-1
 403 143 l 1,33,-1
 381 170 l 1,34,-1
 389 204 l 1,28,-1
383 155 m 1,35,-1
 414 170 l 1,36,-1
 446 155 l 1,37,-1
 453 121 l 1,38,-1
 432 94 l 1,39,-1
 397 94 l 1,40,-1
 375 121 l 1,41,-1
 383 155 l 1,35,-1
365 111 m 1,42,-1
 396 126 l 1,43,-1
 427 111 l 1,44,-1
 435 77 l 1,45,-1
 413 50 l 1,46,-1
 379 50 l 1,47,-1
 357 77 l 1,48,-1
 365 111 l 1,42,-1
333 73 m 1,49,-1
 364 88 l 1,50,-1
 396 73 l 1,51,-1
 403 39 l 1,52,-1
 382 12 l 1,53,-1
 347 12 l 1,54,-1
 325 39 l 1,55,-1
 333 73 l 1,49,-1
291 49 m 1,56,-1
 322 64 l 1,57,-1
 353 49 l 1,58,-1
 361 15 l 1,59,-1
 339 -11 l 1,60,-1
 305 -11 l 1,61,-1
 283 15 l 1,62,-1
 291 49 l 1,56,-1
240 40 m 1,63,-1
 271 55 l 1,64,-1
 302 40 l 1,65,-1
 310 6 l 1,66,-1
 288 -20 l 1,67,-1
 254 -20 l 1,68,-1
 232 6 l 1,69,-1
 240 40 l 1,63,-1
193 43 m 1,70,-1
 225 58 l 1,71,-1
 256 43 l 1,72,-1
 264 9 l 1,73,-1
 242 -17 l 1,74,-1
 207 -17 l 1,75,-1
 186 9 l 1,76,-1
 193 43 l 1,70,-1
148 60 m 1,77,-1
 180 75 l 1,78,-1
 211 60 l 1,79,-1
 219 26 l 1,80,-1
 197 0 l 1,81,-1
 162 0 l 1,82,-1
 141 26 l 1,83,-1
 148 60 l 1,77,-1
112 93 m 1,84,-1
 143 108 l 1,85,-1
 174 93 l 1,86,-1
 182 59 l 1,87,-1
 160 32 l 1,88,-1
 126 32 l 1,89,-1
 104 59 l 1,90,-1
 112 93 l 1,84,-1
87 135 m 1,91,-1
 118 150 l 1,92,-1
 149 135 l 1,93,-1
 157 101 l 1,94,-1
 135 74 l 1,95,-1
 101 74 l 1,96,-1
 79 101 l 1,97,-1
 87 135 l 1,91,-1
76 182 m 1,98,-1
 107 198 l 1,99,-1
 138 182 l 1,100,-1
 146 149 l 1,101,-1
 124 121 l 1,102,-1
 90 121 l 1,103,-1
 68 149 l 1,104,-1
 76 182 l 1,98,-1
75 231 m 1,105,-1
 106 246 l 1,106,-1
 138 231 l 1,107,-1
 145 197 l 1,108,-1
 124 170 l 1,109,-1
 89 170 l 1,110,-1
 67 197 l 1,111,-1
 75 231 l 1,105,-1
90 280 m 1,112,-1
 121 295 l 1,113,-1
 153 280 l 1,114,-1
 160 246 l 1,115,-1
 139 219 l 1,116,-1
 104 219 l 1,117,-1
 82 246 l 1,118,-1
 90 280 l 1,112,-1
109 323 m 1,119,-1
 140 338 l 1,120,-1
 171 323 l 1,121,-1
 179 289 l 1,122,-1
 157 262 l 1,123,-1
 123 262 l 1,124,-1
 101 289 l 1,125,-1
 109 323 l 1,119,-1
159 334 m 1,126,-1
 191 350 l 1,127,-1
 222 334 l 1,128,-1
 229 301 l 1,129,-1
 208 273 l 1,130,-1
 173 273 l 1,131,-1
 152 301 l 1,132,-1
 159 334 l 1,126,-1
299 324 m 1,133,-1
 331 340 l 1,134,-1
 362 324 l 1,135,-1
 369 291 l 1,136,-1
 348 263 l 1,137,-1
 313 263 l 1,138,-1
 292 291 l 1,139,-1
 299 324 l 1,133,-1
213 493 m 1,140,-1
 244 509 l 1,141,-1
 276 493 l 1,142,-1
 283 460 l 1,143,-1
 262 432 l 1,144,-1
 227 432 l 1,145,-1
 205 460 l 1,146,-1
 213 493 l 1,140,-1
255 492 m 1,147,-1
 286 507 l 1,148,-1
 318 492 l 1,149,-1
 325 458 l 1,150,-1
 304 431 l 1,151,-1
 269 431 l 1,152,-1
 247 458 l 1,153,-1
 255 492 l 1,147,-1
341 447 m 1,154,-1
 372 462 l 1,155,-1
 404 447 l 1,156,-1
 411 413 l 1,157,-1
 390 386 l 1,158,-1
 355 386 l 1,159,-1
 333 413 l 1,160,-1
 341 447 l 1,154,-1
370 408 m 1,161,-1
 402 423 l 1,162,-1
 433 408 l 1,163,-1
 441 374 l 1,164,-1
 419 347 l 1,165,-1
 384 347 l 1,166,-1
 363 374 l 1,167,-1
 370 408 l 1,161,-1
386 361 m 1,168,-1
 417 376 l 1,169,-1
 448 361 l 1,170,-1
 456 327 l 1,171,-1
 434 300 l 1,172,-1
 400 300 l 1,173,-1
 378 327 l 1,174,-1
 386 361 l 1,168,-1
376 256 m 1,175,-1
 407 271 l 1,176,-1
 439 256 l 1,177,-1
 446 222 l 1,178,-1
 425 195 l 1,179,-1
 390 195 l 1,180,-1
 368 222 l 1,181,-1
 376 256 l 1,175,-1
333 231 m 1,182,-1
 364 246 l 1,183,-1
 396 231 l 1,184,-1
 403 197 l 1,185,-1
 382 170 l 1,186,-1
 347 170 l 1,187,-1
 325 197 l 1,188,-1
 333 231 l 1,182,-1
291 207 m 1,189,-1
 322 222 l 1,190,-1
 353 207 l 1,191,-1
 361 173 l 1,192,-1
 339 147 l 1,193,-1
 305 147 l 1,194,-1
 283 173 l 1,195,-1
 291 207 l 1,189,-1
240 198 m 1,196,-1
 271 213 l 1,197,-1
 302 198 l 1,198,-1
 310 164 l 1,199,-1
 288 138 l 1,200,-1
 254 138 l 1,201,-1
 232 164 l 1,202,-1
 240 198 l 1,196,-1
193 201 m 1,203,-1
 225 216 l 1,204,-1
 256 201 l 1,205,-1
 264 167 l 1,206,-1
 242 141 l 1,207,-1
 207 141 l 1,208,-1
 186 167 l 1,209,-1
 193 201 l 1,203,-1
148 218 m 1,210,-1
 180 233 l 1,211,-1
 211 218 l 1,212,-1
 219 184 l 1,213,-1
 197 158 l 1,214,-1
 162 158 l 1,215,-1
 141 184 l 1,216,-1
 148 218 l 1,210,-1
112 251 m 1,217,-1
 143 266 l 1,218,-1
 174 251 l 1,219,-1
 182 217 l 1,220,-1
 160 190 l 1,221,-1
 126 190 l 1,222,-1
 104 217 l 1,223,-1
 112 251 l 1,217,-1
75 340 m 1,224,-1
 106 355 l 1,225,-1
 138 340 l 1,226,-1
 145 306 l 1,227,-1
 124 279 l 1,228,-1
 89 279 l 1,229,-1
 67 306 l 1,230,-1
 75 340 l 1,224,-1
85 389 m 1,231,-1
 116 404 l 1,232,-1
 148 389 l 1,233,-1
 155 355 l 1,234,-1
 134 328 l 1,235,-1
 99 328 l 1,236,-1
 77 355 l 1,237,-1
 85 389 l 1,231,-1
109 432 m 1,238,-1
 140 447 l 1,239,-1
 171 432 l 1,240,-1
 179 398 l 1,241,-1
 157 371 l 1,242,-1
 123 371 l 1,243,-1
 101 398 l 1,244,-1
 109 432 l 1,238,-1
142 466 m 1,245,-1
 173 481 l 1,246,-1
 205 466 l 1,247,-1
 212 432 l 1,248,-1
 191 405 l 1,249,-1
 156 405 l 1,250,-1
 134 432 l 1,251,-1
 142 466 l 1,245,-1
159 493 m 1,252,-1
 191 509 l 1,253,-1
 222 493 l 1,254,-1
 229 460 l 1,255,-1
 208 432 l 1,256,-1
 173 432 l 1,257,-1
 152 460 l 1,258,-1
 159 493 l 1,252,-1
299 483 m 1,259,-1
 331 499 l 1,260,-1
 362 483 l 1,261,-1
 369 450 l 1,262,-1
 348 422 l 1,263,-1
 313 422 l 1,264,-1
 292 450 l 1,265,-1
 299 483 l 1,259,-1
EndSplineSet
EndChar

StartChar: nine
Encoding: 57 57 20
Width: 498
Flags: W
LayerCount: 2
Fore
SplineSet
158 496 m 5,0,-1
 189 512 l 5,1,-1
 221 496 l 5,2,-1
 228 463 l 5,3,-1
 207 435 l 5,4,-1
 172 435 l 5,5,-1
 150 463 l 5,6,-1
 158 496 l 5,0,-1
218 32 m 5,7,-1
 249 47 l 5,8,-1
 280 32 l 5,9,-1
 288 -2 l 5,10,-1
 267 -29 l 5,11,-1
 232 -29 l 5,12,-1
 210 -2 l 5,13,-1
 218 32 l 5,7,-1
241 71 m 5,14,-1
 272 86 l 5,15,-1
 303 71 l 5,16,-1
 311 37 l 5,17,-1
 289 10 l 5,18,-1
 254 10 l 5,19,-1
 233 37 l 5,20,-1
 241 71 l 5,14,-1
270 110 m 5,21,-1
 301 125 l 5,22,-1
 333 110 l 5,23,-1
 340 76 l 5,24,-1
 319 49 l 5,25,-1
 284 49 l 5,26,-1
 262 76 l 5,27,-1
 270 110 l 5,21,-1
296 150 m 5,28,-1
 327 165 l 5,29,-1
 358 150 l 5,30,-1
 366 116 l 5,31,-1
 344 89 l 5,32,-1
 310 89 l 5,33,-1
 288 116 l 5,34,-1
 296 150 l 5,28,-1
322 173 m 5,35,-1
 354 189 l 5,36,-1
 385 173 l 5,37,-1
 392 140 l 5,38,-1
 371 112 l 5,39,-1
 336 112 l 5,40,-1
 315 140 l 5,41,-1
 322 173 l 5,35,-1
188 489 m 5,42,-1
 219 505 l 5,43,-1
 251 489 l 5,44,-1
 258 456 l 5,45,-1
 237 428 l 5,46,-1
 202 428 l 5,47,-1
 180 456 l 5,48,-1
 188 489 l 5,42,-1
230 488 m 5,49,-1
 261 503 l 5,50,-1
 293 488 l 5,51,-1
 300 454 l 5,52,-1
 279 427 l 5,53,-1
 244 427 l 5,54,-1
 222 454 l 5,55,-1
 230 488 l 5,49,-1
316 443 m 5,56,-1
 347 458 l 5,57,-1
 379 443 l 5,58,-1
 386 409 l 5,59,-1
 365 382 l 5,60,-1
 330 382 l 5,61,-1
 308 409 l 5,62,-1
 316 443 l 5,56,-1
345 404 m 5,63,-1
 377 419 l 5,64,-1
 408 404 l 5,65,-1
 416 370 l 5,66,-1
 394 343 l 5,67,-1
 359 343 l 5,68,-1
 338 370 l 5,69,-1
 345 404 l 5,63,-1
361 357 m 5,70,-1
 392 372 l 5,71,-1
 423 357 l 5,72,-1
 431 323 l 5,73,-1
 409 296 l 5,74,-1
 375 296 l 5,75,-1
 353 323 l 5,76,-1
 361 357 l 5,70,-1
364 309 m 5,77,-1
 395 324 l 5,78,-1
 427 309 l 5,79,-1
 434 275 l 5,80,-1
 413 248 l 5,81,-1
 378 248 l 5,82,-1
 356 275 l 5,83,-1
 364 309 l 5,77,-1
358 260 m 5,84,-1
 389 275 l 5,85,-1
 421 260 l 5,86,-1
 428 226 l 5,87,-1
 407 199 l 5,88,-1
 372 199 l 5,89,-1
 350 226 l 5,90,-1
 358 260 l 5,84,-1
340 216 m 5,91,-1
 371 231 l 5,92,-1
 402 216 l 5,93,-1
 410 182 l 5,94,-1
 388 155 l 5,95,-1
 354 155 l 5,96,-1
 332 182 l 5,97,-1
 340 216 l 5,91,-1
266 154 m 5,98,-1
 297 169 l 5,99,-1
 328 154 l 5,100,-1
 336 120 l 5,101,-1
 314 94 l 5,102,-1
 280 94 l 5,103,-1
 258 120 l 5,104,-1
 266 154 l 5,98,-1
215 145 m 5,105,-1
 246 160 l 5,106,-1
 277 145 l 5,107,-1
 285 111 l 5,108,-1
 263 85 l 5,109,-1
 229 85 l 5,110,-1
 207 111 l 5,111,-1
 215 145 l 5,105,-1
168 148 m 5,112,-1
 200 163 l 5,113,-1
 231 148 l 5,114,-1
 239 114 l 5,115,-1
 217 88 l 5,116,-1
 182 88 l 5,117,-1
 161 114 l 5,118,-1
 168 148 l 5,112,-1
123 165 m 5,119,-1
 155 180 l 5,120,-1
 186 165 l 5,121,-1
 194 131 l 5,122,-1
 172 105 l 5,123,-1
 137 105 l 5,124,-1
 116 131 l 5,125,-1
 123 165 l 5,119,-1
87 198 m 5,126,-1
 118 213 l 5,127,-1
 149 198 l 5,128,-1
 157 164 l 5,129,-1
 135 137 l 5,130,-1
 101 137 l 5,131,-1
 79 164 l 5,132,-1
 87 198 l 5,126,-1
62 240 m 5,133,-1
 93 255 l 5,134,-1
 124 240 l 5,135,-1
 132 206 l 5,136,-1
 110 179 l 5,137,-1
 76 179 l 5,138,-1
 54 206 l 5,139,-1
 62 240 l 5,133,-1
51 287 m 5,140,-1
 82 303 l 5,141,-1
 113 287 l 5,142,-1
 121 254 l 5,143,-1
 99 226 l 5,144,-1
 65 226 l 5,145,-1
 43 254 l 5,146,-1
 51 287 l 5,140,-1
50 336 m 5,147,-1
 81 351 l 5,148,-1
 113 336 l 5,149,-1
 120 302 l 5,150,-1
 99 275 l 5,151,-1
 64 275 l 5,152,-1
 42 302 l 5,153,-1
 50 336 l 5,147,-1
60 385 m 5,154,-1
 91 400 l 5,155,-1
 123 385 l 5,156,-1
 130 351 l 5,157,-1
 109 324 l 5,158,-1
 74 324 l 5,159,-1
 52 351 l 5,160,-1
 60 385 l 5,154,-1
84 428 m 5,161,-1
 115 443 l 5,162,-1
 146 428 l 5,163,-1
 154 394 l 5,164,-1
 132 367 l 5,165,-1
 98 367 l 5,166,-1
 76 394 l 5,167,-1
 84 428 l 5,161,-1
117 462 m 5,168,-1
 148 477 l 5,169,-1
 180 462 l 5,170,-1
 187 428 l 5,171,-1
 166 401 l 5,172,-1
 131 401 l 5,173,-1
 109 428 l 5,174,-1
 117 462 l 5,168,-1
274 479 m 5,175,-1
 306 495 l 5,176,-1
 337 479 l 5,177,-1
 344 446 l 5,178,-1
 323 418 l 5,179,-1
 288 418 l 5,180,-1
 267 446 l 5,181,-1
 274 479 l 5,175,-1
EndSplineSet
EndChar

StartChar: colon
Encoding: 58 58 21
Width: 254
Flags: W
LayerCount: 2
Fore
SplineSet
98 306 m 1,0,-1
 130 322 l 1,1,-1
 161 306 l 1,2,-1
 168 273 l 1,3,-1
 147 245 l 1,4,-1
 112 245 l 1,5,-1
 91 273 l 1,6,-1
 98 306 l 1,0,-1
64 323 m 1,7,-1
 95 338 l 1,8,-1
 127 323 l 1,9,-1
 134 289 l 1,10,-1
 113 262 l 1,11,-1
 78 262 l 1,12,-1
 56 289 l 1,13,-1
 64 323 l 1,7,-1
86 351 m 1,14,-1
 117 367 l 1,15,-1
 148 351 l 1,16,-1
 156 318 l 1,17,-1
 134 290 l 1,18,-1
 100 290 l 1,19,-1
 78 318 l 1,20,-1
 86 351 l 1,14,-1
98 306 m 1,21,-1
 130 322 l 1,22,-1
 161 306 l 1,23,-1
 168 273 l 1,24,-1
 147 245 l 1,25,-1
 112 245 l 1,26,-1
 91 273 l 1,27,-1
 98 306 l 1,21,-1
98 58 m 1,28,-1
 130 74 l 1,29,-1
 161 58 l 1,30,-1
 168 25 l 1,31,-1
 147 -3 l 1,32,-1
 112 -3 l 1,33,-1
 91 25 l 1,34,-1
 98 58 l 1,28,-1
64 75 m 1,35,-1
 95 90 l 1,36,-1
 127 75 l 1,37,-1
 134 41 l 1,38,-1
 113 14 l 1,39,-1
 78 14 l 1,40,-1
 56 41 l 1,41,-1
 64 75 l 1,35,-1
86 103 m 1,42,-1
 117 119 l 1,43,-1
 148 103 l 1,44,-1
 156 70 l 1,45,-1
 134 42 l 1,46,-1
 100 42 l 1,47,-1
 78 70 l 1,48,-1
 86 103 l 1,42,-1
98 58 m 1,49,-1
 130 74 l 1,50,-1
 161 58 l 1,51,-1
 168 25 l 1,52,-1
 147 -3 l 1,53,-1
 112 -3 l 1,54,-1
 91 25 l 1,55,-1
 98 58 l 1,49,-1
EndSplineSet
EndChar

StartChar: semicolon
Encoding: 59 59 22
Width: 256
Flags: W
LayerCount: 2
Fore
SplineSet
99 72 m 1,0,-1
 131 87 l 1,1,-1
 162 72 l 1,2,-1
 170 38 l 1,3,-1
 148 11 l 1,4,-1
 113 11 l 1,5,-1
 92 38 l 1,6,-1
 99 72 l 1,0,-1
70 32 m 1,7,-1
 101 47 l 1,8,-1
 132 32 l 1,9,-1
 140 -2 l 1,10,-1
 118 -29 l 1,11,-1
 83 -29 l 1,12,-1
 62 -2 l 1,13,-1
 70 32 l 1,7,-1
40 -9 m 1,14,-1
 71 7 l 1,15,-1
 102 -9 l 1,16,-1
 110 -42 l 1,17,-1
 88 -68 l 1,18,-1
 54 -68 l 1,19,-1
 32 -42 l 1,20,-1
 40 -9 l 1,14,-1
92 306 m 1,21,-1
 124 322 l 1,22,-1
 155 306 l 1,23,-1
 162 273 l 1,24,-1
 141 245 l 1,25,-1
 106 245 l 1,26,-1
 85 273 l 1,27,-1
 92 306 l 1,21,-1
58 323 m 1,28,-1
 89 338 l 1,29,-1
 121 323 l 1,30,-1
 128 289 l 1,31,-1
 107 262 l 1,32,-1
 72 262 l 1,33,-1
 50 289 l 1,34,-1
 58 323 l 1,28,-1
80 351 m 1,35,-1
 111 367 l 1,36,-1
 142 351 l 1,37,-1
 150 318 l 1,38,-1
 128 290 l 1,39,-1
 94 290 l 1,40,-1
 72 318 l 1,41,-1
 80 351 l 1,35,-1
92 306 m 1,42,-1
 124 322 l 1,43,-1
 155 306 l 1,44,-1
 162 273 l 1,45,-1
 141 245 l 1,46,-1
 106 245 l 1,47,-1
 85 273 l 1,48,-1
 92 306 l 1,42,-1
EndSplineSet
EndChar

StartChar: A
Encoding: 65 65 23
Width: 512
Flags: W
LayerCount: 2
Fore
SplineSet
350 57 m 5,0,-1
 382 72 l 5,1,-1
 413 57 l 5,2,-1
 420 23 l 5,3,-1
 399 -3 l 5,4,-1
 364 -3 l 5,5,-1
 343 23 l 5,6,-1
 350 57 l 5,0,-1
350 107 m 5,7,-1
 382 122 l 5,8,-1
 413 107 l 5,9,-1
 420 73 l 5,10,-1
 399 46 l 5,11,-1
 364 46 l 5,12,-1
 343 73 l 5,13,-1
 350 107 l 5,7,-1
350 157 m 5,14,-1
 382 172 l 5,15,-1
 413 157 l 5,16,-1
 420 123 l 5,17,-1
 399 96 l 5,18,-1
 364 96 l 5,19,-1
 343 123 l 5,20,-1
 350 157 l 5,14,-1
350 207 m 5,21,-1
 382 222 l 5,22,-1
 413 207 l 5,23,-1
 420 173 l 5,24,-1
 399 146 l 5,25,-1
 364 146 l 5,26,-1
 343 173 l 5,27,-1
 350 207 l 5,21,-1
350 257 m 5,28,-1
 382 272 l 5,29,-1
 413 257 l 5,30,-1
 420 223 l 5,31,-1
 399 196 l 5,32,-1
 364 196 l 5,33,-1
 343 223 l 5,34,-1
 350 257 l 5,28,-1
350 307 m 5,35,-1
 382 322 l 5,36,-1
 413 307 l 5,37,-1
 420 273 l 5,38,-1
 399 246 l 5,39,-1
 364 246 l 5,40,-1
 343 273 l 5,41,-1
 350 307 l 5,35,-1
350 357 m 5,42,-1
 382 372 l 5,43,-1
 413 357 l 5,44,-1
 420 323 l 5,45,-1
 399 296 l 5,46,-1
 364 296 l 5,47,-1
 343 323 l 5,48,-1
 350 357 l 5,42,-1
350 407 m 5,49,-1
 382 422 l 5,50,-1
 413 407 l 5,51,-1
 420 373 l 5,52,-1
 399 346 l 5,53,-1
 364 346 l 5,54,-1
 343 373 l 5,55,-1
 350 407 l 5,49,-1
350 457 m 5,56,-1
 382 472 l 5,57,-1
 413 457 l 5,58,-1
 420 423 l 5,59,-1
 399 396 l 5,60,-1
 364 396 l 5,61,-1
 343 423 l 5,62,-1
 350 457 l 5,56,-1
16 44 m 5,63,-1
 48 60 l 5,64,-1
 79 44 l 5,65,-1
 86 11 l 5,66,-1
 65 -16 l 5,67,-1
 30 -16 l 5,68,-1
 9 11 l 5,69,-1
 16 44 l 5,63,-1
21 81 m 5,70,-1
 52 96 l 5,71,-1
 83 81 l 5,72,-1
 91 47 l 5,73,-1
 69 20 l 5,74,-1
 35 20 l 5,75,-1
 13 47 l 5,76,-1
 21 81 l 5,70,-1
52 120 m 5,77,-1
 84 135 l 5,78,-1
 115 120 l 5,79,-1
 123 86 l 5,80,-1
 101 59 l 5,81,-1
 66 59 l 5,82,-1
 45 86 l 5,83,-1
 52 120 l 5,77,-1
84 159 m 5,84,-1
 115 174 l 5,85,-1
 146 159 l 5,86,-1
 154 125 l 5,87,-1
 133 98 l 5,88,-1
 98 98 l 5,89,-1
 76 125 l 5,90,-1
 84 159 l 5,84,-1
116 198 m 5,91,-1
 147 213 l 5,92,-1
 178 198 l 5,93,-1
 186 164 l 5,94,-1
 164 137 l 5,95,-1
 129 137 l 5,96,-1
 108 164 l 5,97,-1
 116 198 l 5,91,-1
147 237 m 5,98,-1
 178 252 l 5,99,-1
 210 237 l 5,100,-1
 217 203 l 5,101,-1
 196 176 l 5,102,-1
 161 176 l 5,103,-1
 139 203 l 5,104,-1
 147 237 l 5,98,-1
179 275 m 5,105,-1
 210 290 l 5,106,-1
 241 275 l 5,107,-1
 249 242 l 5,108,-1
 227 214 l 5,109,-1
 193 214 l 5,110,-1
 171 242 l 5,111,-1
 179 275 l 5,105,-1
210 314 m 5,112,-1
 242 329 l 5,113,-1
 273 314 l 5,114,-1
 281 280 l 5,115,-1
 259 253 l 5,116,-1
 224 253 l 5,117,-1
 203 280 l 5,118,-1
 210 314 l 5,112,-1
242 353 m 5,119,-1
 273 368 l 5,120,-1
 304 353 l 5,121,-1
 312 319 l 5,122,-1
 291 292 l 5,123,-1
 256 292 l 5,124,-1
 234 319 l 5,125,-1
 242 353 l 5,119,-1
274 392 m 5,126,-1
 305 407 l 5,127,-1
 336 392 l 5,128,-1
 344 358 l 5,129,-1
 322 331 l 5,130,-1
 287 331 l 5,131,-1
 266 358 l 5,132,-1
 274 392 l 5,126,-1
305 431 m 5,133,-1
 336 446 l 5,134,-1
 368 431 l 5,135,-1
 375 397 l 5,136,-1
 354 370 l 5,137,-1
 319 370 l 5,138,-1
 297 397 l 5,139,-1
 305 431 l 5,133,-1
320 471 m 5,140,-1
 351 486 l 5,141,-1
 382 471 l 5,142,-1
 390 437 l 5,143,-1
 368 410 l 5,144,-1
 334 410 l 5,145,-1
 312 437 l 5,146,-1
 320 471 l 5,140,-1
346 494 m 5,147,-1
 378 510 l 5,148,-1
 409 494 l 5,149,-1
 416 461 l 5,150,-1
 395 433 l 5,151,-1
 360 433 l 5,152,-1
 339 461 l 5,153,-1
 346 494 l 5,147,-1
338 178 m 5,154,-1
 369 193 l 5,155,-1
 400 178 l 5,156,-1
 408 144 l 5,157,-1
 387 117 l 5,158,-1
 352 117 l 5,159,-1
 330 144 l 5,160,-1
 338 178 l 5,154,-1
291 179 m 5,161,-1
 323 195 l 5,162,-1
 354 179 l 5,163,-1
 361 146 l 5,164,-1
 340 118 l 5,165,-1
 305 118 l 5,166,-1
 284 146 l 5,167,-1
 291 179 l 5,161,-1
241 179 m 5,168,-1
 273 195 l 5,169,-1
 304 179 l 5,170,-1
 311 146 l 5,171,-1
 290 118 l 5,172,-1
 255 118 l 5,173,-1
 234 146 l 5,174,-1
 241 179 l 5,168,-1
191 179 m 5,175,-1
 223 195 l 5,176,-1
 254 179 l 5,177,-1
 261 146 l 5,178,-1
 240 118 l 5,179,-1
 205 118 l 5,180,-1
 184 146 l 5,181,-1
 191 179 l 5,175,-1
141 179 m 5,182,-1
 173 195 l 5,183,-1
 204 179 l 5,184,-1
 211 146 l 5,185,-1
 190 118 l 5,186,-1
 155 118 l 5,187,-1
 134 146 l 5,188,-1
 141 179 l 5,182,-1
EndSplineSet
EndChar

StartChar: B
Encoding: 66 66 24
Width: 524
Flags: W
LayerCount: 2
Fore
SplineSet
82 254 m 5,0,-1
 114 269 l 5,1,-1
 145 254 l 5,2,-1
 153 220 l 5,3,-1
 131 193 l 5,4,-1
 96 193 l 5,5,-1
 75 220 l 5,6,-1
 82 254 l 5,0,-1
53 214 m 5,7,-1
 84 229 l 5,8,-1
 115 214 l 5,9,-1
 123 180 l 5,10,-1
 101 153 l 5,11,-1
 66 153 l 5,12,-1
 45 180 l 5,13,-1
 53 214 l 5,7,-1
23 173 m 5,14,-1
 54 189 l 5,15,-1
 85 173 l 5,16,-1
 93 140 l 5,17,-1
 71 114 l 5,18,-1
 37 114 l 5,19,-1
 15 140 l 5,20,-1
 23 173 l 5,14,-1
359 230 m 5,21,-1
 390 245 l 5,22,-1
 422 230 l 5,23,-1
 429 196 l 5,24,-1
 408 169 l 5,25,-1
 373 169 l 5,26,-1
 351 196 l 5,27,-1
 359 230 l 5,21,-1
386 193 m 5,28,-1
 417 208 l 5,29,-1
 449 193 l 5,30,-1
 456 159 l 5,31,-1
 435 132 l 5,32,-1
 400 132 l 5,33,-1
 378 159 l 5,34,-1
 386 193 l 5,28,-1
391 145 m 5,35,-1
 423 160 l 5,36,-1
 454 145 l 5,37,-1
 462 111 l 5,38,-1
 440 84 l 5,39,-1
 405 84 l 5,40,-1
 384 111 l 5,41,-1
 391 145 l 5,35,-1
373 99 m 5,42,-1
 404 114 l 5,43,-1
 435 99 l 5,44,-1
 443 65 l 5,45,-1
 421 38 l 5,46,-1
 387 38 l 5,47,-1
 365 65 l 5,48,-1
 373 99 l 5,42,-1
337 69 m 5,49,-1
 369 84 l 5,50,-1
 400 69 l 5,51,-1
 408 35 l 5,52,-1
 386 8 l 5,53,-1
 351 8 l 5,54,-1
 330 35 l 5,55,-1
 337 69 l 5,49,-1
292 50 m 5,56,-1
 323 66 l 5,57,-1
 354 50 l 5,58,-1
 362 17 l 5,59,-1
 340 -10 l 5,60,-1
 306 -10 l 5,61,-1
 284 17 l 5,62,-1
 292 50 l 5,56,-1
241 45 m 5,63,-1
 272 60 l 5,64,-1
 304 45 l 5,65,-1
 311 11 l 5,66,-1
 290 -15 l 5,67,-1
 255 -15 l 5,68,-1
 233 11 l 5,69,-1
 241 45 l 5,63,-1
195 44 m 5,70,-1
 226 60 l 5,71,-1
 257 44 l 5,72,-1
 265 11 l 5,73,-1
 243 -16 l 5,74,-1
 209 -16 l 5,75,-1
 187 11 l 5,76,-1
 195 44 l 5,70,-1
145 44 m 5,77,-1
 176 60 l 5,78,-1
 207 44 l 5,79,-1
 215 11 l 5,80,-1
 193 -16 l 5,81,-1
 159 -16 l 5,82,-1
 137 11 l 5,83,-1
 145 44 l 5,77,-1
95 44 m 5,84,-1
 126 60 l 5,85,-1
 157 44 l 5,86,-1
 165 11 l 5,87,-1
 143 -16 l 5,88,-1
 109 -16 l 5,89,-1
 87 11 l 5,90,-1
 95 44 l 5,84,-1
77 74 m 5,91,-1
 109 90 l 5,92,-1
 140 74 l 5,93,-1
 147 41 l 5,94,-1
 126 13 l 5,95,-1
 91 13 l 5,96,-1
 70 41 l 5,97,-1
 77 74 l 5,91,-1
77 124 m 5,98,-1
 109 140 l 5,99,-1
 140 124 l 5,100,-1
 147 91 l 5,101,-1
 126 63 l 5,102,-1
 91 63 l 5,103,-1
 70 91 l 5,104,-1
 77 124 l 5,98,-1
77 174 m 5,105,-1
 109 190 l 5,106,-1
 140 174 l 5,107,-1
 147 141 l 5,108,-1
 126 113 l 5,109,-1
 91 113 l 5,110,-1
 70 141 l 5,111,-1
 77 174 l 5,105,-1
77 224 m 5,112,-1
 109 240 l 5,113,-1
 140 224 l 5,114,-1
 147 191 l 5,115,-1
 126 163 l 5,116,-1
 91 163 l 5,117,-1
 70 191 l 5,118,-1
 77 224 l 5,112,-1
77 324 m 5,119,-1
 109 340 l 5,120,-1
 140 324 l 5,121,-1
 147 291 l 5,122,-1
 126 263 l 5,123,-1
 91 263 l 5,124,-1
 70 291 l 5,125,-1
 77 324 l 5,119,-1
77 374 m 5,126,-1
 109 390 l 5,127,-1
 140 374 l 5,128,-1
 147 341 l 5,129,-1
 126 313 l 5,130,-1
 91 313 l 5,131,-1
 70 341 l 5,132,-1
 77 374 l 5,126,-1
77 424 m 5,133,-1
 109 440 l 5,134,-1
 140 424 l 5,135,-1
 147 391 l 5,136,-1
 126 363 l 5,137,-1
 91 363 l 5,138,-1
 70 391 l 5,139,-1
 77 424 l 5,133,-1
77 474 m 5,140,-1
 109 490 l 5,141,-1
 140 474 l 5,142,-1
 147 441 l 5,143,-1
 126 413 l 5,144,-1
 91 413 l 5,145,-1
 70 441 l 5,146,-1
 77 474 l 5,140,-1
105 494 m 5,147,-1
 136 510 l 5,148,-1
 167 494 l 5,149,-1
 175 461 l 5,150,-1
 153 433 l 5,151,-1
 119 433 l 5,152,-1
 97 461 l 5,153,-1
 105 494 l 5,147,-1
155 494 m 5,154,-1
 186 510 l 5,155,-1
 217 494 l 5,156,-1
 225 461 l 5,157,-1
 203 433 l 5,158,-1
 169 433 l 5,159,-1
 147 461 l 5,160,-1
 155 494 l 5,154,-1
205 494 m 5,161,-1
 236 510 l 5,162,-1
 267 494 l 5,163,-1
 275 461 l 5,164,-1
 253 433 l 5,165,-1
 219 433 l 5,166,-1
 197 461 l 5,167,-1
 205 494 l 5,161,-1
253 494 m 5,168,-1
 285 509 l 5,169,-1
 316 494 l 5,170,-1
 324 460 l 5,171,-1
 302 433 l 5,172,-1
 267 433 l 5,173,-1
 246 460 l 5,174,-1
 253 494 l 5,168,-1
302 486 m 5,175,-1
 333 501 l 5,176,-1
 364 486 l 5,177,-1
 372 452 l 5,178,-1
 350 425 l 5,179,-1
 316 425 l 5,180,-1
 294 452 l 5,181,-1
 302 486 l 5,175,-1
344 463 m 5,182,-1
 375 478 l 5,183,-1
 407 463 l 5,184,-1
 414 429 l 5,185,-1
 393 402 l 5,186,-1
 358 402 l 5,187,-1
 336 429 l 5,188,-1
 344 463 l 5,182,-1
371 422 m 5,189,-1
 402 437 l 5,190,-1
 433 422 l 5,191,-1
 441 388 l 5,192,-1
 420 361 l 5,193,-1
 385 361 l 5,194,-1
 363 388 l 5,195,-1
 371 422 l 5,189,-1
377 374 m 5,196,-1
 408 389 l 5,197,-1
 440 374 l 5,198,-1
 447 340 l 5,199,-1
 426 313 l 5,200,-1
 391 313 l 5,201,-1
 369 340 l 5,202,-1
 377 374 l 5,196,-1
364 327 m 5,203,-1
 395 342 l 5,204,-1
 426 327 l 5,205,-1
 434 293 l 5,206,-1
 412 266 l 5,207,-1
 377 266 l 5,208,-1
 356 293 l 5,209,-1
 364 327 l 5,203,-1
327 298 m 5,210,-1
 358 313 l 5,211,-1
 389 298 l 5,212,-1
 397 264 l 5,213,-1
 375 237 l 5,214,-1
 341 237 l 5,215,-1
 319 264 l 5,216,-1
 327 298 l 5,210,-1
297 274 m 5,217,-1
 329 290 l 5,218,-1
 360 274 l 5,219,-1
 367 241 l 5,220,-1
 346 213 l 5,221,-1
 311 213 l 5,222,-1
 290 241 l 5,223,-1
 297 274 l 5,217,-1
312 249 m 5,224,-1
 344 265 l 5,225,-1
 375 249 l 5,226,-1
 382 216 l 5,227,-1
 361 188 l 5,228,-1
 326 188 l 5,229,-1
 305 216 l 5,230,-1
 312 249 l 5,224,-1
167 279 m 5,231,-1
 199 295 l 5,232,-1
 230 279 l 5,233,-1
 237 246 l 5,234,-1
 216 218 l 5,235,-1
 181 218 l 5,236,-1
 160 246 l 5,237,-1
 167 279 l 5,231,-1
217 279 m 5,238,-1
 249 295 l 5,239,-1
 280 279 l 5,240,-1
 287 246 l 5,241,-1
 266 218 l 5,242,-1
 231 218 l 5,243,-1
 210 246 l 5,244,-1
 217 279 l 5,238,-1
265 282 m 5,245,-1
 296 297 l 5,246,-1
 328 282 l 5,247,-1
 335 248 l 5,248,-1
 314 221 l 5,249,-1
 279 221 l 5,250,-1
 257 248 l 5,251,-1
 265 282 l 5,245,-1
104 282 m 5,252,-1
 135 297 l 5,253,-1
 167 282 l 5,254,-1
 174 248 l 5,255,-1
 153 221 l 5,256,-1
 118 221 l 5,257,-1
 96 248 l 5,258,-1
 104 282 l 5,252,-1
109 264 m 5,259,-1
 140 279 l 5,260,-1
 172 264 l 5,261,-1
 179 230 l 5,262,-1
 158 203 l 5,263,-1
 123 203 l 5,264,-1
 101 230 l 5,265,-1
 109 264 l 5,259,-1
EndSplineSet
EndChar

StartChar: C
Encoding: 67 67 25
Width: 567
Flags: W
LayerCount: 2
Fore
SplineSet
122 142 m 1,0,-1
 154 157 l 1,1,-1
 185 142 l 1,2,-1
 193 108 l 1,3,-1
 171 81 l 1,4,-1
 136 81 l 1,5,-1
 115 108 l 1,6,-1
 122 142 l 1,0,-1
93 102 m 1,7,-1
 124 117 l 1,8,-1
 155 102 l 1,9,-1
 163 68 l 1,10,-1
 141 41 l 1,11,-1
 106 41 l 1,12,-1
 85 68 l 1,13,-1
 93 102 l 1,7,-1
63 61 m 1,14,-1
 94 77 l 1,15,-1
 125 61 l 1,16,-1
 133 28 l 1,17,-1
 111 2 l 1,18,-1
 77 2 l 1,19,-1
 55 28 l 1,20,-1
 63 61 l 1,14,-1
410 95 m 1,21,-1
 442 110 l 1,22,-1
 473 95 l 1,23,-1
 481 61 l 1,24,-1
 459 34 l 1,25,-1
 424 34 l 1,26,-1
 403 61 l 1,27,-1
 410 95 l 1,21,-1
373 65 m 1,28,-1
 404 80 l 1,29,-1
 435 65 l 1,30,-1
 443 31 l 1,31,-1
 421 4 l 1,32,-1
 387 4 l 1,33,-1
 365 31 l 1,34,-1
 373 65 l 1,28,-1
325 46 m 1,35,-1
 356 61 l 1,36,-1
 388 46 l 1,37,-1
 395 12 l 1,38,-1
 374 -14 l 1,39,-1
 339 -14 l 1,40,-1
 317 12 l 1,41,-1
 325 46 l 1,35,-1
276 39 m 1,42,-1
 308 55 l 1,43,-1
 339 39 l 1,44,-1
 347 6 l 1,45,-1
 325 -20 l 1,46,-1
 290 -20 l 1,47,-1
 269 6 l 1,48,-1
 276 39 l 1,42,-1
229 42 m 1,49,-1
 260 57 l 1,50,-1
 292 42 l 1,51,-1
 299 9 l 1,52,-1
 278 -18 l 1,53,-1
 243 -18 l 1,54,-1
 221 9 l 1,55,-1
 229 42 l 1,49,-1
180 55 m 1,56,-1
 212 70 l 1,57,-1
 243 55 l 1,58,-1
 251 21 l 1,59,-1
 229 -5 l 1,60,-1
 194 -5 l 1,61,-1
 173 21 l 1,62,-1
 180 55 l 1,56,-1
138 80 m 1,63,-1
 169 95 l 1,64,-1
 200 80 l 1,65,-1
 208 46 l 1,66,-1
 186 19 l 1,67,-1
 151 19 l 1,68,-1
 130 46 l 1,69,-1
 138 80 l 1,63,-1
105 113 m 1,70,-1
 137 128 l 1,71,-1
 168 113 l 1,72,-1
 176 79 l 1,73,-1
 154 52 l 1,74,-1
 119 52 l 1,75,-1
 98 79 l 1,76,-1
 105 113 l 1,70,-1
81 157 m 1,77,-1
 112 172 l 1,78,-1
 143 157 l 1,79,-1
 151 123 l 1,80,-1
 129 96 l 1,81,-1
 94 96 l 1,82,-1
 73 123 l 1,83,-1
 81 157 l 1,77,-1
67 205 m 1,84,-1
 98 220 l 1,85,-1
 129 205 l 1,86,-1
 137 171 l 1,87,-1
 115 144 l 1,88,-1
 81 144 l 1,89,-1
 59 171 l 1,90,-1
 67 205 l 1,84,-1
61 255 m 1,91,-1
 93 270 l 1,92,-1
 124 255 l 1,93,-1
 132 221 l 1,94,-1
 110 194 l 1,95,-1
 75 194 l 1,96,-1
 54 221 l 1,97,-1
 61 255 l 1,91,-1
63 303 m 1,98,-1
 94 318 l 1,99,-1
 125 303 l 1,100,-1
 133 269 l 1,101,-1
 111 242 l 1,102,-1
 77 242 l 1,103,-1
 55 269 l 1,104,-1
 63 303 l 1,98,-1
70 351 m 1,105,-1
 102 366 l 1,106,-1
 133 351 l 1,107,-1
 141 317 l 1,108,-1
 119 290 l 1,109,-1
 84 290 l 1,110,-1
 63 317 l 1,111,-1
 70 351 l 1,105,-1
88 399 m 1,112,-1
 119 414 l 1,113,-1
 151 399 l 1,114,-1
 158 365 l 1,115,-1
 137 338 l 1,116,-1
 102 338 l 1,117,-1
 80 365 l 1,118,-1
 88 399 l 1,112,-1
116 439 m 5,119,-1
 148 454 l 5,120,-1
 179 439 l 5,121,-1
 186 406 l 5,122,-1
 165 378 l 5,123,-1
 130 378 l 5,124,-1
 109 406 l 5,125,-1
 116 439 l 5,119,-1
152 472 m 5,126,-1
 183 487 l 5,127,-1
 214 472 l 5,128,-1
 222 438 l 5,129,-1
 200 411 l 5,130,-1
 166 411 l 5,131,-1
 144 438 l 5,132,-1
 152 472 l 5,126,-1
196 494 m 5,133,-1
 227 509 l 5,134,-1
 259 494 l 5,135,-1
 266 460 l 5,136,-1
 245 433 l 5,137,-1
 210 433 l 5,138,-1
 188 460 l 5,139,-1
 196 494 l 5,133,-1
246 504 m 5,140,-1
 277 519 l 5,141,-1
 308 504 l 5,142,-1
 316 470 l 5,143,-1
 294 443 l 5,144,-1
 260 443 l 5,145,-1
 238 470 l 5,146,-1
 246 504 l 5,140,-1
292 503 m 5,147,-1
 324 518 l 5,148,-1
 355 503 l 5,149,-1
 363 469 l 5,150,-1
 341 442 l 5,151,-1
 306 442 l 5,152,-1
 285 469 l 5,153,-1
 292 503 l 5,147,-1
341 493 m 5,154,-1
 373 508 l 5,155,-1
 404 493 l 5,156,-1
 412 459 l 5,157,-1
 390 432 l 5,158,-1
 355 432 l 5,159,-1
 334 459 l 5,160,-1
 341 493 l 5,154,-1
384 471 m 5,161,-1
 416 486 l 5,162,-1
 447 471 l 5,163,-1
 455 438 l 5,164,-1
 433 410 l 5,165,-1
 398 410 l 5,166,-1
 377 438 l 5,167,-1
 384 471 l 5,161,-1
420 436 m 5,168,-1
 451 452 l 5,169,-1
 482 436 l 5,170,-1
 490 403 l 5,171,-1
 469 376 l 5,172,-1
 434 376 l 5,173,-1
 412 403 l 5,174,-1
 420 436 l 5,168,-1
436 137 m 1,175,-1
 468 152 l 1,176,-1
 499 137 l 1,177,-1
 506 103 l 1,178,-1
 485 76 l 1,179,-1
 450 76 l 1,180,-1
 429 103 l 1,181,-1
 436 137 l 1,175,-1
EndSplineSet
EndChar

StartChar: D
Encoding: 68 68 26
Width: 566
Flags: W
LayerCount: 2
Fore
SplineSet
220 494 m 1,0,-1
 252 510 l 1,1,-1
 283 494 l 1,2,-1
 290 461 l 1,3,-1
 269 433 l 1,4,-1
 234 433 l 1,5,-1
 213 461 l 1,6,-1
 220 494 l 1,0,-1
271 491 m 1,7,-1
 302 506 l 1,8,-1
 333 491 l 1,9,-1
 341 457 l 1,10,-1
 319 430 l 1,11,-1
 284 430 l 1,12,-1
 263 457 l 1,13,-1
 271 491 l 1,7,-1
319 477 m 1,14,-1
 351 492 l 1,15,-1
 382 477 l 1,16,-1
 390 444 l 1,17,-1
 368 416 l 1,18,-1
 333 416 l 1,19,-1
 312 444 l 1,20,-1
 319 477 l 1,14,-1
363 453 m 1,21,-1
 394 468 l 1,22,-1
 426 453 l 1,23,-1
 433 420 l 1,24,-1
 412 392 l 1,25,-1
 377 392 l 1,26,-1
 355 420 l 1,27,-1
 363 453 l 1,21,-1
399 421 m 1,28,-1
 430 436 l 1,29,-1
 461 421 l 1,30,-1
 469 387 l 1,31,-1
 447 360 l 1,32,-1
 413 360 l 1,33,-1
 391 387 l 1,34,-1
 399 421 l 1,28,-1
425 378 m 1,35,-1
 456 393 l 1,36,-1
 488 378 l 1,37,-1
 495 345 l 1,38,-1
 474 317 l 1,39,-1
 439 317 l 1,40,-1
 417 345 l 1,41,-1
 425 378 l 1,35,-1
440 331 m 1,42,-1
 471 346 l 1,43,-1
 502 331 l 1,44,-1
 510 297 l 1,45,-1
 488 270 l 1,46,-1
 454 270 l 1,47,-1
 432 297 l 1,48,-1
 440 331 l 1,42,-1
445 281 m 1,49,-1
 476 296 l 1,50,-1
 508 281 l 1,51,-1
 515 247 l 1,52,-1
 494 220 l 1,53,-1
 459 220 l 1,54,-1
 437 247 l 1,55,-1
 445 281 l 1,49,-1
443 233 m 1,56,-1
 475 248 l 1,57,-1
 506 233 l 1,58,-1
 514 200 l 1,59,-1
 492 172 l 1,60,-1
 457 172 l 1,61,-1
 436 200 l 1,62,-1
 443 233 l 1,56,-1
435 187 m 1,63,-1
 466 202 l 1,64,-1
 497 187 l 1,65,-1
 505 153 l 1,66,-1
 483 126 l 1,67,-1
 449 126 l 1,68,-1
 427 153 l 1,69,-1
 435 187 l 1,63,-1
415 141 m 1,70,-1
 446 156 l 1,71,-1
 477 141 l 1,72,-1
 485 107 l 1,73,-1
 464 80 l 1,74,-1
 429 80 l 1,75,-1
 407 107 l 1,76,-1
 415 141 l 1,70,-1
384 103 m 1,77,-1
 415 118 l 1,78,-1
 446 103 l 1,79,-1
 454 69 l 1,80,-1
 432 42 l 1,81,-1
 398 42 l 1,82,-1
 376 69 l 1,83,-1
 384 103 l 1,77,-1
344 73 m 1,84,-1
 375 88 l 1,85,-1
 407 73 l 1,86,-1
 414 39 l 1,87,-1
 393 12 l 1,88,-1
 358 12 l 1,89,-1
 336 39 l 1,90,-1
 344 73 l 1,84,-1
297 54 m 1,91,-1
 328 69 l 1,92,-1
 360 54 l 1,93,-1
 367 20 l 1,94,-1
 346 -6 l 1,95,-1
 311 -6 l 1,96,-1
 289 20 l 1,97,-1
 297 54 l 1,91,-1
247 46 m 1,98,-1
 279 61 l 1,99,-1
 310 46 l 1,100,-1
 318 12 l 1,101,-1
 296 -14 l 1,102,-1
 261 -14 l 1,103,-1
 240 12 l 1,104,-1
 247 46 l 1,98,-1
203 44 m 1,105,-1
 234 60 l 1,106,-1
 265 44 l 1,107,-1
 273 11 l 1,108,-1
 251 -16 l 1,109,-1
 217 -16 l 1,110,-1
 195 11 l 1,111,-1
 203 44 l 1,105,-1
153 44 m 1,112,-1
 184 60 l 1,113,-1
 215 44 l 1,114,-1
 223 11 l 1,115,-1
 201 -16 l 1,116,-1
 167 -16 l 1,117,-1
 145 11 l 1,118,-1
 153 44 l 1,112,-1
103 44 m 1,119,-1
 134 60 l 1,120,-1
 165 44 l 1,121,-1
 173 11 l 1,122,-1
 151 -16 l 1,123,-1
 117 -16 l 1,124,-1
 95 11 l 1,125,-1
 103 44 l 1,119,-1
80 69 m 1,126,-1
 112 85 l 1,127,-1
 143 69 l 1,128,-1
 150 36 l 1,129,-1
 129 8 l 1,130,-1
 94 8 l 1,131,-1
 73 36 l 1,132,-1
 80 69 l 1,126,-1
80 119 m 1,133,-1
 112 135 l 1,134,-1
 143 119 l 1,135,-1
 150 86 l 1,136,-1
 129 58 l 1,137,-1
 94 58 l 1,138,-1
 73 86 l 1,139,-1
 80 119 l 1,133,-1
80 169 m 1,140,-1
 112 185 l 1,141,-1
 143 169 l 1,142,-1
 150 136 l 1,143,-1
 129 108 l 1,144,-1
 94 108 l 1,145,-1
 73 136 l 1,146,-1
 80 169 l 1,140,-1
80 219 m 1,147,-1
 112 235 l 1,148,-1
 143 219 l 1,149,-1
 150 186 l 1,150,-1
 129 158 l 1,151,-1
 94 158 l 1,152,-1
 73 186 l 1,153,-1
 80 219 l 1,147,-1
80 269 m 1,154,-1
 112 285 l 1,155,-1
 143 269 l 1,156,-1
 150 236 l 1,157,-1
 129 208 l 1,158,-1
 94 208 l 1,159,-1
 73 236 l 1,160,-1
 80 269 l 1,154,-1
80 319 m 1,161,-1
 112 335 l 1,162,-1
 143 319 l 1,163,-1
 150 286 l 1,164,-1
 129 258 l 1,165,-1
 94 258 l 1,166,-1
 73 286 l 1,167,-1
 80 319 l 1,161,-1
80 369 m 1,168,-1
 112 385 l 1,169,-1
 143 369 l 1,170,-1
 150 336 l 1,171,-1
 129 308 l 1,172,-1
 94 308 l 1,173,-1
 73 336 l 1,174,-1
 80 369 l 1,168,-1
80 419 m 1,175,-1
 112 435 l 1,176,-1
 143 419 l 1,177,-1
 150 386 l 1,178,-1
 129 358 l 1,179,-1
 94 358 l 1,180,-1
 73 386 l 1,181,-1
 80 419 l 1,175,-1
80 469 m 1,182,-1
 112 485 l 1,183,-1
 143 469 l 1,184,-1
 150 436 l 1,185,-1
 129 408 l 1,186,-1
 94 408 l 1,187,-1
 73 436 l 1,188,-1
 80 469 l 1,182,-1
103 494 m 1,189,-1
 134 510 l 1,190,-1
 165 494 l 1,191,-1
 173 461 l 1,192,-1
 151 433 l 1,193,-1
 117 433 l 1,194,-1
 95 461 l 1,195,-1
 103 494 l 1,189,-1
153 494 m 1,196,-1
 184 510 l 1,197,-1
 215 494 l 1,198,-1
 223 461 l 1,199,-1
 201 433 l 1,200,-1
 167 433 l 1,201,-1
 145 461 l 1,202,-1
 153 494 l 1,196,-1
203 494 m 1,203,-1
 234 510 l 1,204,-1
 265 494 l 1,205,-1
 273 461 l 1,206,-1
 251 433 l 1,207,-1
 217 433 l 1,208,-1
 195 461 l 1,209,-1
 203 494 l 1,203,-1
220 494 m 1,210,-1
 252 510 l 1,211,-1
 283 494 l 1,212,-1
 290 461 l 1,213,-1
 269 433 l 1,214,-1
 234 433 l 1,215,-1
 213 461 l 1,216,-1
 220 494 l 1,210,-1
EndSplineSet
EndChar

StartChar: E
Encoding: 69 69 27
Width: 518
Flags: W
LayerCount: 2
Fore
SplineSet
78 94 m 1,0,-1
 110 110 l 1,1,-1
 141 94 l 1,2,-1
 148 61 l 1,3,-1
 127 33 l 1,4,-1
 92 33 l 1,5,-1
 71 61 l 1,6,-1
 78 94 l 1,0,-1
78 144 m 1,7,-1
 110 160 l 1,8,-1
 141 144 l 1,9,-1
 148 111 l 1,10,-1
 127 83 l 1,11,-1
 92 83 l 1,12,-1
 71 111 l 1,13,-1
 78 144 l 1,7,-1
78 194 m 1,14,-1
 110 210 l 1,15,-1
 141 194 l 1,16,-1
 148 161 l 1,17,-1
 127 133 l 1,18,-1
 92 133 l 1,19,-1
 71 161 l 1,20,-1
 78 194 l 1,14,-1
78 244 m 1,21,-1
 110 260 l 1,22,-1
 141 244 l 1,23,-1
 148 211 l 1,24,-1
 127 183 l 1,25,-1
 92 183 l 1,26,-1
 71 211 l 1,27,-1
 78 244 l 1,21,-1
78 294 m 1,28,-1
 110 310 l 1,29,-1
 141 294 l 1,30,-1
 148 261 l 1,31,-1
 127 233 l 1,32,-1
 92 233 l 1,33,-1
 71 261 l 1,34,-1
 78 294 l 1,28,-1
78 344 m 1,35,-1
 110 360 l 1,36,-1
 141 344 l 1,37,-1
 148 311 l 1,38,-1
 127 283 l 1,39,-1
 92 283 l 1,40,-1
 71 311 l 1,41,-1
 78 344 l 1,35,-1
78 394 m 1,42,-1
 110 410 l 1,43,-1
 141 394 l 1,44,-1
 148 361 l 1,45,-1
 127 333 l 1,46,-1
 92 333 l 1,47,-1
 71 361 l 1,48,-1
 78 394 l 1,42,-1
78 444 m 1,49,-1
 110 460 l 1,50,-1
 141 444 l 1,51,-1
 148 411 l 1,52,-1
 127 383 l 1,53,-1
 92 383 l 1,54,-1
 71 411 l 1,55,-1
 78 444 l 1,49,-1
78 494 m 1,56,-1
 110 510 l 1,57,-1
 141 494 l 1,58,-1
 148 461 l 1,59,-1
 127 433 l 1,60,-1
 92 433 l 1,61,-1
 71 461 l 1,62,-1
 78 494 l 1,56,-1
128 494 m 1,63,-1
 160 510 l 1,64,-1
 191 494 l 1,65,-1
 198 461 l 1,66,-1
 177 433 l 1,67,-1
 142 433 l 1,68,-1
 121 461 l 1,69,-1
 128 494 l 1,63,-1
178 494 m 1,70,-1
 210 510 l 1,71,-1
 241 494 l 1,72,-1
 248 461 l 1,73,-1
 227 433 l 1,74,-1
 192 433 l 1,75,-1
 171 461 l 1,76,-1
 178 494 l 1,70,-1
228 494 m 1,77,-1
 260 510 l 1,78,-1
 291 494 l 1,79,-1
 298 461 l 1,80,-1
 277 433 l 1,81,-1
 242 433 l 1,82,-1
 221 461 l 1,83,-1
 228 494 l 1,77,-1
278 494 m 1,84,-1
 310 510 l 1,85,-1
 341 494 l 1,86,-1
 348 461 l 1,87,-1
 327 433 l 1,88,-1
 292 433 l 1,89,-1
 271 461 l 1,90,-1
 278 494 l 1,84,-1
328 494 m 1,91,-1
 360 510 l 1,92,-1
 391 494 l 1,93,-1
 398 461 l 1,94,-1
 377 433 l 1,95,-1
 342 433 l 1,96,-1
 321 461 l 1,97,-1
 328 494 l 1,91,-1
378 494 m 1,98,-1
 410 510 l 1,99,-1
 441 494 l 1,100,-1
 448 461 l 1,101,-1
 427 433 l 1,102,-1
 392 433 l 1,103,-1
 371 461 l 1,104,-1
 378 494 l 1,98,-1
131 279 m 1,105,-1
 162 295 l 1,106,-1
 193 279 l 1,107,-1
 201 246 l 1,108,-1
 179 218 l 1,109,-1
 145 218 l 1,110,-1
 123 246 l 1,111,-1
 131 279 l 1,105,-1
181 279 m 1,112,-1
 212 295 l 1,113,-1
 243 279 l 1,114,-1
 251 246 l 1,115,-1
 229 218 l 1,116,-1
 195 218 l 1,117,-1
 173 246 l 1,118,-1
 181 279 l 1,112,-1
231 279 m 1,119,-1
 262 295 l 1,120,-1
 293 279 l 1,121,-1
 301 246 l 1,122,-1
 279 218 l 1,123,-1
 245 218 l 1,124,-1
 223 246 l 1,125,-1
 231 279 l 1,119,-1
281 279 m 1,126,-1
 312 295 l 1,127,-1
 343 279 l 1,128,-1
 351 246 l 1,129,-1
 329 218 l 1,130,-1
 295 218 l 1,131,-1
 273 246 l 1,132,-1
 281 279 l 1,126,-1
318 269 m 1,133,-1
 350 285 l 1,134,-1
 381 269 l 1,135,-1
 388 236 l 1,136,-1
 367 208 l 1,137,-1
 332 208 l 1,138,-1
 311 236 l 1,139,-1
 318 269 l 1,133,-1
393 44 m 1,140,-1
 425 60 l 1,141,-1
 456 44 l 1,142,-1
 463 11 l 1,143,-1
 442 -16 l 1,144,-1
 407 -16 l 1,145,-1
 386 11 l 1,146,-1
 393 44 l 1,140,-1
343 44 m 1,147,-1
 375 60 l 1,148,-1
 406 44 l 1,149,-1
 413 11 l 1,150,-1
 392 -16 l 1,151,-1
 357 -16 l 1,152,-1
 336 11 l 1,153,-1
 343 44 l 1,147,-1
293 44 m 1,154,-1
 325 60 l 1,155,-1
 356 44 l 1,156,-1
 363 11 l 1,157,-1
 342 -16 l 1,158,-1
 307 -16 l 1,159,-1
 286 11 l 1,160,-1
 293 44 l 1,154,-1
243 44 m 1,161,-1
 275 60 l 1,162,-1
 306 44 l 1,163,-1
 313 11 l 1,164,-1
 292 -16 l 1,165,-1
 257 -16 l 1,166,-1
 236 11 l 1,167,-1
 243 44 l 1,161,-1
193 44 m 1,168,-1
 225 60 l 1,169,-1
 256 44 l 1,170,-1
 263 11 l 1,171,-1
 242 -16 l 1,172,-1
 207 -16 l 1,173,-1
 186 11 l 1,174,-1
 193 44 l 1,168,-1
143 44 m 1,175,-1
 175 60 l 1,176,-1
 206 44 l 1,177,-1
 213 11 l 1,178,-1
 192 -16 l 1,179,-1
 157 -16 l 1,180,-1
 136 11 l 1,181,-1
 143 44 l 1,175,-1
93 44 m 1,182,-1
 125 60 l 1,183,-1
 156 44 l 1,184,-1
 163 11 l 1,185,-1
 142 -16 l 1,186,-1
 107 -16 l 1,187,-1
 86 11 l 1,188,-1
 93 44 l 1,182,-1
EndSplineSet
EndChar

StartChar: F
Encoding: 70 70 28
Width: 473
Flags: W
LayerCount: 2
Fore
SplineSet
110 281 m 1,0,-1
 141 296 l 1,1,-1
 172 281 l 1,2,-1
 180 247 l 1,3,-1
 158 220 l 1,4,-1
 124 220 l 1,5,-1
 102 247 l 1,6,-1
 110 281 l 1,0,-1
155 279 m 1,7,-1
 187 295 l 1,8,-1
 218 279 l 1,9,-1
 225 246 l 1,10,-1
 204 218 l 1,11,-1
 169 218 l 1,12,-1
 148 246 l 1,13,-1
 155 279 l 1,7,-1
205 279 m 1,14,-1
 237 295 l 1,15,-1
 268 279 l 1,16,-1
 275 246 l 1,17,-1
 254 218 l 1,18,-1
 219 218 l 1,19,-1
 198 246 l 1,20,-1
 205 279 l 1,14,-1
255 279 m 1,21,-1
 287 295 l 1,22,-1
 318 279 l 1,23,-1
 325 246 l 1,24,-1
 304 218 l 1,25,-1
 269 218 l 1,26,-1
 248 246 l 1,27,-1
 255 279 l 1,21,-1
305 279 m 1,28,-1
 337 295 l 1,29,-1
 368 279 l 1,30,-1
 375 246 l 1,31,-1
 354 218 l 1,32,-1
 319 218 l 1,33,-1
 298 246 l 1,34,-1
 305 279 l 1,28,-1
80 47 m 1,35,-1
 112 62 l 1,36,-1
 143 47 l 1,37,-1
 150 13 l 1,38,-1
 129 -13 l 1,39,-1
 94 -13 l 1,40,-1
 73 13 l 1,41,-1
 80 47 l 1,35,-1
80 97 m 1,42,-1
 112 112 l 1,43,-1
 143 97 l 1,44,-1
 150 63 l 1,45,-1
 129 36 l 1,46,-1
 94 36 l 1,47,-1
 73 63 l 1,48,-1
 80 97 l 1,42,-1
80 147 m 1,49,-1
 112 162 l 1,50,-1
 143 147 l 1,51,-1
 150 113 l 1,52,-1
 129 86 l 1,53,-1
 94 86 l 1,54,-1
 73 113 l 1,55,-1
 80 147 l 1,49,-1
80 197 m 1,56,-1
 112 212 l 1,57,-1
 143 197 l 1,58,-1
 150 163 l 1,59,-1
 129 136 l 1,60,-1
 94 136 l 1,61,-1
 73 163 l 1,62,-1
 80 197 l 1,56,-1
80 247 m 1,63,-1
 112 262 l 1,64,-1
 143 247 l 1,65,-1
 150 213 l 1,66,-1
 129 186 l 1,67,-1
 94 186 l 1,68,-1
 73 213 l 1,69,-1
 80 247 l 1,63,-1
80 297 m 1,70,-1
 112 312 l 1,71,-1
 143 297 l 1,72,-1
 150 263 l 1,73,-1
 129 236 l 1,74,-1
 94 236 l 1,75,-1
 73 263 l 1,76,-1
 80 297 l 1,70,-1
80 347 m 1,77,-1
 112 362 l 1,78,-1
 143 347 l 1,79,-1
 150 313 l 1,80,-1
 129 286 l 1,81,-1
 94 286 l 1,82,-1
 73 313 l 1,83,-1
 80 347 l 1,77,-1
80 397 m 1,84,-1
 112 412 l 1,85,-1
 143 397 l 1,86,-1
 150 363 l 1,87,-1
 129 336 l 1,88,-1
 94 336 l 1,89,-1
 73 363 l 1,90,-1
 80 397 l 1,84,-1
80 447 m 1,91,-1
 112 462 l 1,92,-1
 143 447 l 1,93,-1
 150 413 l 1,94,-1
 129 386 l 1,95,-1
 94 386 l 1,96,-1
 73 413 l 1,97,-1
 80 447 l 1,91,-1
80 494 m 1,98,-1
 112 510 l 1,99,-1
 143 494 l 1,100,-1
 150 461 l 1,101,-1
 129 433 l 1,102,-1
 94 433 l 1,103,-1
 73 461 l 1,104,-1
 80 494 l 1,98,-1
130 494 m 1,105,-1
 162 510 l 1,106,-1
 193 494 l 1,107,-1
 200 461 l 1,108,-1
 179 433 l 1,109,-1
 144 433 l 1,110,-1
 123 461 l 1,111,-1
 130 494 l 1,105,-1
180 494 m 1,112,-1
 212 510 l 1,113,-1
 243 494 l 1,114,-1
 250 461 l 1,115,-1
 229 433 l 1,116,-1
 194 433 l 1,117,-1
 173 461 l 1,118,-1
 180 494 l 1,112,-1
230 494 m 1,119,-1
 262 510 l 1,120,-1
 293 494 l 1,121,-1
 300 461 l 1,122,-1
 279 433 l 1,123,-1
 244 433 l 1,124,-1
 223 461 l 1,125,-1
 230 494 l 1,119,-1
280 494 m 1,126,-1
 312 510 l 1,127,-1
 343 494 l 1,128,-1
 350 461 l 1,129,-1
 329 433 l 1,130,-1
 294 433 l 1,131,-1
 273 461 l 1,132,-1
 280 494 l 1,126,-1
330 494 m 1,133,-1
 362 510 l 1,134,-1
 393 494 l 1,135,-1
 400 461 l 1,136,-1
 379 433 l 1,137,-1
 344 433 l 1,138,-1
 323 461 l 1,139,-1
 330 494 l 1,133,-1
380 494 m 1,140,-1
 412 510 l 1,141,-1
 443 494 l 1,142,-1
 450 461 l 1,143,-1
 429 433 l 1,144,-1
 394 433 l 1,145,-1
 373 461 l 1,146,-1
 380 494 l 1,140,-1
EndSplineSet
EndChar

StartChar: G
Encoding: 71 71 29
Width: 605
Flags: W
LayerCount: 2
Fore
SplineSet
125 142 m 1,0,-1
 157 157 l 1,1,-1
 188 142 l 1,2,-1
 196 108 l 1,3,-1
 174 81 l 1,4,-1
 139 81 l 1,5,-1
 118 108 l 1,6,-1
 125 142 l 1,0,-1
96 102 m 1,7,-1
 127 117 l 1,8,-1
 158 102 l 1,9,-1
 166 68 l 1,10,-1
 144 41 l 1,11,-1
 109 41 l 1,12,-1
 88 68 l 1,13,-1
 96 102 l 1,7,-1
66 61 m 1,14,-1
 97 77 l 1,15,-1
 128 61 l 1,16,-1
 136 28 l 1,17,-1
 114 2 l 1,18,-1
 80 2 l 1,19,-1
 58 28 l 1,20,-1
 66 61 l 1,14,-1
364 61 m 1,21,-1
 396 76 l 1,22,-1
 427 61 l 1,23,-1
 435 27 l 1,24,-1
 413 0 l 1,25,-1
 378 0 l 1,26,-1
 357 27 l 1,27,-1
 364 61 l 1,21,-1
317 43 m 1,28,-1
 348 59 l 1,29,-1
 380 43 l 1,30,-1
 387 10 l 1,31,-1
 366 -17 l 1,32,-1
 331 -17 l 1,33,-1
 309 10 l 1,34,-1
 317 43 l 1,28,-1
269 39 m 1,35,-1
 301 55 l 1,36,-1
 332 39 l 1,37,-1
 340 6 l 1,38,-1
 318 -21 l 1,39,-1
 283 -21 l 1,40,-1
 262 6 l 1,41,-1
 269 39 l 1,35,-1
220 44 m 1,42,-1
 251 59 l 1,43,-1
 283 44 l 1,44,-1
 290 10 l 1,45,-1
 269 -16 l 1,46,-1
 234 -16 l 1,47,-1
 212 10 l 1,48,-1
 220 44 l 1,42,-1
173 59 m 1,49,-1
 204 74 l 1,50,-1
 235 59 l 1,51,-1
 243 25 l 1,52,-1
 222 -1 l 1,53,-1
 187 -1 l 1,54,-1
 165 25 l 1,55,-1
 173 59 l 1,49,-1
132 85 m 1,56,-1
 163 100 l 1,57,-1
 194 85 l 1,58,-1
 202 52 l 1,59,-1
 180 24 l 1,60,-1
 146 24 l 1,61,-1
 124 52 l 1,62,-1
 132 85 l 1,56,-1
100 121 m 1,63,-1
 131 136 l 1,64,-1
 163 121 l 1,65,-1
 170 88 l 1,66,-1
 149 60 l 1,67,-1
 114 60 l 1,68,-1
 92 88 l 1,69,-1
 100 121 l 1,63,-1
78 165 m 1,70,-1
 110 180 l 1,71,-1
 141 165 l 1,72,-1
 149 131 l 1,73,-1
 127 104 l 1,74,-1
 92 104 l 1,75,-1
 71 131 l 1,76,-1
 78 165 l 1,70,-1
66 215 m 1,77,-1
 97 230 l 1,78,-1
 129 215 l 1,79,-1
 136 181 l 1,80,-1
 115 154 l 1,81,-1
 80 154 l 1,82,-1
 58 181 l 1,83,-1
 66 215 l 1,77,-1
62 264 m 1,84,-1
 94 279 l 1,85,-1
 125 264 l 1,86,-1
 133 230 l 1,87,-1
 111 203 l 1,88,-1
 76 203 l 1,89,-1
 55 230 l 1,90,-1
 62 264 l 1,84,-1
65 311 m 1,91,-1
 96 326 l 1,92,-1
 127 311 l 1,93,-1
 135 278 l 1,94,-1
 113 250 l 1,95,-1
 79 250 l 1,96,-1
 57 278 l 1,97,-1
 65 311 l 1,91,-1
76 361 m 1,98,-1
 107 376 l 1,99,-1
 139 361 l 1,100,-1
 146 327 l 1,101,-1
 125 300 l 1,102,-1
 90 300 l 1,103,-1
 68 327 l 1,104,-1
 76 361 l 1,98,-1
96 405 m 1,105,-1
 128 420 l 1,106,-1
 159 405 l 1,107,-1
 167 371 l 1,108,-1
 145 344 l 1,109,-1
 110 344 l 1,110,-1
 89 371 l 1,111,-1
 96 405 l 1,105,-1
126 443 m 1,112,-1
 157 458 l 1,113,-1
 188 443 l 1,114,-1
 196 409 l 1,115,-1
 174 382 l 1,116,-1
 139 382 l 1,117,-1
 118 409 l 1,118,-1
 126 443 l 1,112,-1
164 474 m 1,119,-1
 195 489 l 1,120,-1
 226 474 l 1,121,-1
 234 440 l 1,122,-1
 212 413 l 1,123,-1
 177 413 l 1,124,-1
 156 440 l 1,125,-1
 164 474 l 1,119,-1
209 495 m 1,126,-1
 241 510 l 1,127,-1
 272 495 l 1,128,-1
 280 461 l 1,129,-1
 258 434 l 1,130,-1
 223 434 l 1,131,-1
 202 461 l 1,132,-1
 209 495 l 1,126,-1
259 504 m 1,133,-1
 291 519 l 1,134,-1
 322 504 l 1,135,-1
 330 470 l 1,136,-1
 308 443 l 1,137,-1
 273 443 l 1,138,-1
 252 470 l 1,139,-1
 259 504 l 1,133,-1
305 503 m 1,140,-1
 337 518 l 1,141,-1
 368 503 l 1,142,-1
 376 469 l 1,143,-1
 354 442 l 1,144,-1
 319 442 l 1,145,-1
 298 469 l 1,146,-1
 305 503 l 1,140,-1
354 493 m 1,147,-1
 386 508 l 1,148,-1
 417 493 l 1,149,-1
 425 459 l 1,150,-1
 403 432 l 1,151,-1
 368 432 l 1,152,-1
 347 459 l 1,153,-1
 354 493 l 1,147,-1
396 470 m 1,154,-1
 427 485 l 1,155,-1
 459 470 l 1,156,-1
 466 437 l 1,157,-1
 445 409 l 1,158,-1
 410 409 l 1,159,-1
 388 437 l 1,160,-1
 396 470 l 1,154,-1
430 433 m 1,161,-1
 461 448 l 1,162,-1
 492 433 l 1,163,-1
 500 399 l 1,164,-1
 478 372 l 1,165,-1
 444 372 l 1,166,-1
 422 399 l 1,167,-1
 430 433 l 1,161,-1
402 94 m 1,168,-1
 434 110 l 1,169,-1
 465 94 l 1,170,-1
 472 61 l 1,171,-1
 451 33 l 1,172,-1
 416 33 l 1,173,-1
 395 61 l 1,174,-1
 402 94 l 1,168,-1
282 242 m 1,175,-1
 314 257 l 1,176,-1
 345 242 l 1,177,-1
 352 208 l 1,178,-1
 331 181 l 1,179,-1
 296 181 l 1,180,-1
 275 208 l 1,181,-1
 282 242 l 1,175,-1
322 249 m 1,182,-1
 354 265 l 1,183,-1
 385 249 l 1,184,-1
 392 216 l 1,185,-1
 371 188 l 1,186,-1
 336 188 l 1,187,-1
 315 216 l 1,188,-1
 322 249 l 1,182,-1
372 249 m 1,189,-1
 404 265 l 1,190,-1
 435 249 l 1,191,-1
 442 216 l 1,192,-1
 421 188 l 1,193,-1
 386 188 l 1,194,-1
 365 216 l 1,195,-1
 372 249 l 1,189,-1
422 249 m 1,196,-1
 454 265 l 1,197,-1
 485 249 l 1,198,-1
 492 216 l 1,199,-1
 471 188 l 1,200,-1
 436 188 l 1,201,-1
 415 216 l 1,202,-1
 422 249 l 1,196,-1
452 232 m 1,203,-1
 484 247 l 1,204,-1
 515 232 l 1,205,-1
 522 198 l 1,206,-1
 501 171 l 1,207,-1
 466 171 l 1,208,-1
 445 198 l 1,209,-1
 452 232 l 1,203,-1
452 182 m 1,210,-1
 484 197 l 1,211,-1
 515 182 l 1,212,-1
 522 148 l 1,213,-1
 501 121 l 1,214,-1
 466 121 l 1,215,-1
 445 148 l 1,216,-1
 452 182 l 1,210,-1
452 132 m 1,217,-1
 484 147 l 1,218,-1
 515 132 l 1,219,-1
 522 98 l 1,220,-1
 501 71 l 1,221,-1
 466 71 l 1,222,-1
 445 98 l 1,223,-1
 452 132 l 1,217,-1
447 47 m 1,224,-1
 479 62 l 1,225,-1
 510 47 l 1,226,-1
 517 13 l 1,227,-1
 496 -13 l 1,228,-1
 461 -13 l 1,229,-1
 440 13 l 1,230,-1
 447 47 l 1,224,-1
447 94 m 1,231,-1
 478 109 l 1,232,-1
 509 94 l 1,233,-1
 517 60 l 1,234,-1
 495 33 l 1,235,-1
 461 33 l 1,236,-1
 439 60 l 1,237,-1
 447 94 l 1,231,-1
EndSplineSet
EndChar

StartChar: H
Encoding: 72 72 30
Width: 564
Flags: W
LayerCount: 2
Fore
SplineSet
80 269 m 5,0,-1
 112 284 l 5,1,-1
 143 269 l 5,2,-1
 151 235 l 5,3,-1
 129 208 l 5,4,-1
 94 208 l 5,5,-1
 73 235 l 5,6,-1
 80 269 l 5,0,-1
51 229 m 5,7,-1
 82 244 l 5,8,-1
 113 229 l 5,9,-1
 121 195 l 5,10,-1
 99 168 l 5,11,-1
 64 168 l 5,12,-1
 43 195 l 5,13,-1
 51 229 l 5,7,-1
21 188 m 5,14,-1
 52 204 l 5,15,-1
 83 188 l 5,16,-1
 91 155 l 5,17,-1
 69 129 l 5,18,-1
 35 129 l 5,19,-1
 13 155 l 5,20,-1
 21 188 l 5,14,-1
408 494 m 5,21,-1
 440 510 l 5,22,-1
 471 494 l 5,23,-1
 478 461 l 5,24,-1
 457 433 l 5,25,-1
 422 433 l 5,26,-1
 401 461 l 5,27,-1
 408 494 l 5,21,-1
408 57 m 5,28,-1
 440 72 l 5,29,-1
 471 57 l 5,30,-1
 478 23 l 5,31,-1
 457 -3 l 5,32,-1
 422 -3 l 5,33,-1
 401 23 l 5,34,-1
 408 57 l 5,28,-1
408 107 m 5,35,-1
 440 122 l 5,36,-1
 471 107 l 5,37,-1
 478 73 l 5,38,-1
 457 46 l 5,39,-1
 422 46 l 5,40,-1
 401 73 l 5,41,-1
 408 107 l 5,35,-1
408 157 m 5,42,-1
 440 172 l 5,43,-1
 471 157 l 5,44,-1
 478 123 l 5,45,-1
 457 96 l 5,46,-1
 422 96 l 5,47,-1
 401 123 l 5,48,-1
 408 157 l 5,42,-1
408 207 m 5,49,-1
 440 222 l 5,50,-1
 471 207 l 5,51,-1
 478 173 l 5,52,-1
 457 146 l 5,53,-1
 422 146 l 5,54,-1
 401 173 l 5,55,-1
 408 207 l 5,49,-1
405 256 m 5,56,-1
 437 271 l 5,57,-1
 468 256 l 5,58,-1
 476 222 l 5,59,-1
 454 195 l 5,60,-1
 419 195 l 5,61,-1
 398 222 l 5,62,-1
 405 256 l 5,56,-1
93 242 m 5,63,-1
 125 257 l 5,64,-1
 156 242 l 5,65,-1
 163 208 l 5,66,-1
 142 181 l 5,67,-1
 107 181 l 5,68,-1
 86 208 l 5,69,-1
 93 242 l 5,63,-1
93 192 m 5,70,-1
 125 207 l 5,71,-1
 156 192 l 5,72,-1
 163 158 l 5,73,-1
 142 131 l 5,74,-1
 107 131 l 5,75,-1
 86 158 l 5,76,-1
 93 192 l 5,70,-1
93 142 m 5,77,-1
 125 157 l 5,78,-1
 156 142 l 5,79,-1
 163 108 l 5,80,-1
 142 81 l 5,81,-1
 107 81 l 5,82,-1
 86 108 l 5,83,-1
 93 142 l 5,77,-1
93 92 m 5,84,-1
 125 107 l 5,85,-1
 156 92 l 5,86,-1
 163 58 l 5,87,-1
 142 31 l 5,88,-1
 107 31 l 5,89,-1
 86 58 l 5,90,-1
 93 92 l 5,84,-1
93 44 m 5,91,-1
 125 60 l 5,92,-1
 156 44 l 5,93,-1
 163 11 l 5,94,-1
 142 -16 l 5,95,-1
 107 -16 l 5,96,-1
 86 11 l 5,97,-1
 93 44 l 5,91,-1
93 482 m 5,98,-1
 125 497 l 5,99,-1
 156 482 l 5,100,-1
 163 448 l 5,101,-1
 142 421 l 5,102,-1
 107 421 l 5,103,-1
 86 448 l 5,104,-1
 93 482 l 5,98,-1
93 432 m 5,105,-1
 125 447 l 5,106,-1
 156 432 l 5,107,-1
 163 398 l 5,108,-1
 142 371 l 5,109,-1
 107 371 l 5,110,-1
 86 398 l 5,111,-1
 93 432 l 5,105,-1
93 382 m 5,112,-1
 125 397 l 5,113,-1
 156 382 l 5,114,-1
 163 348 l 5,115,-1
 142 321 l 5,116,-1
 107 321 l 5,117,-1
 86 348 l 5,118,-1
 93 382 l 5,112,-1
93 332 m 5,119,-1
 125 347 l 5,120,-1
 156 332 l 5,121,-1
 163 298 l 5,122,-1
 142 271 l 5,123,-1
 107 271 l 5,124,-1
 86 298 l 5,125,-1
 93 332 l 5,119,-1
99 286 m 5,126,-1
 130 301 l 5,127,-1
 161 286 l 5,128,-1
 169 252 l 5,129,-1
 147 225 l 5,130,-1
 113 225 l 5,131,-1
 91 252 l 5,132,-1
 99 286 l 5,126,-1
143 279 m 5,133,-1
 175 295 l 5,134,-1
 206 279 l 5,135,-1
 213 246 l 5,136,-1
 192 218 l 5,137,-1
 157 218 l 5,138,-1
 136 246 l 5,139,-1
 143 279 l 5,133,-1
193 279 m 5,140,-1
 225 295 l 5,141,-1
 256 279 l 5,142,-1
 263 246 l 5,143,-1
 242 218 l 5,144,-1
 207 218 l 5,145,-1
 186 246 l 5,146,-1
 193 279 l 5,140,-1
243 279 m 5,147,-1
 275 295 l 5,148,-1
 306 279 l 5,149,-1
 313 246 l 5,150,-1
 292 218 l 5,151,-1
 257 218 l 5,152,-1
 236 246 l 5,153,-1
 243 279 l 5,147,-1
293 279 m 5,154,-1
 325 295 l 5,155,-1
 356 279 l 5,156,-1
 363 246 l 5,157,-1
 342 218 l 5,158,-1
 307 218 l 5,159,-1
 286 246 l 5,160,-1
 293 279 l 5,154,-1
343 279 m 5,161,-1
 375 295 l 5,162,-1
 406 279 l 5,163,-1
 413 246 l 5,164,-1
 392 218 l 5,165,-1
 357 218 l 5,166,-1
 336 246 l 5,167,-1
 343 279 l 5,161,-1
408 317 m 5,168,-1
 440 332 l 5,169,-1
 471 317 l 5,170,-1
 478 283 l 5,171,-1
 457 256 l 5,172,-1
 422 256 l 5,173,-1
 401 283 l 5,174,-1
 408 317 l 5,168,-1
408 367 m 5,175,-1
 440 382 l 5,176,-1
 471 367 l 5,177,-1
 478 333 l 5,178,-1
 457 306 l 5,179,-1
 422 306 l 5,180,-1
 401 333 l 5,181,-1
 408 367 l 5,175,-1
408 417 m 5,182,-1
 440 432 l 5,183,-1
 471 417 l 5,184,-1
 478 383 l 5,185,-1
 457 356 l 5,186,-1
 422 356 l 5,187,-1
 401 383 l 5,188,-1
 408 417 l 5,182,-1
408 467 m 5,189,-1
 440 482 l 5,190,-1
 471 467 l 5,191,-1
 478 433 l 5,192,-1
 457 406 l 5,193,-1
 422 406 l 5,194,-1
 401 433 l 5,195,-1
 408 467 l 5,189,-1
EndSplineSet
EndChar

StartChar: I
Encoding: 73 73 31
Width: 254
Flags: W
LayerCount: 2
Fore
SplineSet
83 494 m 1,0,-1
 115 510 l 1,1,-1
 146 494 l 1,2,-1
 153 461 l 1,3,-1
 132 433 l 1,4,-1
 97 433 l 1,5,-1
 76 461 l 1,6,-1
 83 494 l 1,0,-1
83 444 m 1,7,-1
 115 460 l 1,8,-1
 146 444 l 1,9,-1
 153 411 l 1,10,-1
 132 383 l 1,11,-1
 97 383 l 1,12,-1
 76 411 l 1,13,-1
 83 444 l 1,7,-1
83 394 m 1,14,-1
 115 410 l 1,15,-1
 146 394 l 1,16,-1
 153 361 l 1,17,-1
 132 333 l 1,18,-1
 97 333 l 1,19,-1
 76 361 l 1,20,-1
 83 394 l 1,14,-1
83 344 m 1,21,-1
 115 360 l 1,22,-1
 146 344 l 1,23,-1
 153 311 l 1,24,-1
 132 283 l 1,25,-1
 97 283 l 1,26,-1
 76 311 l 1,27,-1
 83 344 l 1,21,-1
83 294 m 1,28,-1
 115 310 l 1,29,-1
 146 294 l 1,30,-1
 153 261 l 1,31,-1
 132 233 l 1,32,-1
 97 233 l 1,33,-1
 76 261 l 1,34,-1
 83 294 l 1,28,-1
83 244 m 1,35,-1
 115 260 l 1,36,-1
 146 244 l 1,37,-1
 153 211 l 1,38,-1
 132 183 l 1,39,-1
 97 183 l 1,40,-1
 76 211 l 1,41,-1
 83 244 l 1,35,-1
83 194 m 1,42,-1
 115 210 l 1,43,-1
 146 194 l 1,44,-1
 153 161 l 1,45,-1
 132 133 l 1,46,-1
 97 133 l 1,47,-1
 76 161 l 1,48,-1
 83 194 l 1,42,-1
83 144 m 1,49,-1
 115 160 l 1,50,-1
 146 144 l 1,51,-1
 153 111 l 1,52,-1
 132 83 l 1,53,-1
 97 83 l 1,54,-1
 76 111 l 1,55,-1
 83 144 l 1,49,-1
83 94 m 1,56,-1
 115 110 l 1,57,-1
 146 94 l 1,58,-1
 153 61 l 1,59,-1
 132 33 l 1,60,-1
 97 33 l 1,61,-1
 76 61 l 1,62,-1
 83 94 l 1,56,-1
83 44 m 1,63,-1
 115 60 l 1,64,-1
 146 44 l 1,65,-1
 153 11 l 1,66,-1
 132 -16 l 1,67,-1
 97 -16 l 1,68,-1
 76 11 l 1,69,-1
 83 44 l 1,63,-1
EndSplineSet
EndChar

StartChar: J
Encoding: 74 74 32
Width: 463
Flags: W
LayerCount: 2
Fore
SplineSet
314 494 m 1,0,-1
 346 510 l 1,1,-1
 377 494 l 1,2,-1
 384 461 l 1,3,-1
 363 433 l 1,4,-1
 328 433 l 1,5,-1
 307 461 l 1,6,-1
 314 494 l 1,0,-1
314 442 m 1,7,-1
 346 457 l 1,8,-1
 377 442 l 1,9,-1
 384 408 l 1,10,-1
 363 381 l 1,11,-1
 328 381 l 1,12,-1
 307 408 l 1,13,-1
 314 442 l 1,7,-1
314 392 m 1,14,-1
 346 407 l 1,15,-1
 377 392 l 1,16,-1
 384 358 l 1,17,-1
 363 331 l 1,18,-1
 328 331 l 1,19,-1
 307 358 l 1,20,-1
 314 392 l 1,14,-1
314 342 m 1,21,-1
 346 357 l 1,22,-1
 377 342 l 1,23,-1
 384 308 l 1,24,-1
 363 281 l 1,25,-1
 328 281 l 1,26,-1
 307 308 l 1,27,-1
 314 342 l 1,21,-1
314 292 m 1,28,-1
 346 307 l 1,29,-1
 377 292 l 1,30,-1
 384 258 l 1,31,-1
 363 231 l 1,32,-1
 328 231 l 1,33,-1
 307 258 l 1,34,-1
 314 292 l 1,28,-1
314 242 m 1,35,-1
 346 257 l 1,36,-1
 377 242 l 1,37,-1
 384 208 l 1,38,-1
 363 181 l 1,39,-1
 328 181 l 1,40,-1
 307 208 l 1,41,-1
 314 242 l 1,35,-1
314 192 m 1,42,-1
 346 207 l 1,43,-1
 377 192 l 1,44,-1
 384 158 l 1,45,-1
 363 131 l 1,46,-1
 328 131 l 1,47,-1
 307 158 l 1,48,-1
 314 192 l 1,42,-1
310 146 m 1,49,-1
 341 161 l 1,50,-1
 372 146 l 1,51,-1
 380 113 l 1,52,-1
 359 85 l 1,53,-1
 324 85 l 1,54,-1
 302 113 l 1,55,-1
 310 146 l 1,49,-1
293 100 m 1,56,-1
 324 116 l 1,57,-1
 355 100 l 1,58,-1
 363 67 l 1,59,-1
 341 40 l 1,60,-1
 307 40 l 1,61,-1
 285 67 l 1,62,-1
 293 100 l 1,56,-1
262 65 m 1,63,-1
 293 80 l 1,64,-1
 324 65 l 1,65,-1
 332 31 l 1,66,-1
 310 4 l 1,67,-1
 276 4 l 1,68,-1
 254 31 l 1,69,-1
 262 65 l 1,63,-1
215 45 m 1,70,-1
 247 60 l 1,71,-1
 278 45 l 1,72,-1
 286 11 l 1,73,-1
 264 -15 l 1,74,-1
 229 -15 l 1,75,-1
 208 11 l 1,76,-1
 215 45 l 1,70,-1
169 39 m 1,77,-1
 201 55 l 1,78,-1
 232 39 l 1,79,-1
 239 6 l 1,80,-1
 218 -21 l 1,81,-1
 183 -21 l 1,82,-1
 162 6 l 1,83,-1
 169 39 l 1,77,-1
119 44 m 1,84,-1
 151 59 l 1,85,-1
 182 44 l 1,86,-1
 190 11 l 1,87,-1
 168 -16 l 1,88,-1
 133 -16 l 1,89,-1
 112 11 l 1,90,-1
 119 44 l 1,84,-1
74 65 m 1,91,-1
 105 80 l 1,92,-1
 136 65 l 1,93,-1
 144 31 l 1,94,-1
 123 4 l 1,95,-1
 88 4 l 1,96,-1
 66 31 l 1,97,-1
 74 65 l 1,91,-1
47 104 m 1,98,-1
 78 119 l 1,99,-1
 109 104 l 1,100,-1
 117 70 l 1,101,-1
 95 43 l 1,102,-1
 61 43 l 1,103,-1
 39 70 l 1,104,-1
 47 104 l 1,98,-1
39 154 m 1,105,-1
 70 169 l 1,106,-1
 101 154 l 1,107,-1
 109 120 l 1,108,-1
 87 93 l 1,109,-1
 52 93 l 1,110,-1
 31 120 l 1,111,-1
 39 154 l 1,105,-1
EndSplineSet
EndChar

StartChar: K
Encoding: 75 75 33
Width: 556
Flags: W
LayerCount: 2
Fore
SplineSet
98 316 m 5,0,-1
 130 331 l 5,1,-1
 161 316 l 5,2,-1
 169 282 l 5,3,-1
 147 255 l 5,4,-1
 112 255 l 5,5,-1
 91 282 l 5,6,-1
 98 316 l 5,0,-1
69 276 m 5,7,-1
 100 291 l 5,8,-1
 131 276 l 5,9,-1
 139 242 l 5,10,-1
 117 215 l 5,11,-1
 82 215 l 5,12,-1
 61 242 l 5,13,-1
 69 276 l 5,7,-1
39 235 m 5,14,-1
 70 251 l 5,15,-1
 101 235 l 5,16,-1
 109 202 l 5,17,-1
 87 176 l 5,18,-1
 53 176 l 5,19,-1
 31 202 l 5,20,-1
 39 235 l 5,14,-1
436 44 m 1,21,-1
 468 60 l 1,22,-1
 499 44 l 1,23,-1
 506 11 l 1,24,-1
 485 -16 l 1,25,-1
 450 -16 l 1,26,-1
 429 11 l 1,27,-1
 436 44 l 1,21,-1
408 86 m 1,28,-1
 439 101 l 1,29,-1
 470 86 l 1,30,-1
 478 52 l 1,31,-1
 456 25 l 1,32,-1
 422 25 l 1,33,-1
 400 52 l 1,34,-1
 408 86 l 1,28,-1
379 127 m 1,35,-1
 411 142 l 1,36,-1
 442 127 l 1,37,-1
 450 93 l 1,38,-1
 428 66 l 1,39,-1
 393 66 l 1,40,-1
 372 93 l 1,41,-1
 379 127 l 1,35,-1
351 169 m 1,42,-1
 382 184 l 1,43,-1
 413 169 l 1,44,-1
 421 135 l 1,45,-1
 400 108 l 1,46,-1
 365 108 l 1,47,-1
 343 135 l 1,48,-1
 351 169 l 1,42,-1
322 210 m 1,49,-1
 354 225 l 1,50,-1
 385 210 l 1,51,-1
 393 176 l 1,52,-1
 371 149 l 1,53,-1
 336 149 l 1,54,-1
 315 176 l 1,55,-1
 322 210 l 1,49,-1
294 251 m 1,56,-1
 325 266 l 1,57,-1
 357 251 l 1,58,-1
 364 217 l 1,59,-1
 343 190 l 1,60,-1
 308 190 l 1,61,-1
 286 217 l 1,62,-1
 294 251 l 1,56,-1
229 277 m 1,63,-1
 261 292 l 1,64,-1
 292 277 l 1,65,-1
 300 243 l 1,66,-1
 278 216 l 1,67,-1
 243 216 l 1,68,-1
 222 243 l 1,69,-1
 229 277 l 1,63,-1
196 242 m 1,70,-1
 228 257 l 1,71,-1
 259 242 l 1,72,-1
 267 208 l 1,73,-1
 245 181 l 1,74,-1
 210 181 l 1,75,-1
 189 208 l 1,76,-1
 196 242 l 1,70,-1
162 205 m 1,77,-1
 193 221 l 1,78,-1
 224 205 l 1,79,-1
 232 172 l 1,80,-1
 210 144 l 1,81,-1
 176 144 l 1,82,-1
 154 172 l 1,83,-1
 162 205 l 1,77,-1
126 52 m 1,84,-1
 158 67 l 1,85,-1
 189 52 l 1,86,-1
 196 18 l 1,87,-1
 175 -8 l 1,88,-1
 140 -8 l 1,89,-1
 119 18 l 1,90,-1
 126 52 l 1,84,-1
126 102 m 1,91,-1
 158 117 l 1,92,-1
 189 102 l 1,93,-1
 196 68 l 1,94,-1
 175 41 l 1,95,-1
 140 41 l 1,96,-1
 119 68 l 1,97,-1
 126 102 l 1,91,-1
126 152 m 1,98,-1
 158 167 l 1,99,-1
 189 152 l 1,100,-1
 196 118 l 1,101,-1
 175 91 l 1,102,-1
 140 91 l 1,103,-1
 119 118 l 1,104,-1
 126 152 l 1,98,-1
126 202 m 1,105,-1
 158 217 l 1,106,-1
 189 202 l 1,107,-1
 196 168 l 1,108,-1
 175 141 l 1,109,-1
 140 141 l 1,110,-1
 119 168 l 1,111,-1
 126 202 l 1,105,-1
126 252 m 1,112,-1
 158 267 l 1,113,-1
 189 252 l 1,114,-1
 196 218 l 1,115,-1
 175 191 l 1,116,-1
 140 191 l 1,117,-1
 119 218 l 1,118,-1
 126 252 l 1,112,-1
126 302 m 1,119,-1
 158 317 l 1,120,-1
 189 302 l 1,121,-1
 196 268 l 1,122,-1
 175 241 l 1,123,-1
 140 241 l 1,124,-1
 119 268 l 1,125,-1
 126 302 l 1,119,-1
126 352 m 1,126,-1
 158 367 l 1,127,-1
 189 352 l 1,128,-1
 196 318 l 1,129,-1
 175 291 l 1,130,-1
 140 291 l 1,131,-1
 119 318 l 1,132,-1
 126 352 l 1,126,-1
126 402 m 1,133,-1
 158 417 l 1,134,-1
 189 402 l 1,135,-1
 196 368 l 1,136,-1
 175 341 l 1,137,-1
 140 341 l 1,138,-1
 119 368 l 1,139,-1
 126 402 l 1,133,-1
126 452 m 1,140,-1
 158 467 l 1,141,-1
 189 452 l 1,142,-1
 196 418 l 1,143,-1
 175 391 l 1,144,-1
 140 391 l 1,145,-1
 119 418 l 1,146,-1
 126 452 l 1,140,-1
131 494 m 1,147,-1
 163 510 l 1,148,-1
 194 494 l 1,149,-1
 201 461 l 1,150,-1
 180 433 l 1,151,-1
 145 433 l 1,152,-1
 124 461 l 1,153,-1
 131 494 l 1,147,-1
427 480 m 1,154,-1
 458 495 l 1,155,-1
 490 480 l 1,156,-1
 497 446 l 1,157,-1
 476 419 l 1,158,-1
 441 419 l 1,159,-1
 419 446 l 1,160,-1
 427 480 l 1,154,-1
394 445 m 1,161,-1
 425 461 l 1,162,-1
 456 445 l 1,163,-1
 464 412 l 1,164,-1
 442 385 l 1,165,-1
 408 385 l 1,166,-1
 386 412 l 1,167,-1
 394 445 l 1,161,-1
359 409 m 1,168,-1
 390 424 l 1,169,-1
 421 409 l 1,170,-1
 429 375 l 1,171,-1
 407 348 l 1,172,-1
 373 348 l 1,173,-1
 351 375 l 1,174,-1
 359 409 l 1,168,-1
323 373 m 1,175,-1
 355 388 l 1,176,-1
 386 373 l 1,177,-1
 394 339 l 1,178,-1
 372 312 l 1,179,-1
 337 312 l 1,180,-1
 316 339 l 1,181,-1
 323 373 l 1,175,-1
288 337 m 1,182,-1
 320 352 l 1,183,-1
 351 337 l 1,184,-1
 359 303 l 1,185,-1
 337 276 l 1,186,-1
 302 276 l 1,187,-1
 281 303 l 1,188,-1
 288 337 l 1,182,-1
276 304 m 1,189,-1
 308 320 l 1,190,-1
 339 304 l 1,191,-1
 346 271 l 1,192,-1
 325 243 l 1,193,-1
 290 243 l 1,194,-1
 269 271 l 1,195,-1
 276 304 l 1,189,-1
EndSplineSet
EndChar

StartChar: L
Encoding: 76 76 34
Width: 549
Flags: W
LayerCount: 2
Fore
SplineSet
94 50 m 1,0,-1
 126 65 l 1,1,-1
 157 50 l 1,2,-1
 164 17 l 1,3,-1
 143 -11 l 1,4,-1
 108 -11 l 1,5,-1
 87 17 l 1,6,-1
 94 50 l 1,0,-1
130 83 m 1,7,-1
 161 98 l 1,8,-1
 192 83 l 1,9,-1
 200 49 l 1,10,-1
 178 22 l 1,11,-1
 144 22 l 1,12,-1
 122 49 l 1,13,-1
 130 83 l 1,7,-1
174 105 m 1,14,-1
 205 120 l 1,15,-1
 237 105 l 1,16,-1
 244 71 l 1,17,-1
 223 44 l 1,18,-1
 188 44 l 1,19,-1
 166 71 l 1,20,-1
 174 105 l 1,14,-1
224 115 m 1,21,-1
 255 130 l 1,22,-1
 286 115 l 1,23,-1
 294 81 l 1,24,-1
 272 54 l 1,25,-1
 238 54 l 1,26,-1
 216 81 l 1,27,-1
 224 115 l 1,21,-1
270 114 m 1,28,-1
 302 129 l 1,29,-1
 333 114 l 1,30,-1
 341 80 l 1,31,-1
 319 53 l 1,32,-1
 284 53 l 1,33,-1
 263 80 l 1,34,-1
 270 114 l 1,28,-1
319 104 m 1,35,-1
 351 119 l 1,36,-1
 382 104 l 1,37,-1
 390 70 l 1,38,-1
 368 43 l 1,39,-1
 333 43 l 1,40,-1
 312 70 l 1,41,-1
 319 104 l 1,35,-1
362 82 m 1,42,-1
 394 97 l 1,43,-1
 425 82 l 1,44,-1
 433 49 l 1,45,-1
 411 21 l 1,46,-1
 376 21 l 1,47,-1
 355 49 l 1,48,-1
 362 82 l 1,42,-1
398 47 m 1,49,-1
 429 63 l 1,50,-1
 460 47 l 1,51,-1
 468 14 l 1,52,-1
 447 -13 l 1,53,-1
 412 -13 l 1,54,-1
 390 14 l 1,55,-1
 398 47 l 1,49,-1
45 73 m 1,56,-1
 76 88 l 1,57,-1
 107 73 l 1,58,-1
 115 39 l 1,59,-1
 93 12 l 1,60,-1
 59 12 l 1,61,-1
 37 39 l 1,62,-1
 45 73 l 1,56,-1
76 112 m 1,63,-1
 108 127 l 1,64,-1
 139 112 l 1,65,-1
 147 78 l 1,66,-1
 125 51 l 1,67,-1
 90 51 l 1,68,-1
 69 78 l 1,69,-1
 76 112 l 1,63,-1
108 151 m 1,70,-1
 139 166 l 1,71,-1
 170 151 l 1,72,-1
 178 117 l 1,73,-1
 157 90 l 1,74,-1
 122 90 l 1,75,-1
 100 117 l 1,76,-1
 108 151 l 1,70,-1
140 190 m 1,77,-1
 171 205 l 1,78,-1
 202 190 l 1,79,-1
 210 156 l 1,80,-1
 188 129 l 1,81,-1
 153 129 l 1,82,-1
 132 156 l 1,83,-1
 140 190 l 1,77,-1
171 229 m 1,84,-1
 202 244 l 1,85,-1
 234 229 l 1,86,-1
 241 195 l 1,87,-1
 220 168 l 1,88,-1
 185 168 l 1,89,-1
 163 195 l 1,90,-1
 171 229 l 1,84,-1
203 267 m 1,91,-1
 234 282 l 1,92,-1
 265 267 l 1,93,-1
 273 234 l 1,94,-1
 251 206 l 1,95,-1
 217 206 l 1,96,-1
 195 234 l 1,97,-1
 203 267 l 1,91,-1
234 306 m 1,98,-1
 266 321 l 1,99,-1
 297 306 l 1,100,-1
 305 272 l 1,101,-1
 283 245 l 1,102,-1
 248 245 l 1,103,-1
 227 272 l 1,104,-1
 234 306 l 1,98,-1
266 345 m 1,105,-1
 297 360 l 1,106,-1
 328 345 l 1,107,-1
 336 311 l 1,108,-1
 315 284 l 1,109,-1
 280 284 l 1,110,-1
 258 311 l 1,111,-1
 266 345 l 1,105,-1
298 384 m 1,112,-1
 329 399 l 1,113,-1
 360 384 l 1,114,-1
 368 350 l 1,115,-1
 346 323 l 1,116,-1
 311 323 l 1,117,-1
 290 350 l 1,118,-1
 298 384 l 1,112,-1
329 423 m 1,119,-1
 360 438 l 1,120,-1
 392 423 l 1,121,-1
 399 389 l 1,122,-1
 378 362 l 1,123,-1
 343 362 l 1,124,-1
 321 389 l 1,125,-1
 329 423 l 1,119,-1
344 463 m 1,126,-1
 375 478 l 1,127,-1
 406 463 l 1,128,-1
 414 429 l 1,129,-1
 392 402 l 1,130,-1
 358 402 l 1,131,-1
 336 429 l 1,132,-1
 344 463 l 1,126,-1
370 486 m 1,133,-1
 402 502 l 1,134,-1
 433 486 l 1,135,-1
 440 453 l 1,136,-1
 419 425 l 1,137,-1
 384 425 l 1,138,-1
 363 453 l 1,139,-1
 370 486 l 1,133,-1
19 49 m 1,140,-1
 51 64 l 1,141,-1
 82 49 l 1,142,-1
 89 15 l 1,143,-1
 68 -11 l 1,144,-1
 33 -11 l 1,145,-1
 12 15 l 1,146,-1
 19 49 l 1,140,-1
EndSplineSet
EndChar

StartChar: M
Encoding: 77 77 35
Width: 870
Flags: W
LayerCount: 2
Fore
SplineSet
710 51 m 5,0,-1
 742 66 l 5,1,-1
 773 51 l 5,2,-1
 780 17 l 5,3,-1
 759 -9 l 5,4,-1
 724 -9 l 5,5,-1
 703 17 l 5,6,-1
 710 51 l 5,0,-1
710 101 m 5,7,-1
 742 116 l 5,8,-1
 773 101 l 5,9,-1
 780 67 l 5,10,-1
 759 40 l 5,11,-1
 724 40 l 5,12,-1
 703 67 l 5,13,-1
 710 101 l 5,7,-1
710 151 m 5,14,-1
 742 166 l 5,15,-1
 773 151 l 5,16,-1
 780 117 l 5,17,-1
 759 90 l 5,18,-1
 724 90 l 5,19,-1
 703 117 l 5,20,-1
 710 151 l 5,14,-1
710 201 m 5,21,-1
 742 216 l 5,22,-1
 773 201 l 5,23,-1
 780 167 l 5,24,-1
 759 140 l 5,25,-1
 724 140 l 5,26,-1
 703 167 l 5,27,-1
 710 201 l 5,21,-1
710 251 m 5,28,-1
 742 266 l 5,29,-1
 773 251 l 5,30,-1
 780 217 l 5,31,-1
 759 190 l 5,32,-1
 724 190 l 5,33,-1
 703 217 l 5,34,-1
 710 251 l 5,28,-1
710 301 m 5,35,-1
 742 316 l 5,36,-1
 773 301 l 5,37,-1
 780 267 l 5,38,-1
 759 240 l 5,39,-1
 724 240 l 5,40,-1
 703 267 l 5,41,-1
 710 301 l 5,35,-1
710 351 m 5,42,-1
 742 366 l 5,43,-1
 773 351 l 5,44,-1
 780 317 l 5,45,-1
 759 290 l 5,46,-1
 724 290 l 5,47,-1
 703 317 l 5,48,-1
 710 351 l 5,42,-1
710 401 m 5,49,-1
 742 416 l 5,50,-1
 773 401 l 5,51,-1
 780 367 l 5,52,-1
 759 340 l 5,53,-1
 724 340 l 5,54,-1
 703 367 l 5,55,-1
 710 401 l 5,49,-1
710 451 m 5,56,-1
 742 466 l 5,57,-1
 773 451 l 5,58,-1
 780 417 l 5,59,-1
 759 390 l 5,60,-1
 724 390 l 5,61,-1
 703 417 l 5,62,-1
 710 451 l 5,56,-1
34 38 m 5,63,-1
 66 54 l 5,64,-1
 97 38 l 5,65,-1
 104 5 l 5,66,-1
 83 -22 l 5,67,-1
 48 -22 l 5,68,-1
 27 5 l 5,69,-1
 34 38 l 5,63,-1
39 75 m 5,70,-1
 70 90 l 5,71,-1
 101 75 l 5,72,-1
 109 41 l 5,73,-1
 87 14 l 5,74,-1
 53 14 l 5,75,-1
 31 41 l 5,76,-1
 39 75 l 5,70,-1
70 114 m 5,77,-1
 102 129 l 5,78,-1
 133 114 l 5,79,-1
 141 80 l 5,80,-1
 119 53 l 5,81,-1
 84 53 l 5,82,-1
 63 80 l 5,83,-1
 70 114 l 5,77,-1
102 153 m 5,84,-1
 133 168 l 5,85,-1
 164 153 l 5,86,-1
 172 119 l 5,87,-1
 151 92 l 5,88,-1
 116 92 l 5,89,-1
 94 119 l 5,90,-1
 102 153 l 5,84,-1
134 192 m 5,91,-1
 165 207 l 5,92,-1
 196 192 l 5,93,-1
 204 158 l 5,94,-1
 182 131 l 5,95,-1
 147 131 l 5,96,-1
 126 158 l 5,97,-1
 134 192 l 5,91,-1
165 231 m 5,98,-1
 196 246 l 5,99,-1
 228 231 l 5,100,-1
 235 197 l 5,101,-1
 214 170 l 5,102,-1
 179 170 l 5,103,-1
 157 197 l 5,104,-1
 165 231 l 5,98,-1
197 269 m 5,105,-1
 228 284 l 5,106,-1
 259 269 l 5,107,-1
 267 236 l 5,108,-1
 245 208 l 5,109,-1
 211 208 l 5,110,-1
 189 236 l 5,111,-1
 197 269 l 5,105,-1
228 308 m 5,112,-1
 260 323 l 5,113,-1
 291 308 l 5,114,-1
 299 274 l 5,115,-1
 277 247 l 5,116,-1
 242 247 l 5,117,-1
 221 274 l 5,118,-1
 228 308 l 5,112,-1
260 347 m 5,119,-1
 291 362 l 5,120,-1
 322 347 l 5,121,-1
 330 313 l 5,122,-1
 309 286 l 5,123,-1
 274 286 l 5,124,-1
 252 313 l 5,125,-1
 260 347 l 5,119,-1
292 386 m 5,126,-1
 323 401 l 5,127,-1
 354 386 l 5,128,-1
 362 352 l 5,129,-1
 340 325 l 5,130,-1
 305 325 l 5,131,-1
 284 352 l 5,132,-1
 292 386 l 5,126,-1
323 425 m 5,133,-1
 354 440 l 5,134,-1
 386 425 l 5,135,-1
 393 391 l 5,136,-1
 372 364 l 5,137,-1
 337 364 l 5,138,-1
 315 391 l 5,139,-1
 323 425 l 5,133,-1
338 465 m 5,140,-1
 369 480 l 5,141,-1
 400 465 l 5,142,-1
 408 431 l 5,143,-1
 386 404 l 5,144,-1
 352 404 l 5,145,-1
 330 431 l 5,146,-1
 338 465 l 5,140,-1
383 75 m 5,147,-1
 414 90 l 5,148,-1
 445 75 l 5,149,-1
 453 41 l 5,150,-1
 431 14 l 5,151,-1
 397 14 l 5,152,-1
 375 41 l 5,153,-1
 383 75 l 5,147,-1
414 114 m 5,154,-1
 446 129 l 5,155,-1
 477 114 l 5,156,-1
 485 80 l 5,157,-1
 463 53 l 5,158,-1
 428 53 l 5,159,-1
 407 80 l 5,160,-1
 414 114 l 5,154,-1
446 153 m 5,161,-1
 477 168 l 5,162,-1
 508 153 l 5,163,-1
 516 119 l 5,164,-1
 495 92 l 5,165,-1
 460 92 l 5,166,-1
 438 119 l 5,167,-1
 446 153 l 5,161,-1
478 192 m 5,168,-1
 509 207 l 5,169,-1
 540 192 l 5,170,-1
 548 158 l 5,171,-1
 526 131 l 5,172,-1
 491 131 l 5,173,-1
 470 158 l 5,174,-1
 478 192 l 5,168,-1
509 231 m 5,175,-1
 540 246 l 5,176,-1
 572 231 l 5,177,-1
 579 197 l 5,178,-1
 558 170 l 5,179,-1
 523 170 l 5,180,-1
 501 197 l 5,181,-1
 509 231 l 5,175,-1
541 269 m 5,182,-1
 572 284 l 5,183,-1
 603 269 l 5,184,-1
 611 236 l 5,185,-1
 589 208 l 5,186,-1
 555 208 l 5,187,-1
 533 236 l 5,188,-1
 541 269 l 5,182,-1
572 308 m 5,189,-1
 604 323 l 5,190,-1
 635 308 l 5,191,-1
 643 274 l 5,192,-1
 621 247 l 5,193,-1
 586 247 l 5,194,-1
 565 274 l 5,195,-1
 572 308 l 5,189,-1
604 347 m 5,196,-1
 635 362 l 5,197,-1
 666 347 l 5,198,-1
 674 313 l 5,199,-1
 653 286 l 5,200,-1
 618 286 l 5,201,-1
 596 313 l 5,202,-1
 604 347 l 5,196,-1
636 386 m 5,203,-1
 667 401 l 5,204,-1
 698 386 l 5,205,-1
 706 352 l 5,206,-1
 684 325 l 5,207,-1
 649 325 l 5,208,-1
 628 352 l 5,209,-1
 636 386 l 5,203,-1
667 425 m 5,210,-1
 698 440 l 5,211,-1
 730 425 l 5,212,-1
 737 391 l 5,213,-1
 716 364 l 5,214,-1
 681 364 l 5,215,-1
 659 391 l 5,216,-1
 667 425 l 5,210,-1
682 465 m 5,217,-1
 713 480 l 5,218,-1
 744 465 l 5,219,-1
 752 431 l 5,220,-1
 730 404 l 5,221,-1
 696 404 l 5,222,-1
 674 431 l 5,223,-1
 682 465 l 5,217,-1
708 488 m 5,224,-1
 740 504 l 5,225,-1
 771 488 l 5,226,-1
 778 455 l 5,227,-1
 757 427 l 5,228,-1
 722 427 l 5,229,-1
 701 455 l 5,230,-1
 708 488 l 5,224,-1
357 51 m 5,231,-1
 389 66 l 5,232,-1
 420 51 l 5,233,-1
 427 17 l 5,234,-1
 406 -9 l 5,235,-1
 371 -9 l 5,236,-1
 350 17 l 5,237,-1
 357 51 l 5,231,-1
357 101 m 5,238,-1
 389 116 l 5,239,-1
 420 101 l 5,240,-1
 427 67 l 5,241,-1
 406 40 l 5,242,-1
 371 40 l 5,243,-1
 350 67 l 5,244,-1
 357 101 l 5,238,-1
357 151 m 5,245,-1
 389 166 l 5,246,-1
 420 151 l 5,247,-1
 427 117 l 5,248,-1
 406 90 l 5,249,-1
 371 90 l 5,250,-1
 350 117 l 5,251,-1
 357 151 l 5,245,-1
357 201 m 5,252,-1
 389 216 l 5,253,-1
 420 201 l 5,254,-1
 427 167 l 5,255,-1
 406 140 l 5,256,-1
 371 140 l 5,257,-1
 350 167 l 5,258,-1
 357 201 l 5,252,-1
357 251 m 5,259,-1
 389 266 l 5,260,-1
 420 251 l 5,261,-1
 427 217 l 5,262,-1
 406 190 l 5,263,-1
 371 190 l 5,264,-1
 350 217 l 5,265,-1
 357 251 l 5,259,-1
357 301 m 5,266,-1
 389 316 l 5,267,-1
 420 301 l 5,268,-1
 427 267 l 5,269,-1
 406 240 l 5,270,-1
 371 240 l 5,271,-1
 350 267 l 5,272,-1
 357 301 l 5,266,-1
357 351 m 5,273,-1
 389 366 l 5,274,-1
 420 351 l 5,275,-1
 427 317 l 5,276,-1
 406 290 l 5,277,-1
 371 290 l 5,278,-1
 350 317 l 5,279,-1
 357 351 l 5,273,-1
357 401 m 5,280,-1
 389 416 l 5,281,-1
 420 401 l 5,282,-1
 427 367 l 5,283,-1
 406 340 l 5,284,-1
 371 340 l 5,285,-1
 350 367 l 5,286,-1
 357 401 l 5,280,-1
357 451 m 5,287,-1
 389 466 l 5,288,-1
 420 451 l 5,289,-1
 427 417 l 5,290,-1
 406 390 l 5,291,-1
 371 390 l 5,292,-1
 350 417 l 5,293,-1
 357 451 l 5,287,-1
367 488 m 5,294,-1
 399 504 l 5,295,-1
 430 488 l 5,296,-1
 437 455 l 5,297,-1
 416 427 l 5,298,-1
 381 427 l 5,299,-1
 360 455 l 5,300,-1
 367 488 l 5,294,-1
EndSplineSet
EndChar

StartChar: N
Encoding: 78 78 36
Width: 568
Flags: W
LayerCount: 2
Fore
SplineSet
58 423 m 5,0,-1
 90 439 l 5,1,-1
 121 423 l 5,2,-1
 128 390 l 5,3,-1
 107 362 l 5,4,-1
 72 362 l 5,5,-1
 51 390 l 5,6,-1
 58 423 l 5,0,-1
156 423 m 5,7,-1
 187 439 l 5,8,-1
 218 423 l 5,9,-1
 226 390 l 5,10,-1
 204 362 l 5,11,-1
 170 362 l 5,12,-1
 148 390 l 5,13,-1
 156 423 l 5,7,-1
252 403 m 5,14,-1
 283 418 l 5,15,-1
 314 403 l 5,16,-1
 322 369 l 5,17,-1
 300 342 l 5,18,-1
 266 342 l 5,19,-1
 244 369 l 5,20,-1
 252 403 l 5,14,-1
292 375 m 5,21,-1
 324 390 l 5,22,-1
 355 375 l 5,23,-1
 363 341 l 5,24,-1
 341 314 l 5,25,-1
 306 314 l 5,26,-1
 285 341 l 5,27,-1
 292 375 l 5,21,-1
323 340 m 5,28,-1
 354 355 l 5,29,-1
 386 340 l 5,30,-1
 393 306 l 5,31,-1
 372 279 l 5,32,-1
 337 279 l 5,33,-1
 315 306 l 5,34,-1
 323 340 l 5,28,-1
346 295 m 5,35,-1
 378 310 l 5,36,-1
 409 295 l 5,37,-1
 417 261 l 5,38,-1
 395 234 l 5,39,-1
 360 234 l 5,40,-1
 339 261 l 5,41,-1
 346 295 l 5,35,-1
368 245 m 5,42,-1
 399 260 l 5,43,-1
 431 245 l 5,44,-1
 438 212 l 5,45,-1
 417 184 l 5,46,-1
 382 184 l 5,47,-1
 360 212 l 5,48,-1
 368 245 l 5,42,-1
386 197 m 5,49,-1
 417 212 l 5,50,-1
 449 197 l 5,51,-1
 456 163 l 5,52,-1
 435 136 l 5,53,-1
 400 136 l 5,54,-1
 378 163 l 5,55,-1
 386 197 l 5,49,-1
125 422 m 5,56,-1
 156 437 l 5,57,-1
 187 422 l 5,58,-1
 195 388 l 5,59,-1
 173 361 l 5,60,-1
 139 361 l 5,61,-1
 117 388 l 5,62,-1
 125 422 l 5,56,-1
188 408 m 5,63,-1
 220 424 l 5,64,-1
 251 408 l 5,65,-1
 258 375 l 5,66,-1
 237 347 l 5,67,-1
 202 347 l 5,68,-1
 181 375 l 5,69,-1
 188 408 l 5,63,-1
413 494 m 5,70,-1
 445 510 l 5,71,-1
 476 494 l 5,72,-1
 483 461 l 5,73,-1
 462 433 l 5,74,-1
 427 433 l 5,75,-1
 406 461 l 5,76,-1
 413 494 l 5,70,-1
413 57 m 5,77,-1
 445 72 l 5,78,-1
 476 57 l 5,79,-1
 483 23 l 5,80,-1
 462 -3 l 5,81,-1
 427 -3 l 5,82,-1
 406 23 l 5,83,-1
 413 57 l 5,77,-1
413 107 m 5,84,-1
 445 122 l 5,85,-1
 476 107 l 5,86,-1
 483 73 l 5,87,-1
 462 46 l 5,88,-1
 427 46 l 5,89,-1
 406 73 l 5,90,-1
 413 107 l 5,84,-1
413 157 m 5,91,-1
 445 172 l 5,92,-1
 476 157 l 5,93,-1
 483 123 l 5,94,-1
 462 96 l 5,95,-1
 427 96 l 5,96,-1
 406 123 l 5,97,-1
 413 157 l 5,91,-1
413 207 m 5,98,-1
 445 222 l 5,99,-1
 476 207 l 5,100,-1
 483 173 l 5,101,-1
 462 146 l 5,102,-1
 427 146 l 5,103,-1
 406 173 l 5,104,-1
 413 207 l 5,98,-1
410 256 m 5,105,-1
 442 271 l 5,106,-1
 473 256 l 5,107,-1
 481 222 l 5,108,-1
 459 195 l 5,109,-1
 424 195 l 5,110,-1
 403 222 l 5,111,-1
 410 256 l 5,105,-1
98 242 m 5,112,-1
 130 257 l 5,113,-1
 161 242 l 5,114,-1
 168 208 l 5,115,-1
 147 181 l 5,116,-1
 112 181 l 5,117,-1
 91 208 l 5,118,-1
 98 242 l 5,112,-1
98 192 m 5,119,-1
 130 207 l 5,120,-1
 161 192 l 5,121,-1
 168 158 l 5,122,-1
 147 131 l 5,123,-1
 112 131 l 5,124,-1
 91 158 l 5,125,-1
 98 192 l 5,119,-1
98 142 m 5,126,-1
 130 157 l 5,127,-1
 161 142 l 5,128,-1
 168 108 l 5,129,-1
 147 81 l 5,130,-1
 112 81 l 5,131,-1
 91 108 l 5,132,-1
 98 142 l 5,126,-1
98 92 m 5,133,-1
 130 107 l 5,134,-1
 161 92 l 5,135,-1
 168 58 l 5,136,-1
 147 31 l 5,137,-1
 112 31 l 5,138,-1
 91 58 l 5,139,-1
 98 92 l 5,133,-1
98 44 m 5,140,-1
 130 60 l 5,141,-1
 161 44 l 5,142,-1
 168 11 l 5,143,-1
 147 -16 l 5,144,-1
 112 -16 l 5,145,-1
 91 11 l 5,146,-1
 98 44 l 5,140,-1
98 482 m 5,147,-1
 130 497 l 5,148,-1
 161 482 l 5,149,-1
 168 448 l 5,150,-1
 147 421 l 5,151,-1
 112 421 l 5,152,-1
 91 448 l 5,153,-1
 98 482 l 5,147,-1
98 432 m 5,154,-1
 130 447 l 5,155,-1
 161 432 l 5,156,-1
 168 398 l 5,157,-1
 147 371 l 5,158,-1
 112 371 l 5,159,-1
 91 398 l 5,160,-1
 98 432 l 5,154,-1
98 382 m 5,161,-1
 130 397 l 5,162,-1
 161 382 l 5,163,-1
 168 348 l 5,164,-1
 147 321 l 5,165,-1
 112 321 l 5,166,-1
 91 348 l 5,167,-1
 98 382 l 5,161,-1
98 332 m 5,168,-1
 130 347 l 5,169,-1
 161 332 l 5,170,-1
 168 298 l 5,171,-1
 147 271 l 5,172,-1
 112 271 l 5,173,-1
 91 298 l 5,174,-1
 98 332 l 5,168,-1
104 286 m 5,175,-1
 135 301 l 5,176,-1
 166 286 l 5,177,-1
 174 252 l 5,178,-1
 152 225 l 5,179,-1
 118 225 l 5,180,-1
 96 252 l 5,181,-1
 104 286 l 5,175,-1
413 317 m 5,182,-1
 445 332 l 5,183,-1
 476 317 l 5,184,-1
 483 283 l 5,185,-1
 462 256 l 5,186,-1
 427 256 l 5,187,-1
 406 283 l 5,188,-1
 413 317 l 5,182,-1
413 367 m 5,189,-1
 445 382 l 5,190,-1
 476 367 l 5,191,-1
 483 333 l 5,192,-1
 462 306 l 5,193,-1
 427 306 l 5,194,-1
 406 333 l 5,195,-1
 413 367 l 5,189,-1
413 417 m 5,196,-1
 445 432 l 5,197,-1
 476 417 l 5,198,-1
 483 383 l 5,199,-1
 462 356 l 5,200,-1
 427 356 l 5,201,-1
 406 383 l 5,202,-1
 413 417 l 5,196,-1
413 467 m 5,203,-1
 445 482 l 5,204,-1
 476 467 l 5,205,-1
 483 433 l 5,206,-1
 462 406 l 5,207,-1
 427 406 l 5,208,-1
 406 433 l 5,209,-1
 413 467 l 5,203,-1
EndSplineSet
EndChar

StartChar: O
Encoding: 79 79 37
Width: 585
Flags: W
LayerCount: 2
Fore
SplineSet
253 499 m 1,0,-1
 284 515 l 1,1,-1
 315 499 l 1,2,-1
 323 466 l 1,3,-1
 301 438 l 1,4,-1
 267 438 l 1,5,-1
 245 466 l 1,6,-1
 253 499 l 1,0,-1
349 479 m 1,7,-1
 380 494 l 1,8,-1
 411 479 l 1,9,-1
 419 445 l 1,10,-1
 397 418 l 1,11,-1
 363 418 l 1,12,-1
 341 445 l 1,13,-1
 349 479 l 1,7,-1
389 451 m 1,14,-1
 421 466 l 1,15,-1
 452 451 l 1,16,-1
 460 417 l 1,17,-1
 438 390 l 1,18,-1
 403 390 l 1,19,-1
 382 417 l 1,20,-1
 389 451 l 1,14,-1
420 416 m 1,21,-1
 451 431 l 1,22,-1
 483 416 l 1,23,-1
 490 382 l 1,24,-1
 469 355 l 1,25,-1
 434 355 l 1,26,-1
 412 382 l 1,27,-1
 420 416 l 1,21,-1
443 371 m 1,28,-1
 475 386 l 1,29,-1
 506 371 l 1,30,-1
 514 337 l 1,31,-1
 492 310 l 1,32,-1
 457 310 l 1,33,-1
 436 337 l 1,34,-1
 443 371 l 1,28,-1
456 321 m 1,35,-1
 487 336 l 1,36,-1
 519 321 l 1,37,-1
 526 288 l 1,38,-1
 505 260 l 1,39,-1
 470 260 l 1,40,-1
 448 288 l 1,41,-1
 456 321 l 1,35,-1
460 273 m 1,42,-1
 491 288 l 1,43,-1
 523 273 l 1,44,-1
 530 239 l 1,45,-1
 509 212 l 1,46,-1
 474 212 l 1,47,-1
 452 239 l 1,48,-1
 460 273 l 1,42,-1
458 226 m 1,49,-1
 490 241 l 1,50,-1
 521 226 l 1,51,-1
 529 192 l 1,52,-1
 507 165 l 1,53,-1
 472 165 l 1,54,-1
 451 192 l 1,55,-1
 458 226 l 1,49,-1
449 176 m 1,56,-1
 480 191 l 1,57,-1
 512 176 l 1,58,-1
 519 142 l 1,59,-1
 498 115 l 1,60,-1
 463 115 l 1,61,-1
 441 142 l 1,62,-1
 449 176 l 1,56,-1
430 129 m 1,63,-1
 462 145 l 1,64,-1
 493 129 l 1,65,-1
 501 96 l 1,66,-1
 479 69 l 1,67,-1
 444 69 l 1,68,-1
 423 96 l 1,69,-1
 430 129 l 1,63,-1
402 91 m 1,70,-1
 433 106 l 1,71,-1
 465 91 l 1,72,-1
 472 57 l 1,73,-1
 451 30 l 1,74,-1
 416 30 l 1,75,-1
 394 57 l 1,76,-1
 402 91 l 1,70,-1
363 61 m 1,77,-1
 394 76 l 1,78,-1
 426 61 l 1,79,-1
 433 27 l 1,80,-1
 412 0 l 1,81,-1
 377 0 l 1,82,-1
 355 27 l 1,83,-1
 363 61 l 1,77,-1
316 42 m 1,84,-1
 347 57 l 1,85,-1
 379 42 l 1,86,-1
 386 8 l 1,87,-1
 365 -18 l 1,88,-1
 330 -18 l 1,89,-1
 308 8 l 1,90,-1
 316 42 l 1,84,-1
269 35 m 1,91,-1
 300 50 l 1,92,-1
 331 35 l 1,93,-1
 339 1 l 1,94,-1
 318 -25 l 1,95,-1
 283 -25 l 1,96,-1
 261 1 l 1,97,-1
 269 35 l 1,91,-1
221 36 m 1,98,-1
 252 51 l 1,99,-1
 284 36 l 1,100,-1
 291 2 l 1,101,-1
 270 -24 l 1,102,-1
 235 -24 l 1,103,-1
 213 2 l 1,104,-1
 221 36 l 1,98,-1
171 47 m 1,105,-1
 203 62 l 1,106,-1
 234 47 l 1,107,-1
 242 14 l 1,108,-1
 220 -13 l 1,109,-1
 185 -13 l 1,110,-1
 164 14 l 1,111,-1
 171 47 l 1,105,-1
127 70 m 1,112,-1
 158 86 l 1,113,-1
 190 70 l 1,114,-1
 197 37 l 1,115,-1
 176 9 l 1,116,-1
 141 9 l 1,117,-1
 119 37 l 1,118,-1
 127 70 l 1,112,-1
93 103 m 1,119,-1
 125 118 l 1,120,-1
 156 103 l 1,121,-1
 163 69 l 1,122,-1
 142 42 l 1,123,-1
 107 42 l 1,124,-1
 86 69 l 1,125,-1
 93 103 l 1,119,-1
67 145 m 1,126,-1
 98 160 l 1,127,-1
 130 145 l 1,128,-1
 137 112 l 1,129,-1
 116 84 l 1,130,-1
 81 84 l 1,131,-1
 59 112 l 1,132,-1
 67 145 l 1,126,-1
52 193 m 1,133,-1
 83 208 l 1,134,-1
 115 193 l 1,135,-1
 122 159 l 1,136,-1
 101 132 l 1,137,-1
 66 132 l 1,138,-1
 44 159 l 1,139,-1
 52 193 l 1,133,-1
46 242 m 1,140,-1
 77 257 l 1,141,-1
 108 242 l 1,142,-1
 116 208 l 1,143,-1
 94 181 l 1,144,-1
 60 181 l 1,145,-1
 38 208 l 1,146,-1
 46 242 l 1,140,-1
46 290 m 1,147,-1
 77 305 l 1,148,-1
 109 290 l 1,149,-1
 116 256 l 1,150,-1
 95 229 l 1,151,-1
 60 229 l 1,152,-1
 38 256 l 1,153,-1
 46 290 l 1,147,-1
53 339 m 1,154,-1
 84 354 l 1,155,-1
 115 339 l 1,156,-1
 123 305 l 1,157,-1
 101 278 l 1,158,-1
 67 278 l 1,159,-1
 45 305 l 1,160,-1
 53 339 l 1,154,-1
68 385 m 1,161,-1
 99 401 l 1,162,-1
 131 385 l 1,163,-1
 138 352 l 1,164,-1
 117 325 l 1,165,-1
 82 325 l 1,166,-1
 60 352 l 1,167,-1
 68 385 l 1,161,-1
95 428 m 1,168,-1
 126 443 l 1,169,-1
 157 428 l 1,170,-1
 165 394 l 1,171,-1
 143 367 l 1,172,-1
 109 367 l 1,173,-1
 87 394 l 1,174,-1
 95 428 l 1,168,-1
130 463 m 1,175,-1
 161 478 l 1,176,-1
 192 463 l 1,177,-1
 200 429 l 1,178,-1
 179 402 l 1,179,-1
 144 402 l 1,180,-1
 122 429 l 1,181,-1
 130 463 l 1,175,-1
222 498 m 1,182,-1
 253 513 l 1,183,-1
 284 498 l 1,184,-1
 292 464 l 1,185,-1
 270 437 l 1,186,-1
 236 437 l 1,187,-1
 214 464 l 1,188,-1
 222 498 l 1,182,-1
188 499 m 1,189,-1
 219 515 l 1,190,-1
 250 499 l 1,191,-1
 258 466 l 1,192,-1
 236 438 l 1,193,-1
 202 438 l 1,194,-1
 180 466 l 1,195,-1
 188 499 l 1,189,-1
155 499 m 1,196,-1
 187 515 l 1,197,-1
 218 499 l 1,198,-1
 225 466 l 1,199,-1
 204 438 l 1,200,-1
 169 438 l 1,201,-1
 148 466 l 1,202,-1
 155 499 l 1,196,-1
285 484 m 1,203,-1
 317 500 l 1,204,-1
 348 484 l 1,205,-1
 355 451 l 1,206,-1
 334 423 l 1,207,-1
 299 423 l 1,208,-1
 278 451 l 1,209,-1
 285 484 l 1,203,-1
EndSplineSet
EndChar

StartChar: P
Encoding: 80 80 38
Width: 526
Flags: W
LayerCount: 2
Fore
SplineSet
384 197 m 1,0,-1
 416 212 l 1,1,-1
 447 197 l 1,2,-1
 455 163 l 1,3,-1
 433 136 l 1,4,-1
 398 136 l 1,5,-1
 377 163 l 1,6,-1
 384 197 l 1,0,-1
356 238 m 1,7,-1
 387 253 l 1,8,-1
 418 238 l 1,9,-1
 426 204 l 1,10,-1
 404 177 l 1,11,-1
 370 177 l 1,12,-1
 348 204 l 1,13,-1
 356 238 l 1,7,-1
327 279 m 1,14,-1
 358 294 l 1,15,-1
 389 279 l 1,16,-1
 397 245 l 1,17,-1
 375 218 l 1,18,-1
 341 218 l 1,19,-1
 319 245 l 1,20,-1
 327 279 l 1,14,-1
297 318 m 1,21,-1
 328 333 l 1,22,-1
 360 318 l 1,23,-1
 367 284 l 1,24,-1
 346 257 l 1,25,-1
 311 257 l 1,26,-1
 289 284 l 1,27,-1
 297 318 l 1,21,-1
237 494 m 1,28,-1
 269 510 l 1,29,-1
 300 494 l 1,30,-1
 307 461 l 1,31,-1
 286 433 l 1,32,-1
 251 433 l 1,33,-1
 230 461 l 1,34,-1
 237 494 l 1,28,-1
288 488 m 1,35,-1
 319 503 l 1,36,-1
 351 488 l 1,37,-1
 358 454 l 1,38,-1
 337 427 l 1,39,-1
 302 427 l 1,40,-1
 280 454 l 1,41,-1
 288 488 l 1,35,-1
333 466 m 1,42,-1
 365 482 l 1,43,-1
 396 466 l 1,44,-1
 404 433 l 1,45,-1
 382 406 l 1,46,-1
 347 406 l 1,47,-1
 326 433 l 1,48,-1
 333 466 l 1,42,-1
363 432 m 1,49,-1
 394 447 l 1,50,-1
 425 432 l 1,51,-1
 433 398 l 1,52,-1
 411 371 l 1,53,-1
 377 371 l 1,54,-1
 355 398 l 1,55,-1
 363 432 l 1,49,-1
377 383 m 1,56,-1
 408 398 l 1,57,-1
 439 383 l 1,58,-1
 447 349 l 1,59,-1
 425 322 l 1,60,-1
 390 322 l 1,61,-1
 369 349 l 1,62,-1
 377 383 l 1,56,-1
374 336 m 1,63,-1
 406 351 l 1,64,-1
 437 336 l 1,65,-1
 445 302 l 1,66,-1
 423 275 l 1,67,-1
 388 275 l 1,68,-1
 367 302 l 1,69,-1
 374 336 l 1,63,-1
356 290 m 1,70,-1
 387 306 l 1,71,-1
 418 290 l 1,72,-1
 426 257 l 1,73,-1
 404 229 l 1,74,-1
 370 229 l 1,75,-1
 348 257 l 1,76,-1
 356 290 l 1,70,-1
320 259 m 1,77,-1
 351 274 l 1,78,-1
 383 259 l 1,79,-1
 390 225 l 1,80,-1
 369 198 l 1,81,-1
 334 198 l 1,82,-1
 312 225 l 1,83,-1
 320 259 l 1,77,-1
274 243 m 1,84,-1
 305 258 l 1,85,-1
 336 243 l 1,86,-1
 344 209 l 1,87,-1
 322 182 l 1,88,-1
 288 182 l 1,89,-1
 266 209 l 1,90,-1
 274 243 l 1,84,-1
225 239 m 1,91,-1
 256 255 l 1,92,-1
 287 239 l 1,93,-1
 295 206 l 1,94,-1
 273 178 l 1,95,-1
 239 178 l 1,96,-1
 217 206 l 1,97,-1
 225 239 l 1,91,-1
175 239 m 1,98,-1
 206 255 l 1,99,-1
 237 239 l 1,100,-1
 245 206 l 1,101,-1
 223 178 l 1,102,-1
 189 178 l 1,103,-1
 167 206 l 1,104,-1
 175 239 l 1,98,-1
82 54 m 1,105,-1
 114 70 l 1,106,-1
 145 54 l 1,107,-1
 152 21 l 1,108,-1
 131 -6 l 1,109,-1
 96 -6 l 1,110,-1
 75 21 l 1,111,-1
 82 54 l 1,105,-1
82 104 m 1,112,-1
 114 120 l 1,113,-1
 145 104 l 1,114,-1
 152 71 l 1,115,-1
 131 43 l 1,116,-1
 96 43 l 1,117,-1
 75 71 l 1,118,-1
 82 104 l 1,112,-1
82 154 m 1,119,-1
 114 170 l 1,120,-1
 145 154 l 1,121,-1
 152 121 l 1,122,-1
 131 93 l 1,123,-1
 96 93 l 1,124,-1
 75 121 l 1,125,-1
 82 154 l 1,119,-1
82 204 m 1,126,-1
 114 220 l 1,127,-1
 145 204 l 1,128,-1
 152 171 l 1,129,-1
 131 143 l 1,130,-1
 96 143 l 1,131,-1
 75 171 l 1,132,-1
 82 204 l 1,126,-1
82 254 m 1,133,-1
 114 270 l 1,134,-1
 145 254 l 1,135,-1
 152 221 l 1,136,-1
 131 193 l 1,137,-1
 96 193 l 1,138,-1
 75 221 l 1,139,-1
 82 254 l 1,133,-1
82 304 m 1,140,-1
 114 320 l 1,141,-1
 145 304 l 1,142,-1
 152 271 l 1,143,-1
 131 243 l 1,144,-1
 96 243 l 1,145,-1
 75 271 l 1,146,-1
 82 304 l 1,140,-1
82 354 m 1,147,-1
 114 370 l 1,148,-1
 145 354 l 1,149,-1
 152 321 l 1,150,-1
 131 293 l 1,151,-1
 96 293 l 1,152,-1
 75 321 l 1,153,-1
 82 354 l 1,147,-1
82 404 m 1,154,-1
 114 420 l 1,155,-1
 145 404 l 1,156,-1
 152 371 l 1,157,-1
 131 343 l 1,158,-1
 96 343 l 1,159,-1
 75 371 l 1,160,-1
 82 404 l 1,154,-1
82 454 m 1,161,-1
 114 470 l 1,162,-1
 145 454 l 1,163,-1
 152 421 l 1,164,-1
 131 393 l 1,165,-1
 96 393 l 1,166,-1
 75 421 l 1,167,-1
 82 454 l 1,161,-1
90 494 m 1,168,-1
 121 510 l 1,169,-1
 152 494 l 1,170,-1
 160 461 l 1,171,-1
 138 433 l 1,172,-1
 104 433 l 1,173,-1
 82 461 l 1,174,-1
 90 494 l 1,168,-1
140 494 m 1,175,-1
 171 510 l 1,176,-1
 202 494 l 1,177,-1
 210 461 l 1,178,-1
 188 433 l 1,179,-1
 154 433 l 1,180,-1
 132 461 l 1,181,-1
 140 494 l 1,175,-1
190 494 m 1,182,-1
 221 510 l 1,183,-1
 252 494 l 1,184,-1
 260 461 l 1,185,-1
 238 433 l 1,186,-1
 204 433 l 1,187,-1
 182 461 l 1,188,-1
 190 494 l 1,182,-1
237 494 m 1,189,-1
 269 510 l 1,190,-1
 300 494 l 1,191,-1
 307 461 l 1,192,-1
 286 433 l 1,193,-1
 251 433 l 1,194,-1
 230 461 l 1,195,-1
 237 494 l 1,189,-1
122 249 m 1,196,-1
 154 265 l 1,197,-1
 185 249 l 1,198,-1
 192 216 l 1,199,-1
 171 188 l 1,200,-1
 136 188 l 1,201,-1
 115 216 l 1,202,-1
 122 249 l 1,196,-1
EndSplineSet
EndChar

StartChar: Q
Encoding: 81 81 39
Width: 602
Flags: W
LayerCount: 2
Fore
SplineSet
256 126 m 1,0,-1
 287 141 l 1,1,-1
 318 126 l 1,2,-1
 326 93 l 1,3,-1
 304 66 l 1,4,-1
 270 66 l 1,5,-1
 248 93 l 1,6,-1
 256 126 l 1,0,-1
253 81 m 1,7,-1
 284 96 l 1,8,-1
 315 81 l 1,9,-1
 323 48 l 1,10,-1
 301 21 l 1,11,-1
 267 21 l 1,12,-1
 245 48 l 1,13,-1
 253 81 l 1,7,-1
459 -80 m 1,14,-1
 491 -65 l 1,15,-1
 522 -80 l 1,16,-1
 530 -113 l 1,17,-1
 508 -141 l 1,18,-1
 473 -141 l 1,19,-1
 452 -113 l 1,20,-1
 459 -80 l 1,14,-1
414 -93 m 1,21,-1
 445 -78 l 1,22,-1
 477 -93 l 1,23,-1
 484 -127 l 1,24,-1
 463 -154 l 1,25,-1
 428 -154 l 1,26,-1
 406 -127 l 1,27,-1
 414 -93 l 1,21,-1
367 -94 m 1,28,-1
 398 -79 l 1,29,-1
 429 -94 l 1,30,-1
 437 -128 l 1,31,-1
 415 -155 l 1,32,-1
 381 -155 l 1,33,-1
 359 -128 l 1,34,-1
 367 -94 l 1,28,-1
320 -85 m 1,35,-1
 352 -70 l 1,36,-1
 383 -85 l 1,37,-1
 390 -118 l 1,38,-1
 369 -146 l 1,39,-1
 334 -146 l 1,40,-1
 313 -118 l 1,41,-1
 320 -85 l 1,35,-1
282 -52 m 1,42,-1
 313 -37 l 1,43,-1
 345 -52 l 1,44,-1
 352 -86 l 1,45,-1
 331 -113 l 1,46,-1
 296 -113 l 1,47,-1
 274 -86 l 1,48,-1
 282 -52 l 1,42,-1
264 -11 m 1,49,-1
 295 3 l 1,50,-1
 327 -11 l 1,51,-1
 334 -45 l 1,52,-1
 313 -72 l 1,53,-1
 278 -72 l 1,54,-1
 256 -45 l 1,55,-1
 264 -11 l 1,49,-1
253 27 m 1,56,-1
 284 42 l 1,57,-1
 315 27 l 1,58,-1
 323 -6 l 1,59,-1
 301 -33 l 1,60,-1
 267 -33 l 1,61,-1
 245 -6 l 1,62,-1
 253 27 l 1,56,-1
212 43 m 1,63,-1
 244 58 l 1,64,-1
 275 43 l 1,65,-1
 283 9 l 1,66,-1
 261 -17 l 1,67,-1
 226 -17 l 1,68,-1
 205 9 l 1,69,-1
 212 43 l 1,63,-1
165 58 m 5,70,-1
 196 73 l 5,71,-1
 228 58 l 5,72,-1
 235 24 l 5,73,-1
 214 -2 l 5,74,-1
 179 -2 l 5,75,-1
 157 24 l 5,76,-1
 165 58 l 5,70,-1
123 86 m 5,77,-1
 154 101 l 5,78,-1
 186 86 l 5,79,-1
 193 52 l 5,80,-1
 172 25 l 5,81,-1
 137 25 l 5,82,-1
 115 52 l 5,83,-1
 123 86 l 5,77,-1
94 121 m 5,84,-1
 125 136 l 5,85,-1
 156 121 l 5,86,-1
 164 87 l 5,87,-1
 142 60 l 5,88,-1
 107 60 l 5,89,-1
 86 87 l 5,90,-1
 94 121 l 5,84,-1
71 167 m 5,91,-1
 103 182 l 5,92,-1
 134 167 l 5,93,-1
 142 133 l 5,94,-1
 120 106 l 5,95,-1
 85 106 l 5,96,-1
 64 133 l 5,97,-1
 71 167 l 5,91,-1
59 217 m 5,98,-1
 90 232 l 5,99,-1
 122 217 l 5,100,-1
 129 183 l 5,101,-1
 108 156 l 5,102,-1
 73 156 l 5,103,-1
 51 183 l 5,104,-1
 59 217 l 5,98,-1
55 267 m 5,105,-1
 87 282 l 5,106,-1
 118 267 l 5,107,-1
 126 233 l 5,108,-1
 104 206 l 5,109,-1
 69 206 l 5,110,-1
 48 233 l 5,111,-1
 55 267 l 5,105,-1
58 314 m 5,112,-1
 89 329 l 5,113,-1
 120 314 l 5,114,-1
 128 280 l 5,115,-1
 106 253 l 5,116,-1
 72 253 l 5,117,-1
 50 280 l 5,118,-1
 58 314 l 5,112,-1
68 362 m 5,119,-1
 99 377 l 5,120,-1
 130 362 l 5,121,-1
 138 329 l 5,122,-1
 116 301 l 5,123,-1
 81 301 l 5,124,-1
 60 329 l 5,125,-1
 68 362 l 5,119,-1
87 408 m 5,126,-1
 119 423 l 5,127,-1
 150 408 l 5,128,-1
 158 374 l 5,129,-1
 136 347 l 5,130,-1
 101 347 l 5,131,-1
 80 374 l 5,132,-1
 87 408 l 5,126,-1
115 445 m 5,133,-1
 146 460 l 5,134,-1
 177 445 l 5,135,-1
 185 411 l 5,136,-1
 163 384 l 5,137,-1
 129 384 l 5,138,-1
 107 411 l 5,139,-1
 115 445 l 5,133,-1
155 477 m 5,140,-1
 186 493 l 5,141,-1
 217 477 l 5,142,-1
 225 444 l 5,143,-1
 203 417 l 5,144,-1
 169 417 l 5,145,-1
 147 444 l 5,146,-1
 155 477 l 5,140,-1
201 497 m 5,147,-1
 232 512 l 5,148,-1
 263 497 l 5,149,-1
 271 463 l 5,150,-1
 250 436 l 5,151,-1
 215 436 l 5,152,-1
 193 463 l 5,153,-1
 201 497 l 5,147,-1
250 504 m 5,154,-1
 281 519 l 5,155,-1
 312 504 l 5,156,-1
 320 470 l 5,157,-1
 298 443 l 5,158,-1
 263 443 l 5,159,-1
 242 470 l 5,160,-1
 250 504 l 5,154,-1
296 502 m 5,161,-1
 327 517 l 5,162,-1
 359 502 l 5,163,-1
 366 469 l 5,164,-1
 345 441 l 5,165,-1
 310 441 l 5,166,-1
 288 469 l 5,167,-1
 296 502 l 5,161,-1
344 490 m 5,168,-1
 376 505 l 5,169,-1
 407 490 l 5,170,-1
 415 456 l 5,171,-1
 393 429 l 5,172,-1
 358 429 l 5,173,-1
 337 456 l 5,174,-1
 344 490 l 5,168,-1
387 466 m 5,175,-1
 419 481 l 5,176,-1
 450 466 l 5,177,-1
 458 432 l 5,178,-1
 436 405 l 5,179,-1
 401 405 l 5,180,-1
 380 432 l 5,181,-1
 387 466 l 5,175,-1
422 431 m 5,182,-1
 453 446 l 5,183,-1
 485 431 l 5,184,-1
 492 397 l 5,185,-1
 471 370 l 5,186,-1
 436 370 l 5,187,-1
 415 397 l 5,188,-1
 422 431 l 5,182,-1
448 388 m 5,189,-1
 480 404 l 5,190,-1
 511 388 l 5,191,-1
 519 355 l 5,192,-1
 497 327 l 5,193,-1
 462 327 l 5,194,-1
 441 355 l 5,195,-1
 448 388 l 5,189,-1
463 341 m 5,196,-1
 495 356 l 5,197,-1
 526 341 l 5,198,-1
 534 307 l 5,199,-1
 512 280 l 5,200,-1
 477 280 l 5,201,-1
 456 307 l 5,202,-1
 463 341 l 5,196,-1
470 292 m 1,203,-1
 501 307 l 1,204,-1
 532 292 l 1,205,-1
 540 258 l 1,206,-1
 518 231 l 1,207,-1
 484 231 l 1,208,-1
 462 258 l 1,209,-1
 470 292 l 1,203,-1
469 245 m 1,210,-1
 501 260 l 1,211,-1
 532 245 l 1,212,-1
 540 211 l 1,213,-1
 518 184 l 1,214,-1
 483 184 l 1,215,-1
 462 211 l 1,216,-1
 469 245 l 1,210,-1
462 195 m 1,217,-1
 493 210 l 1,218,-1
 525 195 l 1,219,-1
 532 161 l 1,220,-1
 511 134 l 1,221,-1
 476 134 l 1,222,-1
 454 161 l 1,223,-1
 462 195 l 1,217,-1
446 147 m 1,224,-1
 477 162 l 1,225,-1
 509 147 l 1,226,-1
 516 114 l 1,227,-1
 495 86 l 1,228,-1
 460 86 l 1,229,-1
 438 114 l 1,230,-1
 446 147 l 1,224,-1
422 106 m 1,231,-1
 453 121 l 1,232,-1
 484 106 l 1,233,-1
 492 72 l 1,234,-1
 470 45 l 1,235,-1
 436 45 l 1,236,-1
 414 72 l 1,237,-1
 422 106 l 1,231,-1
387 72 m 1,238,-1
 418 87 l 1,239,-1
 450 72 l 1,240,-1
 457 38 l 1,241,-1
 436 11 l 1,242,-1
 401 11 l 1,243,-1
 379 38 l 1,244,-1
 387 72 l 1,238,-1
342 50 m 1,245,-1
 374 65 l 1,246,-1
 405 50 l 1,247,-1
 413 16 l 1,248,-1
 391 -10 l 1,249,-1
 356 -10 l 1,250,-1
 335 16 l 1,251,-1
 342 50 l 1,245,-1
293 40 m 1,252,-1
 325 55 l 1,253,-1
 356 40 l 1,254,-1
 364 6 l 1,255,-1
 342 -20 l 1,256,-1
 307 -20 l 1,257,-1
 286 6 l 1,258,-1
 293 40 l 1,252,-1
EndSplineSet
EndChar

StartChar: R
Encoding: 82 82 40
Width: 518
Flags: W
LayerCount: 2
Fore
SplineSet
364 40 m 1,0,-1
 396 56 l 1,1,-1
 427 40 l 1,2,-1
 434 7 l 1,3,-1
 413 -20 l 1,4,-1
 378 -20 l 1,5,-1
 357 7 l 1,6,-1
 364 40 l 1,0,-1
328 63 m 1,7,-1
 360 78 l 1,8,-1
 391 63 l 1,9,-1
 399 29 l 1,10,-1
 377 2 l 1,11,-1
 342 2 l 1,12,-1
 321 29 l 1,13,-1
 328 63 l 1,7,-1
300 104 m 1,14,-1
 331 119 l 1,15,-1
 362 104 l 1,16,-1
 370 70 l 1,17,-1
 348 43 l 1,18,-1
 314 43 l 1,19,-1
 292 70 l 1,20,-1
 300 104 l 1,14,-1
271 145 m 1,21,-1
 302 160 l 1,22,-1
 333 145 l 1,23,-1
 341 111 l 1,24,-1
 319 84 l 1,25,-1
 285 84 l 1,26,-1
 263 111 l 1,27,-1
 271 145 l 1,21,-1
241 184 m 1,28,-1
 272 199 l 1,29,-1
 304 184 l 1,30,-1
 311 150 l 1,31,-1
 290 123 l 1,32,-1
 255 123 l 1,33,-1
 233 150 l 1,34,-1
 241 184 l 1,28,-1
231 249 m 1,35,-1
 262 264 l 1,36,-1
 294 249 l 1,37,-1
 301 215 l 1,38,-1
 280 188 l 1,39,-1
 245 188 l 1,40,-1
 223 215 l 1,41,-1
 231 249 l 1,35,-1
183 249 m 1,42,-1
 214 265 l 1,43,-1
 245 249 l 1,44,-1
 253 216 l 1,45,-1
 231 188 l 1,46,-1
 197 188 l 1,47,-1
 175 216 l 1,48,-1
 183 249 l 1,42,-1
133 249 m 1,49,-1
 164 265 l 1,50,-1
 195 249 l 1,51,-1
 203 216 l 1,52,-1
 181 188 l 1,53,-1
 147 188 l 1,54,-1
 125 216 l 1,55,-1
 133 249 l 1,49,-1
90 240 m 1,56,-1
 122 255 l 1,57,-1
 153 240 l 1,58,-1
 161 206 l 1,59,-1
 139 179 l 1,60,-1
 104 179 l 1,61,-1
 83 206 l 1,62,-1
 90 240 l 1,56,-1
85 194 m 1,63,-1
 117 210 l 1,64,-1
 148 194 l 1,65,-1
 155 161 l 1,66,-1
 134 133 l 1,67,-1
 99 133 l 1,68,-1
 78 161 l 1,69,-1
 85 194 l 1,63,-1
85 144 m 1,70,-1
 117 160 l 1,71,-1
 148 144 l 1,72,-1
 155 111 l 1,73,-1
 134 83 l 1,74,-1
 99 83 l 1,75,-1
 78 111 l 1,76,-1
 85 144 l 1,70,-1
85 94 m 1,77,-1
 117 110 l 1,78,-1
 148 94 l 1,79,-1
 155 61 l 1,80,-1
 134 33 l 1,81,-1
 99 33 l 1,82,-1
 78 61 l 1,83,-1
 85 94 l 1,77,-1
85 44 m 1,84,-1
 117 60 l 1,85,-1
 148 44 l 1,86,-1
 155 11 l 1,87,-1
 134 -16 l 1,88,-1
 99 -16 l 1,89,-1
 78 11 l 1,90,-1
 85 44 l 1,84,-1
98 494 m 1,91,-1
 129 510 l 1,92,-1
 160 494 l 1,93,-1
 168 461 l 1,94,-1
 146 433 l 1,95,-1
 112 433 l 1,96,-1
 90 461 l 1,97,-1
 98 494 l 1,91,-1
148 494 m 1,98,-1
 179 510 l 1,99,-1
 210 494 l 1,100,-1
 218 461 l 1,101,-1
 196 433 l 1,102,-1
 162 433 l 1,103,-1
 140 461 l 1,104,-1
 148 494 l 1,98,-1
198 494 m 1,105,-1
 229 510 l 1,106,-1
 260 494 l 1,107,-1
 268 461 l 1,108,-1
 246 433 l 1,109,-1
 212 433 l 1,110,-1
 190 461 l 1,111,-1
 198 494 l 1,105,-1
246 494 m 1,112,-1
 278 509 l 1,113,-1
 309 494 l 1,114,-1
 317 460 l 1,115,-1
 295 433 l 1,116,-1
 260 433 l 1,117,-1
 239 460 l 1,118,-1
 246 494 l 1,112,-1
297 486 m 1,119,-1
 328 501 l 1,120,-1
 359 486 l 1,121,-1
 367 452 l 1,122,-1
 345 425 l 1,123,-1
 311 425 l 1,124,-1
 289 452 l 1,125,-1
 297 486 l 1,119,-1
340 464 m 1,126,-1
 371 479 l 1,127,-1
 403 464 l 1,128,-1
 410 430 l 1,129,-1
 389 403 l 1,130,-1
 354 403 l 1,131,-1
 332 430 l 1,132,-1
 340 464 l 1,126,-1
370 427 m 1,133,-1
 401 442 l 1,134,-1
 432 427 l 1,135,-1
 440 394 l 1,136,-1
 418 366 l 1,137,-1
 384 366 l 1,138,-1
 362 394 l 1,139,-1
 370 427 l 1,133,-1
380 377 m 1,140,-1
 411 392 l 1,141,-1
 443 377 l 1,142,-1
 450 343 l 1,143,-1
 429 316 l 1,144,-1
 394 316 l 1,145,-1
 372 343 l 1,146,-1
 380 377 l 1,140,-1
375 332 m 1,147,-1
 406 347 l 1,148,-1
 437 332 l 1,149,-1
 445 298 l 1,150,-1
 423 271 l 1,151,-1
 388 271 l 1,152,-1
 367 298 l 1,153,-1
 375 332 l 1,147,-1
348 293 m 1,154,-1
 380 308 l 1,155,-1
 411 293 l 1,156,-1
 419 259 l 1,157,-1
 397 232 l 1,158,-1
 362 232 l 1,159,-1
 341 259 l 1,160,-1
 348 293 l 1,154,-1
280 239 m 1,161,-1
 312 255 l 1,162,-1
 343 239 l 1,163,-1
 350 206 l 1,164,-1
 329 178 l 1,165,-1
 294 178 l 1,166,-1
 273 206 l 1,167,-1
 280 239 l 1,161,-1
306 274 m 1,168,-1
 337 289 l 1,169,-1
 369 274 l 1,170,-1
 376 240 l 1,171,-1
 355 213 l 1,172,-1
 320 213 l 1,173,-1
 298 240 l 1,174,-1
 306 274 l 1,168,-1
85 457 m 1,175,-1
 117 472 l 1,176,-1
 148 457 l 1,177,-1
 155 423 l 1,178,-1
 134 396 l 1,179,-1
 99 396 l 1,180,-1
 78 423 l 1,181,-1
 85 457 l 1,175,-1
85 407 m 1,182,-1
 117 422 l 1,183,-1
 148 407 l 1,184,-1
 155 373 l 1,185,-1
 134 346 l 1,186,-1
 99 346 l 1,187,-1
 78 373 l 1,188,-1
 85 407 l 1,182,-1
85 357 m 1,189,-1
 117 372 l 1,190,-1
 148 357 l 1,191,-1
 155 323 l 1,192,-1
 134 296 l 1,193,-1
 99 296 l 1,194,-1
 78 323 l 1,195,-1
 85 357 l 1,189,-1
85 307 m 1,196,-1
 117 322 l 1,197,-1
 148 307 l 1,198,-1
 155 273 l 1,199,-1
 134 246 l 1,200,-1
 99 246 l 1,201,-1
 78 273 l 1,202,-1
 85 307 l 1,196,-1
EndSplineSet
EndChar

StartChar: S
Encoding: 83 83 41
Width: 792
Flags: W
LayerCount: 2
Fore
SplineSet
380 58 m 1,0,-1
 411 73 l 1,1,-1
 443 58 l 1,2,-1
 450 24 l 1,3,-1
 429 -2 l 1,4,-1
 394 -2 l 1,5,-1
 372 24 l 1,6,-1
 380 58 l 1,0,-1
338 86 m 1,7,-1
 369 101 l 1,8,-1
 401 86 l 1,9,-1
 408 52 l 1,10,-1
 387 25 l 1,11,-1
 352 25 l 1,12,-1
 330 52 l 1,13,-1
 338 86 l 1,7,-1
309 121 m 1,14,-1
 340 136 l 1,15,-1
 371 121 l 1,16,-1
 379 87 l 1,17,-1
 357 60 l 1,18,-1
 322 60 l 1,19,-1
 301 87 l 1,20,-1
 309 121 l 1,14,-1
286 167 m 1,21,-1
 318 182 l 1,22,-1
 349 167 l 1,23,-1
 357 133 l 1,24,-1
 335 106 l 1,25,-1
 300 106 l 1,26,-1
 279 133 l 1,27,-1
 286 167 l 1,21,-1
274 217 m 1,28,-1
 305 232 l 1,29,-1
 337 217 l 1,30,-1
 344 183 l 1,31,-1
 323 156 l 1,32,-1
 288 156 l 1,33,-1
 266 183 l 1,34,-1
 274 217 l 1,28,-1
270 267 m 1,35,-1
 302 282 l 1,36,-1
 333 267 l 1,37,-1
 341 233 l 1,38,-1
 319 206 l 1,39,-1
 284 206 l 1,40,-1
 263 233 l 1,41,-1
 270 267 l 1,35,-1
273 314 m 1,42,-1
 304 329 l 1,43,-1
 335 314 l 1,44,-1
 343 280 l 1,45,-1
 321 253 l 1,46,-1
 287 253 l 1,47,-1
 265 280 l 1,48,-1
 273 314 l 1,42,-1
283 362 m 1,49,-1
 314 377 l 1,50,-1
 345 362 l 1,51,-1
 353 329 l 1,52,-1
 331 301 l 1,53,-1
 296 301 l 1,54,-1
 275 329 l 1,55,-1
 283 362 l 1,49,-1
302 408 m 1,56,-1
 334 423 l 1,57,-1
 365 408 l 1,58,-1
 373 374 l 1,59,-1
 351 347 l 1,60,-1
 316 347 l 1,61,-1
 295 374 l 1,62,-1
 302 408 l 1,56,-1
330 445 m 1,63,-1
 361 460 l 1,64,-1
 392 445 l 1,65,-1
 400 411 l 1,66,-1
 378 384 l 1,67,-1
 344 384 l 1,68,-1
 322 411 l 1,69,-1
 330 445 l 1,63,-1
370 477 m 1,70,-1
 401 493 l 1,71,-1
 432 477 l 1,72,-1
 440 444 l 1,73,-1
 418 417 l 1,74,-1
 384 417 l 1,75,-1
 362 444 l 1,76,-1
 370 477 l 1,70,-1
416 497 m 1,77,-1
 447 512 l 1,78,-1
 478 497 l 1,79,-1
 486 463 l 1,80,-1
 465 436 l 1,81,-1
 430 436 l 1,82,-1
 408 463 l 1,83,-1
 416 497 l 1,77,-1
465 504 m 1,84,-1
 496 519 l 1,85,-1
 527 504 l 1,86,-1
 535 470 l 1,87,-1
 513 443 l 1,88,-1
 478 443 l 1,89,-1
 457 470 l 1,90,-1
 465 504 l 1,84,-1
511 502 m 1,91,-1
 542 517 l 1,92,-1
 574 502 l 1,93,-1
 581 469 l 1,94,-1
 560 441 l 1,95,-1
 525 441 l 1,96,-1
 503 469 l 1,97,-1
 511 502 l 1,91,-1
559 490 m 1,98,-1
 591 505 l 1,99,-1
 622 490 l 1,100,-1
 630 456 l 1,101,-1
 608 429 l 1,102,-1
 573 429 l 1,103,-1
 552 456 l 1,104,-1
 559 490 l 1,98,-1
602 466 m 1,105,-1
 634 481 l 1,106,-1
 665 466 l 1,107,-1
 673 432 l 1,108,-1
 651 405 l 1,109,-1
 616 405 l 1,110,-1
 595 432 l 1,111,-1
 602 466 l 1,105,-1
637 431 m 1,112,-1
 668 446 l 1,113,-1
 700 431 l 1,114,-1
 707 397 l 1,115,-1
 686 370 l 1,116,-1
 651 370 l 1,117,-1
 630 397 l 1,118,-1
 637 431 l 1,112,-1
663 388 m 1,119,-1
 695 404 l 1,120,-1
 726 388 l 1,121,-1
 734 355 l 1,122,-1
 712 327 l 1,123,-1
 677 327 l 1,124,-1
 656 355 l 1,125,-1
 663 388 l 1,119,-1
678 341 m 1,126,-1
 710 356 l 1,127,-1
 741 341 l 1,128,-1
 749 307 l 1,129,-1
 727 280 l 1,130,-1
 692 280 l 1,131,-1
 671 307 l 1,132,-1
 678 341 l 1,126,-1
253 27 m 1,133,-1
 284 42 l 1,134,-1
 315 27 l 1,135,-1
 323 -6 l 1,136,-1
 301 -33 l 1,137,-1
 267 -33 l 1,138,-1
 245 -6 l 1,139,-1
 253 27 l 1,133,-1
212 43 m 1,140,-1
 244 58 l 1,141,-1
 275 43 l 1,142,-1
 283 9 l 1,143,-1
 261 -17 l 1,144,-1
 226 -17 l 1,145,-1
 205 9 l 1,146,-1
 212 43 l 1,140,-1
165 58 m 1,147,-1
 196 73 l 1,148,-1
 228 58 l 1,149,-1
 235 24 l 1,150,-1
 214 -2 l 1,151,-1
 179 -2 l 1,152,-1
 157 24 l 1,153,-1
 165 58 l 1,147,-1
123 86 m 1,154,-1
 154 101 l 1,155,-1
 186 86 l 1,156,-1
 193 52 l 1,157,-1
 172 25 l 1,158,-1
 137 25 l 1,159,-1
 115 52 l 1,160,-1
 123 86 l 1,154,-1
94 121 m 1,161,-1
 125 136 l 1,162,-1
 156 121 l 1,163,-1
 164 87 l 1,164,-1
 142 60 l 1,165,-1
 107 60 l 1,166,-1
 86 87 l 1,167,-1
 94 121 l 1,161,-1
71 167 m 1,168,-1
 103 182 l 1,169,-1
 134 167 l 1,170,-1
 142 133 l 1,171,-1
 120 106 l 1,172,-1
 85 106 l 1,173,-1
 64 133 l 1,174,-1
 71 167 l 1,168,-1
59 217 m 1,175,-1
 90 232 l 1,176,-1
 122 217 l 1,177,-1
 129 183 l 1,178,-1
 108 156 l 1,179,-1
 73 156 l 1,180,-1
 51 183 l 1,181,-1
 59 217 l 1,175,-1
55 267 m 1,182,-1
 87 282 l 1,183,-1
 118 267 l 1,184,-1
 126 233 l 1,185,-1
 104 206 l 1,186,-1
 69 206 l 1,187,-1
 48 233 l 1,188,-1
 55 267 l 1,182,-1
387 466 m 1,189,-1
 419 481 l 1,190,-1
 450 466 l 1,191,-1
 458 432 l 1,192,-1
 436 405 l 1,193,-1
 401 405 l 1,194,-1
 380 432 l 1,195,-1
 387 466 l 1,189,-1
422 431 m 1,196,-1
 453 446 l 1,197,-1
 485 431 l 1,198,-1
 492 397 l 1,199,-1
 471 370 l 1,200,-1
 436 370 l 1,201,-1
 415 397 l 1,202,-1
 422 431 l 1,196,-1
448 388 m 1,203,-1
 480 404 l 1,204,-1
 511 388 l 1,205,-1
 519 355 l 1,206,-1
 497 327 l 1,207,-1
 462 327 l 1,208,-1
 441 355 l 1,209,-1
 448 388 l 1,203,-1
463 341 m 1,210,-1
 495 356 l 1,211,-1
 526 341 l 1,212,-1
 534 307 l 1,213,-1
 512 280 l 1,214,-1
 477 280 l 1,215,-1
 456 307 l 1,216,-1
 463 341 l 1,210,-1
470 292 m 1,217,-1
 501 307 l 1,218,-1
 532 292 l 1,219,-1
 540 258 l 1,220,-1
 518 231 l 1,221,-1
 484 231 l 1,222,-1
 462 258 l 1,223,-1
 470 292 l 1,217,-1
469 245 m 1,224,-1
 501 260 l 1,225,-1
 532 245 l 1,226,-1
 540 211 l 1,227,-1
 518 184 l 1,228,-1
 483 184 l 1,229,-1
 462 211 l 1,230,-1
 469 245 l 1,224,-1
462 195 m 1,231,-1
 493 210 l 1,232,-1
 525 195 l 1,233,-1
 532 161 l 1,234,-1
 511 134 l 1,235,-1
 476 134 l 1,236,-1
 454 161 l 1,237,-1
 462 195 l 1,231,-1
446 147 m 1,238,-1
 477 162 l 1,239,-1
 509 147 l 1,240,-1
 516 114 l 1,241,-1
 495 86 l 1,242,-1
 460 86 l 1,243,-1
 438 114 l 1,244,-1
 446 147 l 1,238,-1
422 106 m 1,245,-1
 453 121 l 1,246,-1
 484 106 l 1,247,-1
 492 72 l 1,248,-1
 470 45 l 1,249,-1
 436 45 l 1,250,-1
 414 72 l 1,251,-1
 422 106 l 1,245,-1
387 72 m 1,252,-1
 418 87 l 1,253,-1
 450 72 l 1,254,-1
 457 38 l 1,255,-1
 436 11 l 1,256,-1
 401 11 l 1,257,-1
 379 38 l 1,258,-1
 387 72 l 1,252,-1
342 50 m 1,259,-1
 374 65 l 1,260,-1
 405 50 l 1,261,-1
 413 16 l 1,262,-1
 391 -10 l 1,263,-1
 356 -10 l 1,264,-1
 335 16 l 1,265,-1
 342 50 l 1,259,-1
293 40 m 1,266,-1
 325 55 l 1,267,-1
 356 40 l 1,268,-1
 364 6 l 1,269,-1
 342 -20 l 1,270,-1
 307 -20 l 1,271,-1
 286 6 l 1,272,-1
 293 40 l 1,266,-1
EndSplineSet
EndChar

StartChar: T
Encoding: 84 84 42
Width: 450
Flags: W
LayerCount: 2
Fore
SplineSet
191 48 m 1,0,-1
 223 63 l 1,1,-1
 254 48 l 1,2,-1
 261 14 l 1,3,-1
 240 -12 l 1,4,-1
 205 -12 l 1,5,-1
 184 14 l 1,6,-1
 191 48 l 1,0,-1
191 98 m 1,7,-1
 223 113 l 1,8,-1
 254 98 l 1,9,-1
 261 64 l 1,10,-1
 240 37 l 1,11,-1
 205 37 l 1,12,-1
 184 64 l 1,13,-1
 191 98 l 1,7,-1
191 148 m 1,14,-1
 223 163 l 1,15,-1
 254 148 l 1,16,-1
 261 114 l 1,17,-1
 240 87 l 1,18,-1
 205 87 l 1,19,-1
 184 114 l 1,20,-1
 191 148 l 1,14,-1
191 198 m 1,21,-1
 223 213 l 1,22,-1
 254 198 l 1,23,-1
 261 164 l 1,24,-1
 240 137 l 1,25,-1
 205 137 l 1,26,-1
 184 164 l 1,27,-1
 191 198 l 1,21,-1
191 248 m 1,28,-1
 223 263 l 1,29,-1
 254 248 l 1,30,-1
 261 214 l 1,31,-1
 240 187 l 1,32,-1
 205 187 l 1,33,-1
 184 214 l 1,34,-1
 191 248 l 1,28,-1
191 298 m 1,35,-1
 223 313 l 1,36,-1
 254 298 l 1,37,-1
 261 264 l 1,38,-1
 240 237 l 1,39,-1
 205 237 l 1,40,-1
 184 264 l 1,41,-1
 191 298 l 1,35,-1
191 348 m 1,42,-1
 223 363 l 1,43,-1
 254 348 l 1,44,-1
 261 314 l 1,45,-1
 240 287 l 1,46,-1
 205 287 l 1,47,-1
 184 314 l 1,48,-1
 191 348 l 1,42,-1
191 398 m 1,49,-1
 223 413 l 1,50,-1
 254 398 l 1,51,-1
 261 364 l 1,52,-1
 240 337 l 1,53,-1
 205 337 l 1,54,-1
 184 364 l 1,55,-1
 191 398 l 1,49,-1
191 448 m 1,56,-1
 223 463 l 1,57,-1
 254 448 l 1,58,-1
 261 414 l 1,59,-1
 240 387 l 1,60,-1
 205 387 l 1,61,-1
 184 414 l 1,62,-1
 191 448 l 1,56,-1
171 480 m 1,63,-1
 203 496 l 1,64,-1
 234 480 l 1,65,-1
 241 447 l 1,66,-1
 220 419 l 1,67,-1
 185 419 l 1,68,-1
 164 447 l 1,69,-1
 171 480 l 1,63,-1
121 480 m 1,70,-1
 153 496 l 1,71,-1
 184 480 l 1,72,-1
 191 447 l 1,73,-1
 170 419 l 1,74,-1
 135 419 l 1,75,-1
 114 447 l 1,76,-1
 121 480 l 1,70,-1
71 480 m 1,77,-1
 103 496 l 1,78,-1
 134 480 l 1,79,-1
 141 447 l 1,80,-1
 120 419 l 1,81,-1
 85 419 l 1,82,-1
 64 447 l 1,83,-1
 71 480 l 1,77,-1
21 480 m 1,84,-1
 53 496 l 1,85,-1
 84 480 l 1,86,-1
 91 447 l 1,87,-1
 70 419 l 1,88,-1
 35 419 l 1,89,-1
 14 447 l 1,90,-1
 21 480 l 1,84,-1
206 490 m 1,91,-1
 238 506 l 1,92,-1
 269 490 l 1,93,-1
 276 457 l 1,94,-1
 255 429 l 1,95,-1
 220 429 l 1,96,-1
 199 457 l 1,97,-1
 206 490 l 1,91,-1
256 490 m 1,98,-1
 288 506 l 1,99,-1
 319 490 l 1,100,-1
 326 457 l 1,101,-1
 305 429 l 1,102,-1
 270 429 l 1,103,-1
 249 457 l 1,104,-1
 256 490 l 1,98,-1
306 490 m 1,105,-1
 338 506 l 1,106,-1
 369 490 l 1,107,-1
 376 457 l 1,108,-1
 355 429 l 1,109,-1
 320 429 l 1,110,-1
 299 457 l 1,111,-1
 306 490 l 1,105,-1
356 490 m 1,112,-1
 388 506 l 1,113,-1
 419 490 l 1,114,-1
 426 457 l 1,115,-1
 405 429 l 1,116,-1
 370 429 l 1,117,-1
 349 457 l 1,118,-1
 356 490 l 1,112,-1
EndSplineSet
EndChar

StartChar: U
Encoding: 85 85 43
Width: 590
Flags: W
LayerCount: 2
Fore
SplineSet
107 142 m 1,0,-1
 139 157 l 1,1,-1
 170 142 l 1,2,-1
 178 108 l 1,3,-1
 156 81 l 1,4,-1
 121 81 l 1,5,-1
 100 108 l 1,6,-1
 107 142 l 1,0,-1
78 102 m 1,7,-1
 109 117 l 1,8,-1
 140 102 l 1,9,-1
 148 68 l 1,10,-1
 126 41 l 1,11,-1
 91 41 l 1,12,-1
 70 68 l 1,13,-1
 78 102 l 1,7,-1
48 61 m 1,14,-1
 79 77 l 1,15,-1
 110 61 l 1,16,-1
 118 28 l 1,17,-1
 96 2 l 1,18,-1
 62 2 l 1,19,-1
 40 28 l 1,20,-1
 48 61 l 1,14,-1
442 491 m 1,21,-1
 474 507 l 1,22,-1
 505 491 l 1,23,-1
 512 458 l 1,24,-1
 491 430 l 1,25,-1
 456 430 l 1,26,-1
 435 458 l 1,27,-1
 442 491 l 1,21,-1
442 441 m 1,28,-1
 474 457 l 1,29,-1
 505 441 l 1,30,-1
 512 408 l 1,31,-1
 491 380 l 1,32,-1
 456 380 l 1,33,-1
 435 408 l 1,34,-1
 442 441 l 1,28,-1
442 391 m 1,35,-1
 474 407 l 1,36,-1
 505 391 l 1,37,-1
 512 358 l 1,38,-1
 491 330 l 1,39,-1
 456 330 l 1,40,-1
 435 358 l 1,41,-1
 442 391 l 1,35,-1
442 341 m 1,42,-1
 474 357 l 1,43,-1
 505 341 l 1,44,-1
 512 308 l 1,45,-1
 491 280 l 1,46,-1
 456 280 l 1,47,-1
 435 308 l 1,48,-1
 442 341 l 1,42,-1
442 291 m 1,49,-1
 474 307 l 1,50,-1
 505 291 l 1,51,-1
 512 258 l 1,52,-1
 491 230 l 1,53,-1
 456 230 l 1,54,-1
 435 258 l 1,55,-1
 442 291 l 1,49,-1
442 241 m 1,56,-1
 474 257 l 1,57,-1
 505 241 l 1,58,-1
 512 208 l 1,59,-1
 491 180 l 1,60,-1
 456 180 l 1,61,-1
 435 208 l 1,62,-1
 442 241 l 1,56,-1
442 193 m 1,63,-1
 473 208 l 1,64,-1
 505 193 l 1,65,-1
 512 159 l 1,66,-1
 491 132 l 1,67,-1
 456 132 l 1,68,-1
 434 159 l 1,69,-1
 442 193 l 1,63,-1
436 143 m 1,70,-1
 467 158 l 1,71,-1
 498 143 l 1,72,-1
 506 110 l 1,73,-1
 484 82 l 1,74,-1
 450 82 l 1,75,-1
 428 110 l 1,76,-1
 436 143 l 1,70,-1
416 98 m 1,77,-1
 448 113 l 1,78,-1
 479 98 l 1,79,-1
 487 65 l 1,80,-1
 465 37 l 1,81,-1
 430 37 l 1,82,-1
 409 65 l 1,83,-1
 416 98 l 1,77,-1
382 63 m 1,84,-1
 413 78 l 1,85,-1
 444 63 l 1,86,-1
 452 30 l 1,87,-1
 430 2 l 1,88,-1
 395 2 l 1,89,-1
 374 30 l 1,90,-1
 382 63 l 1,84,-1
337 44 m 1,91,-1
 368 59 l 1,92,-1
 399 44 l 1,93,-1
 407 10 l 1,94,-1
 385 -16 l 1,95,-1
 351 -16 l 1,96,-1
 329 10 l 1,97,-1
 337 44 l 1,91,-1
287 37 m 1,98,-1
 318 52 l 1,99,-1
 350 37 l 1,100,-1
 357 3 l 1,101,-1
 336 -23 l 1,102,-1
 301 -23 l 1,103,-1
 279 3 l 1,104,-1
 287 37 l 1,98,-1
241 38 m 1,105,-1
 273 53 l 1,106,-1
 304 38 l 1,107,-1
 312 4 l 1,108,-1
 290 -22 l 1,109,-1
 255 -22 l 1,110,-1
 234 4 l 1,111,-1
 241 38 l 1,105,-1
191 49 m 1,112,-1
 222 64 l 1,113,-1
 253 49 l 1,114,-1
 261 15 l 1,115,-1
 239 -11 l 1,116,-1
 205 -11 l 1,117,-1
 183 15 l 1,118,-1
 191 49 l 1,112,-1
149 71 m 1,119,-1
 180 86 l 1,120,-1
 211 71 l 1,121,-1
 219 37 l 1,122,-1
 197 10 l 1,123,-1
 163 10 l 1,124,-1
 141 37 l 1,125,-1
 149 71 l 1,119,-1
118 107 m 1,126,-1
 149 123 l 1,127,-1
 180 107 l 1,128,-1
 188 74 l 1,129,-1
 166 46 l 1,130,-1
 131 46 l 1,131,-1
 110 74 l 1,132,-1
 118 107 l 1,126,-1
101 155 m 1,133,-1
 132 171 l 1,134,-1
 164 155 l 1,135,-1
 171 122 l 1,136,-1
 150 94 l 1,137,-1
 115 94 l 1,138,-1
 93 122 l 1,139,-1
 101 155 l 1,133,-1
97 201 m 1,140,-1
 129 217 l 1,141,-1
 160 201 l 1,142,-1
 167 168 l 1,143,-1
 146 140 l 1,144,-1
 111 140 l 1,145,-1
 90 168 l 1,146,-1
 97 201 l 1,140,-1
97 251 m 1,147,-1
 129 267 l 1,148,-1
 160 251 l 1,149,-1
 167 218 l 1,150,-1
 146 190 l 1,151,-1
 111 190 l 1,152,-1
 90 218 l 1,153,-1
 97 251 l 1,147,-1
97 301 m 1,154,-1
 129 317 l 1,155,-1
 160 301 l 1,156,-1
 167 268 l 1,157,-1
 146 240 l 1,158,-1
 111 240 l 1,159,-1
 90 268 l 1,160,-1
 97 301 l 1,154,-1
97 351 m 1,161,-1
 129 367 l 1,162,-1
 160 351 l 1,163,-1
 167 318 l 1,164,-1
 146 290 l 1,165,-1
 111 290 l 1,166,-1
 90 318 l 1,167,-1
 97 351 l 1,161,-1
97 401 m 1,168,-1
 129 417 l 1,169,-1
 160 401 l 1,170,-1
 167 368 l 1,171,-1
 146 340 l 1,172,-1
 111 340 l 1,173,-1
 90 368 l 1,174,-1
 97 401 l 1,168,-1
97 451 m 1,175,-1
 129 467 l 1,176,-1
 160 451 l 1,177,-1
 167 418 l 1,178,-1
 146 390 l 1,179,-1
 111 390 l 1,180,-1
 90 418 l 1,181,-1
 97 451 l 1,175,-1
105 491 m 1,182,-1
 136 507 l 1,183,-1
 167 491 l 1,184,-1
 175 458 l 1,185,-1
 153 430 l 1,186,-1
 119 430 l 1,187,-1
 97 458 l 1,188,-1
 105 491 l 1,182,-1
EndSplineSet
EndChar

StartChar: V
Encoding: 86 86 44
Width: 502
Flags: W
LayerCount: 2
Fore
SplineSet
112 81 m 1,0,-1
 143 96 l 1,1,-1
 174 81 l 1,2,-1
 182 47 l 1,3,-1
 160 20 l 1,4,-1
 126 20 l 1,5,-1
 104 47 l 1,6,-1
 112 81 l 1,0,-1
143 120 m 1,7,-1
 175 135 l 1,8,-1
 206 120 l 1,9,-1
 214 86 l 1,10,-1
 192 59 l 1,11,-1
 157 59 l 1,12,-1
 136 86 l 1,13,-1
 143 120 l 1,7,-1
175 159 m 1,14,-1
 206 174 l 1,15,-1
 237 159 l 1,16,-1
 245 125 l 1,17,-1
 224 98 l 1,18,-1
 189 98 l 1,19,-1
 167 125 l 1,20,-1
 175 159 l 1,14,-1
207 198 m 1,21,-1
 238 213 l 1,22,-1
 269 198 l 1,23,-1
 277 164 l 1,24,-1
 255 137 l 1,25,-1
 220 137 l 1,26,-1
 199 164 l 1,27,-1
 207 198 l 1,21,-1
238 237 m 1,28,-1
 269 252 l 1,29,-1
 301 237 l 1,30,-1
 308 203 l 1,31,-1
 287 176 l 1,32,-1
 252 176 l 1,33,-1
 230 203 l 1,34,-1
 238 237 l 1,28,-1
270 275 m 1,35,-1
 301 290 l 1,36,-1
 332 275 l 1,37,-1
 340 242 l 1,38,-1
 318 214 l 1,39,-1
 284 214 l 1,40,-1
 262 242 l 1,41,-1
 270 275 l 1,35,-1
301 314 m 1,42,-1
 333 329 l 1,43,-1
 364 314 l 1,44,-1
 372 280 l 1,45,-1
 350 253 l 1,46,-1
 315 253 l 1,47,-1
 294 280 l 1,48,-1
 301 314 l 1,42,-1
333 353 m 1,49,-1
 364 368 l 1,50,-1
 395 353 l 1,51,-1
 403 319 l 1,52,-1
 382 292 l 1,53,-1
 347 292 l 1,54,-1
 325 319 l 1,55,-1
 333 353 l 1,49,-1
365 392 m 1,56,-1
 396 407 l 1,57,-1
 427 392 l 1,58,-1
 435 358 l 1,59,-1
 413 331 l 1,60,-1
 378 331 l 1,61,-1
 357 358 l 1,62,-1
 365 392 l 1,56,-1
396 431 m 1,63,-1
 427 446 l 1,64,-1
 459 431 l 1,65,-1
 466 397 l 1,66,-1
 445 370 l 1,67,-1
 410 370 l 1,68,-1
 388 397 l 1,69,-1
 396 431 l 1,63,-1
411 471 m 1,70,-1
 442 486 l 1,71,-1
 473 471 l 1,72,-1
 481 437 l 1,73,-1
 459 410 l 1,74,-1
 425 410 l 1,75,-1
 403 437 l 1,76,-1
 411 471 l 1,70,-1
437 494 m 1,77,-1
 469 510 l 1,78,-1
 500 494 l 1,79,-1
 507 461 l 1,80,-1
 486 433 l 1,81,-1
 451 433 l 1,82,-1
 430 461 l 1,83,-1
 437 494 l 1,77,-1
86 57 m 1,84,-1
 118 72 l 1,85,-1
 149 57 l 1,86,-1
 156 23 l 1,87,-1
 135 -3 l 1,88,-1
 100 -3 l 1,89,-1
 79 23 l 1,90,-1
 86 57 l 1,84,-1
86 107 m 1,91,-1
 118 122 l 1,92,-1
 149 107 l 1,93,-1
 156 73 l 1,94,-1
 135 46 l 1,95,-1
 100 46 l 1,96,-1
 79 73 l 1,97,-1
 86 107 l 1,91,-1
86 157 m 1,98,-1
 118 172 l 1,99,-1
 149 157 l 1,100,-1
 156 123 l 1,101,-1
 135 96 l 1,102,-1
 100 96 l 1,103,-1
 79 123 l 1,104,-1
 86 157 l 1,98,-1
86 207 m 1,105,-1
 118 222 l 1,106,-1
 149 207 l 1,107,-1
 156 173 l 1,108,-1
 135 146 l 1,109,-1
 100 146 l 1,110,-1
 79 173 l 1,111,-1
 86 207 l 1,105,-1
86 257 m 1,112,-1
 118 272 l 1,113,-1
 149 257 l 1,114,-1
 156 223 l 1,115,-1
 135 196 l 1,116,-1
 100 196 l 1,117,-1
 79 223 l 1,118,-1
 86 257 l 1,112,-1
86 307 m 1,119,-1
 118 322 l 1,120,-1
 149 307 l 1,121,-1
 156 273 l 1,122,-1
 135 246 l 1,123,-1
 100 246 l 1,124,-1
 79 273 l 1,125,-1
 86 307 l 1,119,-1
86 357 m 1,126,-1
 118 372 l 1,127,-1
 149 357 l 1,128,-1
 156 323 l 1,129,-1
 135 296 l 1,130,-1
 100 296 l 1,131,-1
 79 323 l 1,132,-1
 86 357 l 1,126,-1
86 407 m 1,133,-1
 118 422 l 1,134,-1
 149 407 l 1,135,-1
 156 373 l 1,136,-1
 135 346 l 1,137,-1
 100 346 l 1,138,-1
 79 373 l 1,139,-1
 86 407 l 1,133,-1
86 457 m 1,140,-1
 118 472 l 1,141,-1
 149 457 l 1,142,-1
 156 423 l 1,143,-1
 135 396 l 1,144,-1
 100 396 l 1,145,-1
 79 423 l 1,146,-1
 86 457 l 1,140,-1
96 494 m 1,147,-1
 128 510 l 1,148,-1
 159 494 l 1,149,-1
 166 461 l 1,150,-1
 145 433 l 1,151,-1
 110 433 l 1,152,-1
 89 461 l 1,153,-1
 96 494 l 1,147,-1
EndSplineSet
EndChar

StartChar: W
Encoding: 87 87 45
Width: 814
Flags: W
LayerCount: 2
Fore
SplineSet
80 57 m 1,0,-1
 112 72 l 1,1,-1
 143 57 l 1,2,-1
 150 23 l 1,3,-1
 129 -3 l 1,4,-1
 94 -3 l 1,5,-1
 73 23 l 1,6,-1
 80 57 l 1,0,-1
80 107 m 1,7,-1
 112 122 l 1,8,-1
 143 107 l 1,9,-1
 150 73 l 1,10,-1
 129 46 l 1,11,-1
 94 46 l 1,12,-1
 73 73 l 1,13,-1
 80 107 l 1,7,-1
80 157 m 1,14,-1
 112 172 l 1,15,-1
 143 157 l 1,16,-1
 150 123 l 1,17,-1
 129 96 l 1,18,-1
 94 96 l 1,19,-1
 73 123 l 1,20,-1
 80 157 l 1,14,-1
80 207 m 1,21,-1
 112 222 l 1,22,-1
 143 207 l 1,23,-1
 150 173 l 1,24,-1
 129 146 l 1,25,-1
 94 146 l 1,26,-1
 73 173 l 1,27,-1
 80 207 l 1,21,-1
80 257 m 1,28,-1
 112 272 l 1,29,-1
 143 257 l 1,30,-1
 150 223 l 1,31,-1
 129 196 l 1,32,-1
 94 196 l 1,33,-1
 73 223 l 1,34,-1
 80 257 l 1,28,-1
80 307 m 1,35,-1
 112 322 l 1,36,-1
 143 307 l 1,37,-1
 150 273 l 1,38,-1
 129 246 l 1,39,-1
 94 246 l 1,40,-1
 73 273 l 1,41,-1
 80 307 l 1,35,-1
80 357 m 1,42,-1
 112 372 l 1,43,-1
 143 357 l 1,44,-1
 150 323 l 1,45,-1
 129 296 l 1,46,-1
 94 296 l 1,47,-1
 73 323 l 1,48,-1
 80 357 l 1,42,-1
80 407 m 1,49,-1
 112 422 l 1,50,-1
 143 407 l 1,51,-1
 150 373 l 1,52,-1
 129 346 l 1,53,-1
 94 346 l 1,54,-1
 73 373 l 1,55,-1
 80 407 l 1,49,-1
80 457 m 1,56,-1
 112 472 l 1,57,-1
 143 457 l 1,58,-1
 150 423 l 1,59,-1
 129 396 l 1,60,-1
 94 396 l 1,61,-1
 73 423 l 1,62,-1
 80 457 l 1,56,-1
90 494 m 1,63,-1
 122 510 l 1,64,-1
 153 494 l 1,65,-1
 160 461 l 1,66,-1
 139 433 l 1,67,-1
 104 433 l 1,68,-1
 83 461 l 1,69,-1
 90 494 l 1,63,-1
97 81 m 1,70,-1
 128 96 l 1,71,-1
 159 81 l 1,72,-1
 167 47 l 1,73,-1
 145 20 l 1,74,-1
 111 20 l 1,75,-1
 89 47 l 1,76,-1
 97 81 l 1,70,-1
128 120 m 1,77,-1
 160 135 l 1,78,-1
 191 120 l 1,79,-1
 199 86 l 1,80,-1
 177 59 l 1,81,-1
 142 59 l 1,82,-1
 121 86 l 1,83,-1
 128 120 l 1,77,-1
160 159 m 1,84,-1
 191 174 l 1,85,-1
 222 159 l 1,86,-1
 230 125 l 1,87,-1
 209 98 l 1,88,-1
 174 98 l 1,89,-1
 152 125 l 1,90,-1
 160 159 l 1,84,-1
192 198 m 1,91,-1
 223 213 l 1,92,-1
 254 198 l 1,93,-1
 262 164 l 1,94,-1
 240 137 l 1,95,-1
 205 137 l 1,96,-1
 184 164 l 1,97,-1
 192 198 l 1,91,-1
223 237 m 1,98,-1
 254 252 l 1,99,-1
 286 237 l 1,100,-1
 293 203 l 1,101,-1
 272 176 l 1,102,-1
 237 176 l 1,103,-1
 215 203 l 1,104,-1
 223 237 l 1,98,-1
255 275 m 1,105,-1
 286 290 l 1,106,-1
 317 275 l 1,107,-1
 325 242 l 1,108,-1
 303 214 l 1,109,-1
 269 214 l 1,110,-1
 247 242 l 1,111,-1
 255 275 l 1,105,-1
286 314 m 1,112,-1
 318 329 l 1,113,-1
 349 314 l 1,114,-1
 357 280 l 1,115,-1
 335 253 l 1,116,-1
 300 253 l 1,117,-1
 279 280 l 1,118,-1
 286 314 l 1,112,-1
318 353 m 1,119,-1
 349 368 l 1,120,-1
 380 353 l 1,121,-1
 388 319 l 1,122,-1
 367 292 l 1,123,-1
 332 292 l 1,124,-1
 310 319 l 1,125,-1
 318 353 l 1,119,-1
350 392 m 1,126,-1
 381 407 l 1,127,-1
 412 392 l 1,128,-1
 420 358 l 1,129,-1
 398 331 l 1,130,-1
 363 331 l 1,131,-1
 342 358 l 1,132,-1
 350 392 l 1,126,-1
381 431 m 1,133,-1
 412 446 l 1,134,-1
 444 431 l 1,135,-1
 451 397 l 1,136,-1
 430 370 l 1,137,-1
 395 370 l 1,138,-1
 373 397 l 1,139,-1
 381 431 l 1,133,-1
396 471 m 1,140,-1
 427 486 l 1,141,-1
 458 471 l 1,142,-1
 466 437 l 1,143,-1
 444 410 l 1,144,-1
 410 410 l 1,145,-1
 388 437 l 1,146,-1
 396 471 l 1,140,-1
441 81 m 1,147,-1
 472 96 l 1,148,-1
 503 81 l 1,149,-1
 511 47 l 1,150,-1
 489 20 l 1,151,-1
 455 20 l 1,152,-1
 433 47 l 1,153,-1
 441 81 l 1,147,-1
472 120 m 1,154,-1
 504 135 l 1,155,-1
 535 120 l 1,156,-1
 543 86 l 1,157,-1
 521 59 l 1,158,-1
 486 59 l 1,159,-1
 465 86 l 1,160,-1
 472 120 l 1,154,-1
504 159 m 1,161,-1
 535 174 l 1,162,-1
 566 159 l 1,163,-1
 574 125 l 1,164,-1
 553 98 l 1,165,-1
 518 98 l 1,166,-1
 496 125 l 1,167,-1
 504 159 l 1,161,-1
536 198 m 1,168,-1
 567 213 l 1,169,-1
 598 198 l 1,170,-1
 606 164 l 1,171,-1
 584 137 l 1,172,-1
 549 137 l 1,173,-1
 528 164 l 1,174,-1
 536 198 l 1,168,-1
567 237 m 1,175,-1
 598 252 l 1,176,-1
 630 237 l 1,177,-1
 637 203 l 1,178,-1
 616 176 l 1,179,-1
 581 176 l 1,180,-1
 559 203 l 1,181,-1
 567 237 l 1,175,-1
599 275 m 1,182,-1
 630 290 l 1,183,-1
 661 275 l 1,184,-1
 669 242 l 1,185,-1
 647 214 l 1,186,-1
 613 214 l 1,187,-1
 591 242 l 1,188,-1
 599 275 l 1,182,-1
630 314 m 1,189,-1
 662 329 l 1,190,-1
 693 314 l 1,191,-1
 701 280 l 1,192,-1
 679 253 l 1,193,-1
 644 253 l 1,194,-1
 623 280 l 1,195,-1
 630 314 l 1,189,-1
662 353 m 1,196,-1
 693 368 l 1,197,-1
 724 353 l 1,198,-1
 732 319 l 1,199,-1
 711 292 l 1,200,-1
 676 292 l 1,201,-1
 654 319 l 1,202,-1
 662 353 l 1,196,-1
694 392 m 1,203,-1
 725 407 l 1,204,-1
 756 392 l 1,205,-1
 764 358 l 1,206,-1
 742 331 l 1,207,-1
 707 331 l 1,208,-1
 686 358 l 1,209,-1
 694 392 l 1,203,-1
725 431 m 1,210,-1
 756 446 l 1,211,-1
 788 431 l 1,212,-1
 795 397 l 1,213,-1
 774 370 l 1,214,-1
 739 370 l 1,215,-1
 717 397 l 1,216,-1
 725 431 l 1,210,-1
740 471 m 1,217,-1
 771 486 l 1,218,-1
 802 471 l 1,219,-1
 810 437 l 1,220,-1
 788 410 l 1,221,-1
 754 410 l 1,222,-1
 732 437 l 1,223,-1
 740 471 l 1,217,-1
766 494 m 1,224,-1
 798 510 l 1,225,-1
 829 494 l 1,226,-1
 836 461 l 1,227,-1
 815 433 l 1,228,-1
 780 433 l 1,229,-1
 759 461 l 1,230,-1
 766 494 l 1,224,-1
415 57 m 1,231,-1
 447 72 l 1,232,-1
 478 57 l 1,233,-1
 485 23 l 1,234,-1
 464 -3 l 1,235,-1
 429 -3 l 1,236,-1
 408 23 l 1,237,-1
 415 57 l 1,231,-1
415 107 m 1,238,-1
 447 122 l 1,239,-1
 478 107 l 1,240,-1
 485 73 l 1,241,-1
 464 46 l 1,242,-1
 429 46 l 1,243,-1
 408 73 l 1,244,-1
 415 107 l 1,238,-1
415 157 m 1,245,-1
 447 172 l 1,246,-1
 478 157 l 1,247,-1
 485 123 l 1,248,-1
 464 96 l 1,249,-1
 429 96 l 1,250,-1
 408 123 l 1,251,-1
 415 157 l 1,245,-1
415 207 m 1,252,-1
 447 222 l 1,253,-1
 478 207 l 1,254,-1
 485 173 l 1,255,-1
 464 146 l 1,256,-1
 429 146 l 1,257,-1
 408 173 l 1,258,-1
 415 207 l 1,252,-1
415 257 m 1,259,-1
 447 272 l 1,260,-1
 478 257 l 1,261,-1
 485 223 l 1,262,-1
 464 196 l 1,263,-1
 429 196 l 1,264,-1
 408 223 l 1,265,-1
 415 257 l 1,259,-1
415 307 m 1,266,-1
 447 322 l 1,267,-1
 478 307 l 1,268,-1
 485 273 l 1,269,-1
 464 246 l 1,270,-1
 429 246 l 1,271,-1
 408 273 l 1,272,-1
 415 307 l 1,266,-1
415 357 m 1,273,-1
 447 372 l 1,274,-1
 478 357 l 1,275,-1
 485 323 l 1,276,-1
 464 296 l 1,277,-1
 429 296 l 1,278,-1
 408 323 l 1,279,-1
 415 357 l 1,273,-1
415 407 m 1,280,-1
 447 422 l 1,281,-1
 478 407 l 1,282,-1
 485 373 l 1,283,-1
 464 346 l 1,284,-1
 429 346 l 1,285,-1
 408 373 l 1,286,-1
 415 407 l 1,280,-1
415 457 m 1,287,-1
 447 472 l 1,288,-1
 478 457 l 1,289,-1
 485 423 l 1,290,-1
 464 396 l 1,291,-1
 429 396 l 1,292,-1
 408 423 l 1,293,-1
 415 457 l 1,287,-1
425 494 m 1,294,-1
 457 510 l 1,295,-1
 488 494 l 1,296,-1
 495 461 l 1,297,-1
 474 433 l 1,298,-1
 439 433 l 1,299,-1
 418 461 l 1,300,-1
 425 494 l 1,294,-1
EndSplineSet
EndChar

StartChar: X
Encoding: 88 88 46
Width: 483
Flags: W
LayerCount: 2
Fore
SplineSet
369 44 m 5,0,-1
 401 60 l 5,1,-1
 432 44 l 5,2,-1
 439 11 l 5,3,-1
 418 -16 l 5,4,-1
 383 -16 l 5,5,-1
 362 11 l 5,6,-1
 369 44 l 5,0,-1
189 242 m 5,7,-1
 221 257 l 5,8,-1
 252 242 l 5,9,-1
 259 208 l 5,10,-1
 238 181 l 5,11,-1
 203 181 l 5,12,-1
 182 208 l 5,13,-1
 189 242 l 5,7,-1
161 203 m 5,14,-1
 192 218 l 5,15,-1
 224 203 l 5,16,-1
 231 170 l 5,17,-1
 210 142 l 5,18,-1
 175 142 l 5,19,-1
 153 170 l 5,20,-1
 161 203 l 5,14,-1
135 163 m 5,21,-1
 167 178 l 5,22,-1
 198 163 l 5,23,-1
 206 129 l 5,24,-1
 184 102 l 5,25,-1
 149 102 l 5,26,-1
 128 129 l 5,27,-1
 135 163 l 5,21,-1
108 121 m 5,28,-1
 139 136 l 5,29,-1
 171 121 l 5,30,-1
 178 87 l 5,31,-1
 157 60 l 5,32,-1
 122 60 l 5,33,-1
 100 87 l 5,34,-1
 108 121 l 5,28,-1
81 78 m 5,35,-1
 112 93 l 5,36,-1
 144 78 l 5,37,-1
 151 45 l 5,38,-1
 130 17 l 5,39,-1
 95 17 l 5,40,-1
 73 45 l 5,41,-1
 81 78 l 5,35,-1
52 44 m 5,42,-1
 83 60 l 5,43,-1
 114 44 l 5,44,-1
 122 11 l 5,45,-1
 100 -16 l 5,46,-1
 66 -16 l 5,47,-1
 44 11 l 5,48,-1
 52 44 l 5,42,-1
194 284 m 5,49,-1
 226 300 l 5,50,-1
 257 284 l 5,51,-1
 264 251 l 5,52,-1
 243 223 l 5,53,-1
 208 223 l 5,54,-1
 187 251 l 5,55,-1
 194 284 l 5,49,-1
168 325 m 5,56,-1
 200 340 l 5,57,-1
 231 325 l 5,58,-1
 239 291 l 5,59,-1
 217 264 l 5,60,-1
 182 264 l 5,61,-1
 161 291 l 5,62,-1
 168 325 l 5,56,-1
141 367 m 5,63,-1
 172 382 l 5,64,-1
 204 367 l 5,65,-1
 211 333 l 5,66,-1
 190 306 l 5,67,-1
 155 306 l 5,68,-1
 133 333 l 5,69,-1
 141 367 l 5,63,-1
114 410 m 5,70,-1
 145 425 l 5,71,-1
 176 410 l 5,72,-1
 184 376 l 5,73,-1
 162 349 l 5,74,-1
 128 349 l 5,75,-1
 106 376 l 5,76,-1
 114 410 l 5,70,-1
88 450 m 5,77,-1
 119 465 l 5,78,-1
 150 450 l 5,79,-1
 158 416 l 5,80,-1
 136 389 l 5,81,-1
 102 389 l 5,82,-1
 80 416 l 5,83,-1
 88 450 l 5,77,-1
61 492 m 5,84,-1
 92 507 l 5,85,-1
 123 492 l 5,86,-1
 131 458 l 5,87,-1
 109 431 l 5,88,-1
 75 431 l 5,89,-1
 53 458 l 5,90,-1
 61 492 l 5,84,-1
232 319 m 5,91,-1
 263 334 l 5,92,-1
 295 319 l 5,93,-1
 302 285 l 5,94,-1
 281 258 l 5,95,-1
 246 258 l 5,96,-1
 224 285 l 5,97,-1
 232 319 l 5,91,-1
259 358 m 5,98,-1
 290 373 l 5,99,-1
 321 358 l 5,100,-1
 329 325 l 5,101,-1
 307 297 l 5,102,-1
 272 297 l 5,103,-1
 251 325 l 5,104,-1
 259 358 l 5,98,-1
286 400 m 5,105,-1
 318 415 l 5,106,-1
 349 400 l 5,107,-1
 357 366 l 5,108,-1
 335 339 l 5,109,-1
 300 339 l 5,110,-1
 279 366 l 5,111,-1
 286 400 l 5,105,-1
314 442 m 5,112,-1
 346 457 l 5,113,-1
 377 442 l 5,114,-1
 385 408 l 5,115,-1
 363 381 l 5,116,-1
 328 381 l 5,117,-1
 307 408 l 5,118,-1
 314 442 l 5,112,-1
342 484 m 5,119,-1
 374 499 l 5,120,-1
 405 484 l 5,121,-1
 413 450 l 5,122,-1
 391 423 l 5,123,-1
 356 423 l 5,124,-1
 335 450 l 5,125,-1
 342 484 l 5,119,-1
223 267 m 5,126,-1
 254 282 l 5,127,-1
 285 267 l 5,128,-1
 293 233 l 5,129,-1
 271 206 l 5,130,-1
 237 206 l 5,131,-1
 215 233 l 5,132,-1
 223 267 l 5,126,-1
249 227 m 5,133,-1
 280 242 l 5,134,-1
 312 227 l 5,135,-1
 319 193 l 5,136,-1
 298 166 l 5,137,-1
 263 166 l 5,138,-1
 241 193 l 5,139,-1
 249 227 l 5,133,-1
275 187 m 5,140,-1
 307 202 l 5,141,-1
 338 187 l 5,142,-1
 346 153 l 5,143,-1
 324 126 l 5,144,-1
 289 126 l 5,145,-1
 268 153 l 5,146,-1
 275 187 l 5,140,-1
303 145 m 5,147,-1
 334 160 l 5,148,-1
 365 145 l 5,149,-1
 373 111 l 5,150,-1
 352 84 l 5,151,-1
 317 84 l 5,152,-1
 295 111 l 5,153,-1
 303 145 l 5,147,-1
331 103 m 5,154,-1
 362 118 l 5,155,-1
 393 103 l 5,156,-1
 401 69 l 5,157,-1
 379 42 l 5,158,-1
 344 42 l 5,159,-1
 323 69 l 5,160,-1
 331 103 l 5,154,-1
358 61 m 5,161,-1
 389 76 l 5,162,-1
 421 61 l 5,163,-1
 428 27 l 5,164,-1
 407 0 l 5,165,-1
 372 0 l 5,166,-1
 350 27 l 5,167,-1
 358 61 l 5,161,-1
EndSplineSet
EndChar

StartChar: Y
Encoding: 89 89 47
Width: 422
Flags: W
LayerCount: 2
Fore
SplineSet
89 211 m 1,0,-1
 121 226 l 1,1,-1
 152 211 l 1,2,-1
 159 177 l 1,3,-1
 138 150 l 1,4,-1
 103 150 l 1,5,-1
 82 177 l 1,6,-1
 89 211 l 1,0,-1
122 245 m 1,7,-1
 154 260 l 1,8,-1
 185 245 l 1,9,-1
 192 211 l 1,10,-1
 171 184 l 1,11,-1
 136 184 l 1,12,-1
 115 211 l 1,13,-1
 122 245 l 1,7,-1
336 494 m 1,14,-1
 368 510 l 1,15,-1
 399 494 l 1,16,-1
 406 461 l 1,17,-1
 385 433 l 1,18,-1
 350 433 l 1,19,-1
 329 461 l 1,20,-1
 336 494 l 1,14,-1
311 451 m 1,21,-1
 343 466 l 1,22,-1
 374 451 l 1,23,-1
 381 417 l 1,24,-1
 360 390 l 1,25,-1
 325 390 l 1,26,-1
 304 417 l 1,27,-1
 311 451 l 1,21,-1
286 407 m 1,28,-1
 318 422 l 1,29,-1
 349 407 l 1,30,-1
 356 374 l 1,31,-1
 335 346 l 1,32,-1
 300 346 l 1,33,-1
 279 374 l 1,34,-1
 286 407 l 1,28,-1
261 364 m 1,35,-1
 293 379 l 1,36,-1
 324 364 l 1,37,-1
 331 330 l 1,38,-1
 310 303 l 1,39,-1
 275 303 l 1,40,-1
 254 330 l 1,41,-1
 261 364 l 1,35,-1
236 320 m 1,42,-1
 268 335 l 1,43,-1
 299 320 l 1,44,-1
 306 286 l 1,45,-1
 285 259 l 1,46,-1
 250 259 l 1,47,-1
 229 286 l 1,48,-1
 236 320 l 1,42,-1
211 277 m 1,49,-1
 243 292 l 1,50,-1
 274 277 l 1,51,-1
 281 243 l 1,52,-1
 260 216 l 1,53,-1
 225 216 l 1,54,-1
 204 243 l 1,55,-1
 211 277 l 1,49,-1
186 233 m 1,56,-1
 218 248 l 1,57,-1
 249 233 l 1,58,-1
 256 199 l 1,59,-1
 235 172 l 1,60,-1
 200 172 l 1,61,-1
 179 199 l 1,62,-1
 186 233 l 1,56,-1
176 192 m 1,63,-1
 208 207 l 1,64,-1
 239 192 l 1,65,-1
 246 158 l 1,66,-1
 225 131 l 1,67,-1
 190 131 l 1,68,-1
 169 158 l 1,69,-1
 176 192 l 1,63,-1
176 142 m 1,70,-1
 208 157 l 1,71,-1
 239 142 l 1,72,-1
 246 108 l 1,73,-1
 225 81 l 1,74,-1
 190 81 l 1,75,-1
 169 108 l 1,76,-1
 176 142 l 1,70,-1
176 92 m 1,77,-1
 208 107 l 1,78,-1
 239 92 l 1,79,-1
 246 58 l 1,80,-1
 225 31 l 1,81,-1
 190 31 l 1,82,-1
 169 58 l 1,83,-1
 176 92 l 1,77,-1
176 44 m 1,84,-1
 208 60 l 1,85,-1
 239 44 l 1,86,-1
 246 11 l 1,87,-1
 225 -16 l 1,88,-1
 190 -16 l 1,89,-1
 169 11 l 1,90,-1
 176 44 l 1,84,-1
26 486 m 1,91,-1
 57 501 l 1,92,-1
 89 486 l 1,93,-1
 96 452 l 1,94,-1
 75 425 l 1,95,-1
 40 425 l 1,96,-1
 18 452 l 1,97,-1
 26 486 l 1,91,-1
51 442 m 1,98,-1
 82 457 l 1,99,-1
 113 442 l 1,100,-1
 121 408 l 1,101,-1
 100 381 l 1,102,-1
 65 381 l 1,103,-1
 43 408 l 1,104,-1
 51 442 l 1,98,-1
74 400 m 1,105,-1
 106 415 l 1,106,-1
 137 400 l 1,107,-1
 145 366 l 1,108,-1
 123 339 l 1,109,-1
 88 339 l 1,110,-1
 67 366 l 1,111,-1
 74 400 l 1,105,-1
99 356 m 1,112,-1
 131 372 l 1,113,-1
 162 356 l 1,114,-1
 169 323 l 1,115,-1
 148 295 l 1,116,-1
 113 295 l 1,117,-1
 92 323 l 1,118,-1
 99 356 l 1,112,-1
124 313 m 1,119,-1
 155 328 l 1,120,-1
 187 313 l 1,121,-1
 194 279 l 1,122,-1
 173 252 l 1,123,-1
 138 252 l 1,124,-1
 116 279 l 1,125,-1
 124 313 l 1,119,-1
149 269 m 1,126,-1
 180 284 l 1,127,-1
 211 269 l 1,128,-1
 219 235 l 1,129,-1
 197 208 l 1,130,-1
 163 208 l 1,131,-1
 141 235 l 1,132,-1
 149 269 l 1,126,-1
EndSplineSet
EndChar

StartChar: Z
Encoding: 90 90 48
Width: 537
Flags: W
LayerCount: 2
Fore
SplineSet
35 3 m 1,0,-1
 67 19 l 1,1,-1
 98 3 l 1,2,-1
 105 -30 l 1,3,-1
 84 -57 l 1,4,-1
 49 -57 l 1,5,-1
 28 -30 l 1,6,-1
 35 3 l 1,0,-1
398 52 m 1,7,-1
 430 67 l 1,8,-1
 461 52 l 1,9,-1
 468 18 l 1,10,-1
 447 -8 l 1,11,-1
 412 -8 l 1,12,-1
 391 18 l 1,13,-1
 398 52 l 1,7,-1
358 44 m 1,14,-1
 390 60 l 1,15,-1
 421 44 l 1,16,-1
 428 11 l 1,17,-1
 407 -16 l 1,18,-1
 372 -16 l 1,19,-1
 351 11 l 1,20,-1
 358 44 l 1,14,-1
308 44 m 1,21,-1
 340 60 l 1,22,-1
 371 44 l 1,23,-1
 378 11 l 1,24,-1
 357 -16 l 1,25,-1
 322 -16 l 1,26,-1
 301 11 l 1,27,-1
 308 44 l 1,21,-1
258 44 m 1,28,-1
 290 60 l 1,29,-1
 321 44 l 1,30,-1
 328 11 l 1,31,-1
 307 -16 l 1,32,-1
 272 -16 l 1,33,-1
 251 11 l 1,34,-1
 258 44 l 1,28,-1
208 44 m 1,35,-1
 240 60 l 1,36,-1
 271 44 l 1,37,-1
 278 11 l 1,38,-1
 257 -16 l 1,39,-1
 222 -16 l 1,40,-1
 201 11 l 1,41,-1
 208 44 l 1,35,-1
158 44 m 1,42,-1
 190 60 l 1,43,-1
 221 44 l 1,44,-1
 228 11 l 1,45,-1
 207 -16 l 1,46,-1
 172 -16 l 1,47,-1
 151 11 l 1,48,-1
 158 44 l 1,42,-1
108 44 m 1,49,-1
 140 60 l 1,50,-1
 171 44 l 1,51,-1
 178 11 l 1,52,-1
 157 -16 l 1,53,-1
 122 -16 l 1,54,-1
 101 11 l 1,55,-1
 108 44 l 1,49,-1
58 44 m 1,56,-1
 90 60 l 1,57,-1
 121 44 l 1,58,-1
 128 11 l 1,59,-1
 107 -16 l 1,60,-1
 72 -16 l 1,61,-1
 51 11 l 1,62,-1
 58 44 l 1,56,-1
63 81 m 1,63,-1
 94 96 l 1,64,-1
 125 81 l 1,65,-1
 133 47 l 1,66,-1
 111 20 l 1,67,-1
 77 20 l 1,68,-1
 55 47 l 1,69,-1
 63 81 l 1,63,-1
94 120 m 1,70,-1
 126 135 l 1,71,-1
 157 120 l 1,72,-1
 165 86 l 1,73,-1
 143 59 l 1,74,-1
 108 59 l 1,75,-1
 87 86 l 1,76,-1
 94 120 l 1,70,-1
126 159 m 1,77,-1
 157 174 l 1,78,-1
 188 159 l 1,79,-1
 196 125 l 1,80,-1
 175 98 l 1,81,-1
 140 98 l 1,82,-1
 118 125 l 1,83,-1
 126 159 l 1,77,-1
158 198 m 1,84,-1
 189 213 l 1,85,-1
 220 198 l 1,86,-1
 228 164 l 1,87,-1
 206 137 l 1,88,-1
 171 137 l 1,89,-1
 150 164 l 1,90,-1
 158 198 l 1,84,-1
189 237 m 1,91,-1
 220 252 l 1,92,-1
 252 237 l 1,93,-1
 259 203 l 1,94,-1
 238 176 l 1,95,-1
 203 176 l 1,96,-1
 181 203 l 1,97,-1
 189 237 l 1,91,-1
221 275 m 1,98,-1
 252 290 l 1,99,-1
 283 275 l 1,100,-1
 291 242 l 1,101,-1
 269 214 l 1,102,-1
 235 214 l 1,103,-1
 213 242 l 1,104,-1
 221 275 l 1,98,-1
252 314 m 1,105,-1
 284 329 l 1,106,-1
 315 314 l 1,107,-1
 323 280 l 1,108,-1
 301 253 l 1,109,-1
 266 253 l 1,110,-1
 245 280 l 1,111,-1
 252 314 l 1,105,-1
284 353 m 1,112,-1
 315 368 l 1,113,-1
 346 353 l 1,114,-1
 354 319 l 1,115,-1
 333 292 l 1,116,-1
 298 292 l 1,117,-1
 276 319 l 1,118,-1
 284 353 l 1,112,-1
316 392 m 1,119,-1
 347 407 l 1,120,-1
 378 392 l 1,121,-1
 386 358 l 1,122,-1
 364 331 l 1,123,-1
 329 331 l 1,124,-1
 308 358 l 1,125,-1
 316 392 l 1,119,-1
347 431 m 1,126,-1
 378 446 l 1,127,-1
 410 431 l 1,128,-1
 417 397 l 1,129,-1
 396 370 l 1,130,-1
 361 370 l 1,131,-1
 339 397 l 1,132,-1
 347 431 l 1,126,-1
362 471 m 1,133,-1
 393 486 l 1,134,-1
 424 471 l 1,135,-1
 432 437 l 1,136,-1
 410 410 l 1,137,-1
 376 410 l 1,138,-1
 354 437 l 1,139,-1
 362 471 l 1,133,-1
88 494 m 1,140,-1
 120 510 l 1,141,-1
 151 494 l 1,142,-1
 158 461 l 1,143,-1
 137 433 l 1,144,-1
 102 433 l 1,145,-1
 81 461 l 1,146,-1
 88 494 l 1,140,-1
138 494 m 1,147,-1
 170 510 l 1,148,-1
 201 494 l 1,149,-1
 208 461 l 1,150,-1
 187 433 l 1,151,-1
 152 433 l 1,152,-1
 131 461 l 1,153,-1
 138 494 l 1,147,-1
188 494 m 1,154,-1
 220 510 l 1,155,-1
 251 494 l 1,156,-1
 258 461 l 1,157,-1
 237 433 l 1,158,-1
 202 433 l 1,159,-1
 181 461 l 1,160,-1
 188 494 l 1,154,-1
238 494 m 1,161,-1
 270 510 l 1,162,-1
 301 494 l 1,163,-1
 308 461 l 1,164,-1
 287 433 l 1,165,-1
 252 433 l 1,166,-1
 231 461 l 1,167,-1
 238 494 l 1,161,-1
288 494 m 1,168,-1
 320 510 l 1,169,-1
 351 494 l 1,170,-1
 358 461 l 1,171,-1
 337 433 l 1,172,-1
 302 433 l 1,173,-1
 281 461 l 1,174,-1
 288 494 l 1,168,-1
338 494 m 1,175,-1
 370 510 l 1,176,-1
 401 494 l 1,177,-1
 408 461 l 1,178,-1
 387 433 l 1,179,-1
 352 433 l 1,180,-1
 331 461 l 1,181,-1
 338 494 l 1,175,-1
388 494 m 1,182,-1
 420 510 l 1,183,-1
 451 494 l 1,184,-1
 458 461 l 1,185,-1
 437 433 l 1,186,-1
 402 433 l 1,187,-1
 381 461 l 1,188,-1
 388 494 l 1,182,-1
EndSplineSet
EndChar

StartChar: asciicircum
Encoding: 94 94 49
Width: 512
Flags: W
LayerCount: 2
Fore
SplineSet
262 369 m 5,0,-1
 294 384 l 5,1,-1
 325 369 l 5,2,-1
 333 335 l 5,3,-1
 311 308 l 5,4,-1
 276 308 l 5,5,-1
 255 335 l 5,6,-1
 262 369 l 5,0,-1
234 410 m 5,7,-1
 265 425 l 5,8,-1
 296 410 l 5,9,-1
 304 376 l 5,10,-1
 282 349 l 5,11,-1
 248 349 l 5,12,-1
 226 376 l 5,13,-1
 234 410 l 5,7,-1
205 451 m 5,14,-1
 236 466 l 5,15,-1
 267 451 l 5,16,-1
 275 417 l 5,17,-1
 253 390 l 5,18,-1
 219 390 l 5,19,-1
 197 417 l 5,20,-1
 205 451 l 5,14,-1
175 490 m 5,21,-1
 206 505 l 5,22,-1
 238 490 l 5,23,-1
 245 456 l 5,24,-1
 224 429 l 5,25,-1
 189 429 l 5,26,-1
 167 456 l 5,27,-1
 175 490 l 5,21,-1
142 473 m 1,28,-1
 174 488 l 1,29,-1
 205 473 l 1,30,-1
 213 440 l 1,31,-1
 191 412 l 1,32,-1
 156 412 l 1,33,-1
 135 440 l 1,34,-1
 142 473 l 1,28,-1
112 433 m 1,35,-1
 144 448 l 1,36,-1
 175 433 l 1,37,-1
 183 399 l 1,38,-1
 161 372 l 1,39,-1
 126 372 l 1,40,-1
 105 399 l 1,41,-1
 112 433 l 1,35,-1
83 393 m 1,42,-1
 114 408 l 1,43,-1
 145 393 l 1,44,-1
 153 359 l 1,45,-1
 131 332 l 1,46,-1
 96 332 l 1,47,-1
 75 359 l 1,48,-1
 83 393 l 1,42,-1
EndSplineSet
EndChar

StartChar: a
Encoding: 97 97 50
Width: 464
Flags: W
LayerCount: 2
Fore
SplineSet
351 41 m 1,0,-1
 383 57 l 1,1,-1
 414 41 l 1,2,-1
 421 8 l 1,3,-1
 400 -19 l 1,4,-1
 365 -19 l 1,5,-1
 344 8 l 1,6,-1
 351 41 l 1,0,-1
321 38 m 1,7,-1
 352 53 l 1,8,-1
 384 38 l 1,9,-1
 391 4 l 1,10,-1
 370 -22 l 1,11,-1
 335 -22 l 1,12,-1
 313 4 l 1,13,-1
 321 38 l 1,7,-1
287 69 m 1,14,-1
 318 84 l 1,15,-1
 350 69 l 1,16,-1
 357 35 l 1,17,-1
 336 8 l 1,18,-1
 301 8 l 1,19,-1
 279 35 l 1,20,-1
 287 69 l 1,14,-1
224 57 m 1,21,-1
 255 72 l 1,22,-1
 286 57 l 1,23,-1
 294 24 l 1,24,-1
 272 -3 l 1,25,-1
 238 -3 l 1,26,-1
 216 24 l 1,27,-1
 224 57 l 1,21,-1
181 40 m 1,28,-1
 212 55 l 1,29,-1
 244 40 l 1,30,-1
 251 7 l 1,31,-1
 230 -20 l 1,32,-1
 195 -20 l 1,33,-1
 173 7 l 1,34,-1
 181 40 l 1,28,-1
133 37 m 1,35,-1
 164 52 l 1,36,-1
 195 37 l 1,37,-1
 203 3 l 1,38,-1
 182 -23 l 1,39,-1
 147 -23 l 1,40,-1
 125 3 l 1,41,-1
 133 37 l 1,35,-1
84 47 m 1,42,-1
 116 62 l 1,43,-1
 147 47 l 1,44,-1
 155 13 l 1,45,-1
 133 -13 l 1,46,-1
 98 -13 l 1,47,-1
 77 13 l 1,48,-1
 84 47 l 1,42,-1
50 76 m 1,49,-1
 81 91 l 1,50,-1
 112 76 l 1,51,-1
 120 42 l 1,52,-1
 98 15 l 1,53,-1
 63 15 l 1,54,-1
 42 42 l 1,55,-1
 50 76 l 1,49,-1
42 122 m 1,56,-1
 73 137 l 1,57,-1
 104 122 l 1,58,-1
 112 88 l 1,59,-1
 90 61 l 1,60,-1
 56 61 l 1,61,-1
 34 88 l 1,62,-1
 42 122 l 1,56,-1
61 166 m 1,63,-1
 93 182 l 1,64,-1
 124 166 l 1,65,-1
 131 133 l 1,66,-1
 110 105 l 1,67,-1
 75 105 l 1,68,-1
 54 133 l 1,69,-1
 61 166 l 1,63,-1
104 189 m 1,70,-1
 136 204 l 1,71,-1
 167 189 l 1,72,-1
 175 155 l 1,73,-1
 153 128 l 1,74,-1
 118 128 l 1,75,-1
 97 155 l 1,76,-1
 104 189 l 1,70,-1
151 201 m 1,77,-1
 182 216 l 1,78,-1
 213 201 l 1,79,-1
 221 167 l 1,80,-1
 199 140 l 1,81,-1
 165 140 l 1,82,-1
 143 167 l 1,83,-1
 151 201 l 1,77,-1
56 314 m 1,84,-1
 88 329 l 1,85,-1
 119 314 l 1,86,-1
 126 280 l 1,87,-1
 105 253 l 1,88,-1
 70 253 l 1,89,-1
 49 280 l 1,90,-1
 56 314 l 1,84,-1
79 348 m 1,91,-1
 110 363 l 1,92,-1
 141 348 l 1,93,-1
 149 314 l 1,94,-1
 127 287 l 1,95,-1
 93 287 l 1,96,-1
 71 314 l 1,97,-1
 79 348 l 1,91,-1
120 372 m 1,98,-1
 151 387 l 1,99,-1
 182 372 l 1,100,-1
 190 338 l 1,101,-1
 168 311 l 1,102,-1
 134 311 l 1,103,-1
 112 338 l 1,104,-1
 120 372 l 1,98,-1
168 381 m 1,105,-1
 199 396 l 1,106,-1
 231 381 l 1,107,-1
 238 347 l 1,108,-1
 217 320 l 1,109,-1
 182 320 l 1,110,-1
 160 347 l 1,111,-1
 168 381 l 1,105,-1
215 378 m 1,112,-1
 246 393 l 1,113,-1
 277 378 l 1,114,-1
 285 344 l 1,115,-1
 263 317 l 1,116,-1
 228 317 l 1,117,-1
 207 344 l 1,118,-1
 215 378 l 1,112,-1
260 357 m 1,119,-1
 291 372 l 1,120,-1
 322 357 l 1,121,-1
 330 323 l 1,122,-1
 309 296 l 1,123,-1
 274 296 l 1,124,-1
 252 323 l 1,125,-1
 260 357 l 1,119,-1
291 322 m 1,126,-1
 322 337 l 1,127,-1
 354 322 l 1,128,-1
 361 288 l 1,129,-1
 340 261 l 1,130,-1
 305 261 l 1,131,-1
 283 288 l 1,132,-1
 291 322 l 1,126,-1
301 271 m 1,133,-1
 333 287 l 1,134,-1
 364 271 l 1,135,-1
 371 238 l 1,136,-1
 350 210 l 1,137,-1
 315 210 l 1,138,-1
 294 238 l 1,139,-1
 301 271 l 1,133,-1
301 226 m 1,140,-1
 333 242 l 1,141,-1
 364 226 l 1,142,-1
 371 193 l 1,143,-1
 350 165 l 1,144,-1
 315 165 l 1,145,-1
 294 193 l 1,146,-1
 301 226 l 1,140,-1
351 41 m 1,147,-1
 383 57 l 1,148,-1
 414 41 l 1,149,-1
 421 8 l 1,150,-1
 400 -19 l 1,151,-1
 365 -19 l 1,152,-1
 344 8 l 1,153,-1
 351 41 l 1,147,-1
246 71 m 1,154,-1
 278 87 l 1,155,-1
 309 71 l 1,156,-1
 316 38 l 1,157,-1
 295 10 l 1,158,-1
 260 10 l 1,159,-1
 239 38 l 1,160,-1
 246 71 l 1,154,-1
276 108 m 1,161,-1
 308 123 l 1,162,-1
 339 108 l 1,163,-1
 346 74 l 1,164,-1
 325 47 l 1,165,-1
 290 47 l 1,166,-1
 269 74 l 1,167,-1
 276 108 l 1,161,-1
301 156 m 1,168,-1
 333 172 l 1,169,-1
 364 156 l 1,170,-1
 371 123 l 1,171,-1
 350 95 l 1,172,-1
 315 95 l 1,173,-1
 294 123 l 1,174,-1
 301 156 l 1,168,-1
301 201 m 1,175,-1
 332 216 l 1,176,-1
 363 201 l 1,177,-1
 371 167 l 1,178,-1
 349 140 l 1,179,-1
 315 140 l 1,180,-1
 293 167 l 1,181,-1
 301 201 l 1,175,-1
249 220 m 1,182,-1
 280 235 l 1,183,-1
 311 220 l 1,184,-1
 319 186 l 1,185,-1
 298 159 l 1,186,-1
 263 159 l 1,187,-1
 241 186 l 1,188,-1
 249 220 l 1,182,-1
200 208 m 1,189,-1
 231 223 l 1,190,-1
 263 208 l 1,191,-1
 270 174 l 1,192,-1
 249 147 l 1,193,-1
 214 147 l 1,194,-1
 192 174 l 1,195,-1
 200 208 l 1,189,-1
EndSplineSet
EndChar

StartChar: b
Encoding: 98 98 51
Width: 504
Flags: W
LayerCount: 2
Fore
SplineSet
109 296 m 5,0,-1
 141 311 l 5,1,-1
 172 296 l 5,2,-1
 180 262 l 5,3,-1
 158 235 l 5,4,-1
 123 235 l 5,5,-1
 102 262 l 5,6,-1
 109 296 l 5,0,-1
80 256 m 5,7,-1
 111 271 l 5,8,-1
 142 256 l 5,9,-1
 150 222 l 5,10,-1
 128 195 l 5,11,-1
 93 195 l 5,12,-1
 72 222 l 5,13,-1
 80 256 l 5,7,-1
50 215 m 5,14,-1
 81 231 l 5,15,-1
 112 215 l 5,16,-1
 120 182 l 5,17,-1
 98 156 l 5,18,-1
 64 156 l 5,19,-1
 42 182 l 5,20,-1
 50 215 l 5,14,-1
132 131 m 1,21,-1
 164 146 l 1,22,-1
 195 131 l 1,23,-1
 203 97 l 1,24,-1
 181 70 l 1,25,-1
 146 70 l 1,26,-1
 125 97 l 1,27,-1
 132 131 l 1,21,-1
103 91 m 1,28,-1
 134 106 l 1,29,-1
 165 91 l 1,30,-1
 173 57 l 1,31,-1
 151 30 l 1,32,-1
 116 30 l 1,33,-1
 95 57 l 1,34,-1
 103 91 l 1,28,-1
73 50 m 1,35,-1
 104 66 l 1,36,-1
 135 50 l 1,37,-1
 143 17 l 1,38,-1
 121 -9 l 1,39,-1
 87 -9 l 1,40,-1
 65 17 l 1,41,-1
 73 50 l 1,35,-1
238 384 m 1,42,-1
 270 400 l 1,43,-1
 301 384 l 1,44,-1
 308 351 l 1,45,-1
 287 323 l 1,46,-1
 252 323 l 1,47,-1
 231 351 l 1,48,-1
 238 384 l 1,42,-1
288 376 m 1,49,-1
 319 391 l 1,50,-1
 350 376 l 1,51,-1
 358 342 l 1,52,-1
 336 315 l 1,53,-1
 301 315 l 1,54,-1
 280 342 l 1,55,-1
 288 376 l 1,49,-1
330 349 m 1,56,-1
 361 364 l 1,57,-1
 393 349 l 1,58,-1
 400 315 l 1,59,-1
 379 288 l 1,60,-1
 344 288 l 1,61,-1
 322 315 l 1,62,-1
 330 349 l 1,56,-1
361 312 m 1,63,-1
 393 327 l 1,64,-1
 424 312 l 1,65,-1
 432 278 l 1,66,-1
 410 251 l 1,67,-1
 375 251 l 1,68,-1
 354 278 l 1,69,-1
 361 312 l 1,63,-1
381 268 m 1,70,-1
 412 283 l 1,71,-1
 443 268 l 1,72,-1
 451 234 l 1,73,-1
 430 207 l 1,74,-1
 395 207 l 1,75,-1
 373 234 l 1,76,-1
 381 268 l 1,70,-1
388 218 m 1,77,-1
 419 233 l 1,78,-1
 451 218 l 1,79,-1
 458 184 l 1,80,-1
 437 157 l 1,81,-1
 402 157 l 1,82,-1
 380 184 l 1,83,-1
 388 218 l 1,77,-1
385 170 m 1,84,-1
 416 185 l 1,85,-1
 448 170 l 1,86,-1
 455 136 l 1,87,-1
 434 109 l 1,88,-1
 399 109 l 1,89,-1
 377 136 l 1,90,-1
 385 170 l 1,84,-1
370 122 m 1,91,-1
 402 137 l 1,92,-1
 433 122 l 1,93,-1
 441 89 l 1,94,-1
 419 61 l 1,95,-1
 384 61 l 1,96,-1
 363 89 l 1,97,-1
 370 122 l 1,91,-1
343 84 m 1,98,-1
 375 100 l 1,99,-1
 406 84 l 1,100,-1
 413 51 l 1,101,-1
 392 23 l 1,102,-1
 357 23 l 1,103,-1
 336 51 l 1,104,-1
 343 84 l 1,98,-1
303 54 m 1,105,-1
 334 69 l 1,106,-1
 366 54 l 1,107,-1
 373 20 l 1,108,-1
 352 -6 l 1,109,-1
 317 -6 l 1,110,-1
 295 20 l 1,111,-1
 303 54 l 1,105,-1
256 40 m 1,112,-1
 287 55 l 1,113,-1
 318 40 l 1,114,-1
 326 6 l 1,115,-1
 305 -20 l 1,116,-1
 270 -20 l 1,117,-1
 248 6 l 1,118,-1
 256 40 l 1,112,-1
208 42 m 1,119,-1
 239 57 l 1,120,-1
 271 42 l 1,121,-1
 278 9 l 1,122,-1
 257 -18 l 1,123,-1
 222 -18 l 1,124,-1
 200 9 l 1,125,-1
 208 42 l 1,119,-1
165 60 m 1,126,-1
 197 75 l 1,127,-1
 228 60 l 1,128,-1
 236 26 l 1,129,-1
 214 0 l 1,130,-1
 179 0 l 1,131,-1
 158 26 l 1,132,-1
 165 60 l 1,126,-1
91 549 m 1,133,-1
 122 565 l 1,134,-1
 153 549 l 1,135,-1
 161 516 l 1,136,-1
 139 488 l 1,137,-1
 105 488 l 1,138,-1
 83 516 l 1,139,-1
 91 549 l 1,133,-1
93 504 m 1,140,-1
 125 520 l 1,141,-1
 156 504 l 1,142,-1
 163 471 l 1,143,-1
 142 443 l 1,144,-1
 107 443 l 1,145,-1
 86 471 l 1,146,-1
 93 504 l 1,140,-1
93 454 m 1,147,-1
 125 470 l 1,148,-1
 156 454 l 1,149,-1
 163 421 l 1,150,-1
 142 393 l 1,151,-1
 107 393 l 1,152,-1
 86 421 l 1,153,-1
 93 454 l 1,147,-1
93 404 m 1,154,-1
 125 420 l 1,155,-1
 156 404 l 1,156,-1
 163 371 l 1,157,-1
 142 343 l 1,158,-1
 107 343 l 1,159,-1
 86 371 l 1,160,-1
 93 404 l 1,154,-1
93 354 m 1,161,-1
 125 370 l 1,162,-1
 156 354 l 1,163,-1
 163 321 l 1,164,-1
 142 293 l 1,165,-1
 107 293 l 1,166,-1
 86 321 l 1,167,-1
 93 354 l 1,161,-1
178 369 m 1,168,-1
 210 385 l 1,169,-1
 241 369 l 1,170,-1
 248 336 l 1,171,-1
 227 308 l 1,172,-1
 192 308 l 1,173,-1
 171 336 l 1,174,-1
 178 369 l 1,168,-1
225 384 m 1,175,-1
 256 399 l 1,176,-1
 287 384 l 1,177,-1
 295 350 l 1,178,-1
 273 323 l 1,179,-1
 239 323 l 1,180,-1
 217 350 l 1,181,-1
 225 384 l 1,175,-1
238 384 m 1,182,-1
 270 400 l 1,183,-1
 301 384 l 1,184,-1
 308 351 l 1,185,-1
 287 323 l 1,186,-1
 252 323 l 1,187,-1
 231 351 l 1,188,-1
 238 384 l 1,182,-1
141 339 m 1,189,-1
 173 354 l 1,190,-1
 204 339 l 1,191,-1
 212 305 l 1,192,-1
 190 278 l 1,193,-1
 155 278 l 1,194,-1
 134 305 l 1,195,-1
 141 339 l 1,189,-1
113 301 m 1,196,-1
 145 316 l 1,197,-1
 176 301 l 1,198,-1
 184 268 l 1,199,-1
 162 240 l 1,200,-1
 127 240 l 1,201,-1
 106 268 l 1,202,-1
 113 301 l 1,196,-1
97 254 m 1,203,-1
 129 269 l 1,204,-1
 160 254 l 1,205,-1
 168 220 l 1,206,-1
 146 193 l 1,207,-1
 111 193 l 1,208,-1
 90 220 l 1,209,-1
 97 254 l 1,203,-1
93 207 m 1,210,-1
 125 222 l 1,211,-1
 156 207 l 1,212,-1
 164 173 l 1,213,-1
 142 146 l 1,214,-1
 107 146 l 1,215,-1
 86 173 l 1,216,-1
 93 207 l 1,210,-1
98 159 m 1,217,-1
 129 174 l 1,218,-1
 160 159 l 1,219,-1
 168 125 l 1,220,-1
 147 98 l 1,221,-1
 112 98 l 1,222,-1
 90 125 l 1,223,-1
 98 159 l 1,217,-1
115 110 m 1,224,-1
 146 125 l 1,225,-1
 178 110 l 1,226,-1
 185 76 l 1,227,-1
 164 49 l 1,228,-1
 129 49 l 1,229,-1
 107 76 l 1,230,-1
 115 110 l 1,224,-1
145 73 m 1,231,-1
 177 88 l 1,232,-1
 208 73 l 1,233,-1
 215 39 l 1,234,-1
 194 12 l 1,235,-1
 159 12 l 1,236,-1
 138 39 l 1,237,-1
 145 73 l 1,231,-1
EndSplineSet
EndChar

StartChar: c
Encoding: 99 99 52
Width: 452
Flags: W
LayerCount: 2
Fore
SplineSet
99 140 m 5,0,-1
 131 155 l 5,1,-1
 162 140 l 5,2,-1
 170 106 l 5,3,-1
 148 79 l 5,4,-1
 113 79 l 5,5,-1
 92 106 l 5,6,-1
 99 140 l 5,0,-1
70 100 m 5,7,-1
 101 115 l 5,8,-1
 132 100 l 5,9,-1
 140 66 l 5,10,-1
 118 39 l 5,11,-1
 83 39 l 5,12,-1
 62 66 l 5,13,-1
 70 100 l 5,7,-1
40 59 m 5,14,-1
 71 75 l 5,15,-1
 102 59 l 5,16,-1
 110 26 l 5,17,-1
 88 0 l 5,18,-1
 54 0 l 5,19,-1
 32 26 l 5,20,-1
 40 59 l 5,14,-1
207 382 m 5,21,-1
 239 398 l 5,22,-1
 270 382 l 5,23,-1
 277 349 l 5,24,-1
 256 321 l 5,25,-1
 221 321 l 5,26,-1
 200 349 l 5,27,-1
 207 382 l 5,21,-1
258 374 m 5,28,-1
 289 389 l 5,29,-1
 320 374 l 5,30,-1
 328 340 l 5,31,-1
 306 313 l 5,32,-1
 271 313 l 5,33,-1
 250 340 l 5,34,-1
 258 374 l 5,28,-1
300 348 m 5,35,-1
 331 363 l 5,36,-1
 362 348 l 5,37,-1
 370 314 l 5,38,-1
 349 287 l 5,39,-1
 314 287 l 5,40,-1
 292 314 l 5,41,-1
 300 348 l 5,35,-1
325 311 m 5,42,-1
 356 326 l 5,43,-1
 387 311 l 5,44,-1
 395 277 l 5,45,-1
 373 250 l 5,46,-1
 339 250 l 5,47,-1
 317 277 l 5,48,-1
 325 311 l 5,42,-1
318 84 m 5,49,-1
 349 99 l 5,50,-1
 380 84 l 5,51,-1
 388 50 l 5,52,-1
 366 23 l 5,53,-1
 332 23 l 5,54,-1
 310 50 l 5,55,-1
 318 84 l 5,49,-1
282 52 m 5,56,-1
 313 67 l 5,57,-1
 345 52 l 5,58,-1
 352 18 l 5,59,-1
 331 -8 l 5,60,-1
 296 -8 l 5,61,-1
 274 18 l 5,62,-1
 282 52 l 5,56,-1
234 39 m 5,63,-1
 265 54 l 5,64,-1
 296 39 l 5,65,-1
 304 5 l 5,66,-1
 282 -21 l 5,67,-1
 248 -21 l 5,68,-1
 226 5 l 5,69,-1
 234 39 l 5,63,-1
186 38 m 5,70,-1
 217 53 l 5,71,-1
 248 38 l 5,72,-1
 256 5 l 5,73,-1
 234 -22 l 5,74,-1
 200 -22 l 5,75,-1
 178 5 l 5,76,-1
 186 38 l 5,70,-1
139 50 m 5,77,-1
 170 65 l 5,78,-1
 201 50 l 5,79,-1
 209 16 l 5,80,-1
 187 -10 l 5,81,-1
 153 -10 l 5,82,-1
 131 16 l 5,83,-1
 139 50 l 5,77,-1
97 78 m 5,84,-1
 128 93 l 5,85,-1
 159 78 l 5,86,-1
 167 44 l 5,87,-1
 145 17 l 5,88,-1
 111 17 l 5,89,-1
 89 44 l 5,90,-1
 97 78 l 5,84,-1
68 114 m 5,91,-1
 100 129 l 5,92,-1
 131 114 l 5,93,-1
 139 81 l 5,94,-1
 117 53 l 5,95,-1
 82 53 l 5,96,-1
 61 81 l 5,97,-1
 68 114 l 5,91,-1
51 163 m 5,98,-1
 83 178 l 5,99,-1
 114 163 l 5,100,-1
 121 129 l 5,101,-1
 100 102 l 5,102,-1
 65 102 l 5,103,-1
 44 129 l 5,104,-1
 51 163 l 5,98,-1
47 207 m 5,105,-1
 79 223 l 5,106,-1
 110 207 l 5,107,-1
 117 174 l 5,108,-1
 96 146 l 5,109,-1
 61 146 l 5,110,-1
 40 174 l 5,111,-1
 47 207 l 5,105,-1
53 259 m 5,112,-1
 84 274 l 5,113,-1
 115 259 l 5,114,-1
 123 225 l 5,115,-1
 101 198 l 5,116,-1
 67 198 l 5,117,-1
 45 225 l 5,118,-1
 53 259 l 5,112,-1
71 304 m 5,119,-1
 102 319 l 5,120,-1
 133 304 l 5,121,-1
 141 271 l 5,122,-1
 119 243 l 5,123,-1
 84 243 l 5,124,-1
 63 271 l 5,125,-1
 71 304 l 5,119,-1
100 341 m 5,126,-1
 131 356 l 5,127,-1
 162 341 l 5,128,-1
 170 307 l 5,129,-1
 148 280 l 5,130,-1
 114 280 l 5,131,-1
 92 307 l 5,132,-1
 100 341 l 5,126,-1
142 370 m 5,133,-1
 173 385 l 5,134,-1
 205 370 l 5,135,-1
 212 337 l 5,136,-1
 191 309 l 5,137,-1
 156 309 l 5,138,-1
 134 337 l 5,139,-1
 142 370 l 5,133,-1
189 382 m 5,140,-1
 220 397 l 5,141,-1
 251 382 l 5,142,-1
 259 348 l 5,143,-1
 237 321 l 5,144,-1
 203 321 l 5,145,-1
 181 348 l 5,146,-1
 189 382 l 5,140,-1
EndSplineSet
EndChar

StartChar: d
Encoding: 100 100 53
Width: 500
Flags: W
LayerCount: 2
Fore
SplineSet
118 142 m 5,0,-1
 150 157 l 5,1,-1
 181 142 l 5,2,-1
 189 108 l 5,3,-1
 167 81 l 5,4,-1
 132 81 l 5,5,-1
 111 108 l 5,6,-1
 118 142 l 5,0,-1
89 102 m 5,7,-1
 120 117 l 5,8,-1
 151 102 l 5,9,-1
 159 68 l 5,10,-1
 137 41 l 5,11,-1
 102 41 l 5,12,-1
 81 68 l 5,13,-1
 89 102 l 5,7,-1
59 61 m 5,14,-1
 90 77 l 5,15,-1
 121 61 l 5,16,-1
 129 28 l 5,17,-1
 107 2 l 5,18,-1
 73 2 l 5,19,-1
 51 28 l 5,20,-1
 59 61 l 5,14,-1
362 515 m 5,21,-1
 394 530 l 5,22,-1
 425 515 l 5,23,-1
 432 481 l 5,24,-1
 411 454 l 5,25,-1
 376 454 l 5,26,-1
 355 481 l 5,27,-1
 362 515 l 5,21,-1
362 465 m 5,28,-1
 394 480 l 5,29,-1
 425 465 l 5,30,-1
 432 431 l 5,31,-1
 411 404 l 5,32,-1
 376 404 l 5,33,-1
 355 431 l 5,34,-1
 362 465 l 5,28,-1
362 415 m 5,35,-1
 394 430 l 5,36,-1
 425 415 l 5,37,-1
 432 381 l 5,38,-1
 411 354 l 5,39,-1
 376 354 l 5,40,-1
 355 381 l 5,41,-1
 362 415 l 5,35,-1
362 365 m 5,42,-1
 394 380 l 5,43,-1
 425 365 l 5,44,-1
 432 331 l 5,45,-1
 411 304 l 5,46,-1
 376 304 l 5,47,-1
 355 331 l 5,48,-1
 362 365 l 5,42,-1
362 315 m 5,49,-1
 394 330 l 5,50,-1
 425 315 l 5,51,-1
 432 281 l 5,52,-1
 411 254 l 5,53,-1
 376 254 l 5,54,-1
 355 281 l 5,55,-1
 362 315 l 5,49,-1
352 55 m 5,56,-1
 384 70 l 5,57,-1
 415 55 l 5,58,-1
 422 21 l 5,59,-1
 401 -5 l 5,60,-1
 366 -5 l 5,61,-1
 345 21 l 5,62,-1
 352 55 l 5,56,-1
350 102 m 5,63,-1
 381 117 l 5,64,-1
 412 102 l 5,65,-1
 420 68 l 5,66,-1
 398 41 l 5,67,-1
 364 41 l 5,68,-1
 342 68 l 5,69,-1
 350 102 l 5,63,-1
197 38 m 5,70,-1
 228 53 l 5,71,-1
 260 38 l 5,72,-1
 267 4 l 5,73,-1
 246 -22 l 5,74,-1
 211 -22 l 5,75,-1
 189 4 l 5,76,-1
 197 38 l 5,70,-1
148 47 m 5,77,-1
 179 62 l 5,78,-1
 210 47 l 5,79,-1
 218 13 l 5,80,-1
 196 -13 l 5,81,-1
 162 -13 l 5,82,-1
 140 13 l 5,83,-1
 148 47 l 5,77,-1
105 74 m 5,84,-1
 137 89 l 5,85,-1
 168 74 l 5,86,-1
 176 40 l 5,87,-1
 154 13 l 5,88,-1
 119 13 l 5,89,-1
 98 40 l 5,90,-1
 105 74 l 5,84,-1
76 110 m 5,91,-1
 107 126 l 5,92,-1
 138 110 l 5,93,-1
 146 77 l 5,94,-1
 124 49 l 5,95,-1
 89 49 l 5,96,-1
 68 77 l 5,97,-1
 76 110 l 5,91,-1
58 156 m 5,98,-1
 89 171 l 5,99,-1
 120 156 l 5,100,-1
 128 122 l 5,101,-1
 106 95 l 5,102,-1
 72 95 l 5,103,-1
 50 122 l 5,104,-1
 58 156 l 5,98,-1
52 207 m 5,105,-1
 83 223 l 5,106,-1
 115 207 l 5,107,-1
 122 174 l 5,108,-1
 101 146 l 5,109,-1
 66 146 l 5,110,-1
 45 174 l 5,111,-1
 52 207 l 5,105,-1
57 254 m 5,112,-1
 88 269 l 5,113,-1
 119 254 l 5,114,-1
 127 220 l 5,115,-1
 105 193 l 5,116,-1
 70 193 l 5,117,-1
 49 220 l 5,118,-1
 57 254 l 5,112,-1
73 300 m 5,119,-1
 104 315 l 5,120,-1
 135 300 l 5,121,-1
 143 266 l 5,122,-1
 121 239 l 5,123,-1
 86 239 l 5,124,-1
 65 266 l 5,125,-1
 73 300 l 5,119,-1
101 339 m 5,126,-1
 132 354 l 5,127,-1
 163 339 l 5,128,-1
 171 305 l 5,129,-1
 149 278 l 5,130,-1
 115 278 l 5,131,-1
 93 305 l 5,132,-1
 101 339 l 5,126,-1
141 368 m 5,133,-1
 172 383 l 5,134,-1
 203 368 l 5,135,-1
 211 334 l 5,136,-1
 190 307 l 5,137,-1
 155 307 l 5,138,-1
 133 334 l 5,139,-1
 141 368 l 5,133,-1
188 381 m 5,140,-1
 219 396 l 5,141,-1
 250 381 l 5,142,-1
 258 347 l 5,143,-1
 236 320 l 5,144,-1
 202 320 l 5,145,-1
 180 347 l 5,146,-1
 188 381 l 5,140,-1
236 380 m 5,147,-1
 267 395 l 5,148,-1
 299 380 l 5,149,-1
 306 346 l 5,150,-1
 285 319 l 5,151,-1
 250 319 l 5,152,-1
 228 346 l 5,153,-1
 236 380 l 5,147,-1
279 359 m 5,154,-1
 310 374 l 5,155,-1
 341 359 l 5,156,-1
 349 326 l 5,157,-1
 327 298 l 5,158,-1
 293 298 l 5,159,-1
 271 326 l 5,160,-1
 279 359 l 5,154,-1
347 547 m 5,161,-1
 379 563 l 5,162,-1
 410 547 l 5,163,-1
 417 514 l 5,164,-1
 396 486 l 5,165,-1
 361 486 l 5,166,-1
 340 514 l 5,167,-1
 347 547 l 5,161,-1
257 51 m 5,168,-1
 288 66 l 5,169,-1
 319 51 l 5,170,-1
 327 17 l 5,171,-1
 305 -9 l 5,172,-1
 270 -9 l 5,173,-1
 249 17 l 5,174,-1
 257 51 l 5,168,-1
299 78 m 5,175,-1
 330 93 l 5,176,-1
 362 78 l 5,177,-1
 369 44 l 5,178,-1
 348 17 l 5,179,-1
 313 17 l 5,180,-1
 291 44 l 5,181,-1
 299 78 l 5,175,-1
328 117 m 5,182,-1
 359 132 l 5,183,-1
 390 117 l 5,184,-1
 398 83 l 5,185,-1
 376 56 l 5,186,-1
 341 56 l 5,187,-1
 320 83 l 5,188,-1
 328 117 l 5,182,-1
343 164 m 5,189,-1
 374 179 l 5,190,-1
 406 164 l 5,191,-1
 413 130 l 5,192,-1
 392 103 l 5,193,-1
 357 103 l 5,194,-1
 335 130 l 5,195,-1
 343 164 l 5,189,-1
347 212 m 5,196,-1
 379 227 l 5,197,-1
 410 212 l 5,198,-1
 417 179 l 5,199,-1
 396 151 l 5,200,-1
 361 151 l 5,201,-1
 340 179 l 5,202,-1
 347 212 l 5,196,-1
343 260 m 5,203,-1
 374 275 l 5,204,-1
 405 260 l 5,205,-1
 413 226 l 5,206,-1
 391 199 l 5,207,-1
 357 199 l 5,208,-1
 335 226 l 5,209,-1
 343 260 l 5,203,-1
326 306 m 5,210,-1
 357 321 l 5,211,-1
 388 306 l 5,212,-1
 396 273 l 5,213,-1
 375 245 l 5,214,-1
 340 245 l 5,215,-1
 318 273 l 5,216,-1
 326 306 l 5,210,-1
297 343 m 5,217,-1
 328 358 l 5,218,-1
 359 343 l 5,219,-1
 367 309 l 5,220,-1
 345 282 l 5,221,-1
 310 282 l 5,222,-1
 289 309 l 5,223,-1
 297 343 l 5,217,-1
EndSplineSet
EndChar

StartChar: e
Encoding: 101 101 54
Width: 480
Flags: W
LayerCount: 2
Fore
SplineSet
25 162 m 1,0,-1
 56 177 l 1,1,-1
 88 162 l 1,2,-1
 95 128 l 1,3,-1
 74 101 l 1,4,-1
 39 101 l 1,5,-1
 17 128 l 1,6,-1
 25 162 l 1,0,-1
338 212 m 1,7,-1
 369 228 l 1,8,-1
 400 212 l 1,9,-1
 408 179 l 1,10,-1
 386 151 l 1,11,-1
 352 151 l 1,12,-1
 330 179 l 1,13,-1
 338 212 l 1,7,-1
288 212 m 1,14,-1
 319 228 l 1,15,-1
 350 212 l 1,16,-1
 358 179 l 1,17,-1
 336 151 l 1,18,-1
 302 151 l 1,19,-1
 280 179 l 1,20,-1
 288 212 l 1,14,-1
238 212 m 1,21,-1
 269 228 l 1,22,-1
 300 212 l 1,23,-1
 308 179 l 1,24,-1
 286 151 l 1,25,-1
 252 151 l 1,26,-1
 230 179 l 1,27,-1
 238 212 l 1,21,-1
188 212 m 1,28,-1
 219 228 l 1,29,-1
 250 212 l 1,30,-1
 258 179 l 1,31,-1
 236 151 l 1,32,-1
 202 151 l 1,33,-1
 180 179 l 1,34,-1
 188 212 l 1,28,-1
138 212 m 1,35,-1
 169 228 l 1,36,-1
 200 212 l 1,37,-1
 208 179 l 1,38,-1
 186 151 l 1,39,-1
 152 151 l 1,40,-1
 130 179 l 1,41,-1
 138 212 l 1,35,-1
340 92 m 1,42,-1
 372 108 l 1,43,-1
 403 92 l 1,44,-1
 410 59 l 1,45,-1
 389 31 l 1,46,-1
 354 31 l 1,47,-1
 333 59 l 1,48,-1
 340 92 l 1,42,-1
314 60 m 1,49,-1
 345 75 l 1,50,-1
 377 60 l 1,51,-1
 384 26 l 1,52,-1
 363 -1 l 1,53,-1
 328 -1 l 1,54,-1
 306 26 l 1,55,-1
 314 60 l 1,49,-1
269 42 m 1,56,-1
 301 57 l 1,57,-1
 332 42 l 1,58,-1
 340 8 l 1,59,-1
 318 -18 l 1,60,-1
 283 -18 l 1,61,-1
 262 8 l 1,62,-1
 269 42 l 1,56,-1
222 37 m 1,63,-1
 254 53 l 1,64,-1
 285 37 l 1,65,-1
 293 4 l 1,66,-1
 271 -23 l 1,67,-1
 236 -23 l 1,68,-1
 215 4 l 1,69,-1
 222 37 l 1,63,-1
172 44 m 1,70,-1
 203 59 l 1,71,-1
 235 44 l 1,72,-1
 242 10 l 1,73,-1
 221 -16 l 1,74,-1
 186 -16 l 1,75,-1
 164 10 l 1,76,-1
 172 44 l 1,70,-1
128 66 m 1,77,-1
 159 81 l 1,78,-1
 191 66 l 1,79,-1
 198 32 l 1,80,-1
 177 5 l 1,81,-1
 142 5 l 1,82,-1
 120 32 l 1,83,-1
 128 66 l 1,77,-1
95 101 m 1,84,-1
 126 116 l 1,85,-1
 157 101 l 1,86,-1
 165 67 l 1,87,-1
 143 40 l 1,88,-1
 108 40 l 1,89,-1
 87 67 l 1,90,-1
 95 101 l 1,84,-1
73 146 m 1,91,-1
 104 161 l 1,92,-1
 136 146 l 1,93,-1
 143 112 l 1,94,-1
 122 85 l 1,95,-1
 87 85 l 1,96,-1
 65 112 l 1,97,-1
 73 146 l 1,91,-1
65 196 m 1,98,-1
 97 211 l 1,99,-1
 128 196 l 1,100,-1
 136 163 l 1,101,-1
 114 135 l 1,102,-1
 79 135 l 1,103,-1
 58 163 l 1,104,-1
 65 196 l 1,98,-1
79 290 m 1,105,-1
 110 305 l 1,106,-1
 142 290 l 1,107,-1
 149 256 l 1,108,-1
 128 229 l 1,109,-1
 93 229 l 1,110,-1
 71 256 l 1,111,-1
 79 290 l 1,105,-1
105 332 m 1,112,-1
 136 348 l 1,113,-1
 168 332 l 1,114,-1
 175 299 l 1,115,-1
 154 271 l 1,116,-1
 119 271 l 1,117,-1
 98 299 l 1,118,-1
 105 332 l 1,112,-1
142 363 m 1,119,-1
 173 378 l 1,120,-1
 205 363 l 1,121,-1
 212 329 l 1,122,-1
 191 302 l 1,123,-1
 156 302 l 1,124,-1
 134 329 l 1,125,-1
 142 363 l 1,119,-1
190 380 m 1,126,-1
 222 395 l 1,127,-1
 253 380 l 1,128,-1
 261 346 l 1,129,-1
 239 319 l 1,130,-1
 204 319 l 1,131,-1
 183 346 l 1,132,-1
 190 380 l 1,126,-1
235 382 m 1,133,-1
 267 397 l 1,134,-1
 298 382 l 1,135,-1
 306 348 l 1,136,-1
 284 321 l 1,137,-1
 249 321 l 1,138,-1
 228 348 l 1,139,-1
 235 382 l 1,133,-1
285 368 m 1,140,-1
 316 383 l 1,141,-1
 348 368 l 1,142,-1
 355 334 l 1,143,-1
 334 307 l 1,144,-1
 299 307 l 1,145,-1
 277 334 l 1,146,-1
 285 368 l 1,140,-1
324 339 m 1,147,-1
 355 354 l 1,148,-1
 386 339 l 1,149,-1
 394 305 l 1,150,-1
 372 278 l 1,151,-1
 338 278 l 1,152,-1
 316 305 l 1,153,-1
 324 339 l 1,147,-1
352 300 m 1,154,-1
 383 315 l 1,155,-1
 414 300 l 1,156,-1
 422 266 l 1,157,-1
 400 239 l 1,158,-1
 366 239 l 1,159,-1
 344 266 l 1,160,-1
 352 300 l 1,154,-1
82 256 m 1,161,-1
 113 271 l 1,162,-1
 144 256 l 1,163,-1
 152 222 l 1,164,-1
 130 195 l 1,165,-1
 96 195 l 1,166,-1
 74 222 l 1,167,-1
 82 256 l 1,161,-1
103 223 m 1,168,-1
 134 238 l 1,169,-1
 165 223 l 1,170,-1
 173 189 l 1,171,-1
 151 162 l 1,172,-1
 117 162 l 1,173,-1
 95 189 l 1,174,-1
 103 223 l 1,168,-1
343 230 m 1,175,-1
 374 245 l 1,176,-1
 405 230 l 1,177,-1
 413 196 l 1,178,-1
 391 169 l 1,179,-1
 357 169 l 1,180,-1
 335 196 l 1,181,-1
 343 230 l 1,175,-1
344 276 m 1,182,-1
 376 291 l 1,183,-1
 407 276 l 1,184,-1
 415 243 l 1,185,-1
 393 215 l 1,186,-1
 358 215 l 1,187,-1
 337 243 l 1,188,-1
 344 276 l 1,182,-1
EndSplineSet
EndChar

StartChar: f
Encoding: 102 102 55
Width: 330
Flags: W
LayerCount: 2
Fore
SplineSet
120 412 m 5,0,-1
 152 428 l 5,1,-1
 183 412 l 5,2,-1
 190 379 l 5,3,-1
 169 351 l 5,4,-1
 134 351 l 5,5,-1
 113 379 l 5,6,-1
 120 412 l 5,0,-1
128 362 m 1,7,-1
 160 378 l 1,8,-1
 191 362 l 1,9,-1
 198 329 l 1,10,-1
 177 301 l 1,11,-1
 142 301 l 1,12,-1
 121 329 l 1,13,-1
 128 362 l 1,7,-1
178 362 m 1,14,-1
 210 378 l 1,15,-1
 241 362 l 1,16,-1
 248 329 l 1,17,-1
 227 301 l 1,18,-1
 192 301 l 1,19,-1
 171 329 l 1,20,-1
 178 362 l 1,14,-1
228 362 m 1,21,-1
 260 378 l 1,22,-1
 291 362 l 1,23,-1
 298 329 l 1,24,-1
 277 301 l 1,25,-1
 242 301 l 1,26,-1
 221 329 l 1,27,-1
 228 362 l 1,21,-1
103 290 m 1,28,-1
 135 305 l 1,29,-1
 166 290 l 1,30,-1
 173 256 l 1,31,-1
 152 229 l 1,32,-1
 117 229 l 1,33,-1
 96 256 l 1,34,-1
 103 290 l 1,28,-1
103 240 m 1,35,-1
 135 255 l 1,36,-1
 166 240 l 1,37,-1
 173 206 l 1,38,-1
 152 179 l 1,39,-1
 117 179 l 1,40,-1
 96 206 l 1,41,-1
 103 240 l 1,35,-1
103 190 m 1,42,-1
 135 205 l 1,43,-1
 166 190 l 1,44,-1
 173 156 l 1,45,-1
 152 129 l 1,46,-1
 117 129 l 1,47,-1
 96 156 l 1,48,-1
 103 190 l 1,42,-1
103 140 m 1,49,-1
 135 155 l 1,50,-1
 166 140 l 1,51,-1
 173 106 l 1,52,-1
 152 79 l 1,53,-1
 117 79 l 1,54,-1
 96 106 l 1,55,-1
 103 140 l 1,49,-1
103 90 m 1,56,-1
 135 105 l 1,57,-1
 166 90 l 1,58,-1
 173 56 l 1,59,-1
 152 29 l 1,60,-1
 117 29 l 1,61,-1
 96 56 l 1,62,-1
 103 90 l 1,56,-1
103 40 m 1,63,-1
 135 55 l 1,64,-1
 166 40 l 1,65,-1
 173 6 l 1,66,-1
 152 -20 l 1,67,-1
 117 -20 l 1,68,-1
 96 6 l 1,69,-1
 103 40 l 1,63,-1
88 305 m 1,70,-1
 120 320 l 1,71,-1
 151 305 l 1,72,-1
 158 271 l 1,73,-1
 137 244 l 1,74,-1
 102 244 l 1,75,-1
 81 271 l 1,76,-1
 88 305 l 1,70,-1
31 362 m 1,77,-1
 62 378 l 1,78,-1
 93 362 l 1,79,-1
 101 329 l 1,80,-1
 79 301 l 1,81,-1
 45 301 l 1,82,-1
 23 329 l 1,83,-1
 31 362 l 1,77,-1
77 367 m 1,84,-1
 108 382 l 1,85,-1
 139 367 l 1,86,-1
 147 333 l 1,87,-1
 125 306 l 1,88,-1
 91 306 l 1,89,-1
 69 333 l 1,90,-1
 77 367 l 1,84,-1
88 456 m 1,91,-1
 120 471 l 1,92,-1
 151 456 l 1,93,-1
 159 422 l 1,94,-1
 137 395 l 1,95,-1
 102 395 l 1,96,-1
 81 422 l 1,97,-1
 88 456 l 1,91,-1
103 502 m 1,98,-1
 134 517 l 1,99,-1
 165 502 l 1,100,-1
 173 468 l 1,101,-1
 152 441 l 1,102,-1
 117 441 l 1,103,-1
 95 468 l 1,104,-1
 103 502 l 1,98,-1
142 530 m 1,105,-1
 174 545 l 1,106,-1
 205 530 l 1,107,-1
 213 497 l 1,108,-1
 191 469 l 1,109,-1
 156 469 l 1,110,-1
 135 497 l 1,111,-1
 142 530 l 1,105,-1
188 537 m 1,112,-1
 220 553 l 1,113,-1
 251 537 l 1,114,-1
 258 504 l 1,115,-1
 237 476 l 1,116,-1
 202 476 l 1,117,-1
 181 504 l 1,118,-1
 188 537 l 1,112,-1
218 527 m 1,119,-1
 250 543 l 1,120,-1
 281 527 l 1,121,-1
 288 494 l 1,122,-1
 267 466 l 1,123,-1
 232 466 l 1,124,-1
 211 494 l 1,125,-1
 218 527 l 1,119,-1
EndSplineSet
EndChar

StartChar: g
Encoding: 103 103 56
Width: 498
Flags: W
LayerCount: 2
Fore
SplineSet
117 134 m 5,0,-1
 149 149 l 5,1,-1
 180 134 l 5,2,-1
 188 100 l 5,3,-1
 166 73 l 5,4,-1
 131 73 l 5,5,-1
 110 100 l 5,6,-1
 117 134 l 5,0,-1
88 94 m 5,7,-1
 119 109 l 5,8,-1
 150 94 l 5,9,-1
 158 60 l 5,10,-1
 136 33 l 5,11,-1
 101 33 l 5,12,-1
 80 60 l 5,13,-1
 88 94 l 5,7,-1
58 53 m 5,14,-1
 89 69 l 5,15,-1
 120 53 l 5,16,-1
 128 20 l 5,17,-1
 106 -6 l 5,18,-1
 72 -6 l 5,19,-1
 50 20 l 5,20,-1
 58 53 l 5,14,-1
65 -63 m 5,21,-1
 97 -48 l 5,22,-1
 128 -63 l 5,23,-1
 136 -97 l 5,24,-1
 114 -124 l 5,25,-1
 79 -124 l 5,26,-1
 58 -97 l 5,27,-1
 65 -63 l 5,21,-1
98 -79 m 5,28,-1
 130 -64 l 5,29,-1
 161 -79 l 5,30,-1
 169 -113 l 5,31,-1
 147 -140 l 5,32,-1
 112 -140 l 5,33,-1
 91 -113 l 5,34,-1
 98 -79 l 5,28,-1
143 -104 m 5,35,-1
 175 -89 l 5,36,-1
 206 -104 l 5,37,-1
 214 -138 l 5,38,-1
 192 -165 l 5,39,-1
 157 -165 l 5,40,-1
 136 -138 l 5,41,-1
 143 -104 l 5,35,-1
238 -110 m 5,42,-1
 270 -95 l 5,43,-1
 301 -110 l 5,44,-1
 309 -144 l 5,45,-1
 287 -171 l 5,46,-1
 252 -171 l 5,47,-1
 231 -144 l 5,48,-1
 238 -110 l 5,42,-1
317 106 m 5,49,-1
 348 121 l 5,50,-1
 379 106 l 5,51,-1
 387 72 l 5,52,-1
 365 45 l 5,53,-1
 331 45 l 5,54,-1
 309 72 l 5,55,-1
 317 106 l 5,49,-1
197 36 m 5,56,-1
 229 51 l 5,57,-1
 260 36 l 5,58,-1
 267 3 l 5,59,-1
 246 -24 l 5,60,-1
 211 -24 l 5,61,-1
 190 3 l 5,62,-1
 197 36 l 5,56,-1
151 43 m 5,63,-1
 183 58 l 5,64,-1
 214 43 l 5,65,-1
 222 9 l 5,66,-1
 200 -17 l 5,67,-1
 165 -17 l 5,68,-1
 144 9 l 5,69,-1
 151 43 l 5,63,-1
107 67 m 5,70,-1
 139 82 l 5,71,-1
 170 67 l 5,72,-1
 178 33 l 5,73,-1
 156 6 l 5,74,-1
 121 6 l 5,75,-1
 100 33 l 5,76,-1
 107 67 l 5,70,-1
75 102 m 5,77,-1
 107 117 l 5,78,-1
 138 102 l 5,79,-1
 146 68 l 5,80,-1
 124 41 l 5,81,-1
 89 41 l 5,82,-1
 68 68 l 5,83,-1
 75 102 l 5,77,-1
55 148 m 5,84,-1
 86 163 l 5,85,-1
 117 148 l 5,86,-1
 125 114 l 5,87,-1
 103 87 l 5,88,-1
 68 87 l 5,89,-1
 47 114 l 5,90,-1
 55 148 l 5,84,-1
47 195 m 5,91,-1
 79 210 l 5,92,-1
 110 195 l 5,93,-1
 118 162 l 5,94,-1
 96 134 l 5,95,-1
 61 134 l 5,96,-1
 40 162 l 5,97,-1
 47 195 l 5,91,-1
50 243 m 5,98,-1
 81 258 l 5,99,-1
 113 243 l 5,100,-1
 120 209 l 5,101,-1
 99 182 l 5,102,-1
 64 182 l 5,103,-1
 42 209 l 5,104,-1
 50 243 l 5,98,-1
65 290 m 5,105,-1
 97 305 l 5,106,-1
 128 290 l 5,107,-1
 136 256 l 5,108,-1
 114 229 l 5,109,-1
 79 229 l 5,110,-1
 58 256 l 5,111,-1
 65 290 l 5,105,-1
94 328 m 5,112,-1
 125 343 l 5,113,-1
 157 328 l 5,114,-1
 164 295 l 5,115,-1
 143 267 l 5,116,-1
 108 267 l 5,117,-1
 86 295 l 5,118,-1
 94 328 l 5,112,-1
133 360 m 5,119,-1
 164 375 l 5,120,-1
 195 360 l 5,121,-1
 203 326 l 5,122,-1
 181 299 l 5,123,-1
 147 299 l 5,124,-1
 125 326 l 5,125,-1
 133 360 l 5,119,-1
181 375 m 5,126,-1
 212 391 l 5,127,-1
 243 375 l 5,128,-1
 251 342 l 5,129,-1
 229 314 l 5,130,-1
 195 314 l 5,131,-1
 173 342 l 5,132,-1
 181 375 l 5,126,-1
226 374 m 5,133,-1
 258 389 l 5,134,-1
 289 374 l 5,135,-1
 297 341 l 5,136,-1
 275 313 l 5,137,-1
 240 313 l 5,138,-1
 219 341 l 5,139,-1
 226 374 l 5,133,-1
273 358 m 5,140,-1
 304 373 l 5,141,-1
 336 358 l 5,142,-1
 343 324 l 5,143,-1
 322 297 l 5,144,-1
 287 297 l 5,145,-1
 265 324 l 5,146,-1
 273 358 l 5,140,-1
307 321 m 5,147,-1
 339 336 l 5,148,-1
 370 321 l 5,149,-1
 377 288 l 5,150,-1
 356 260 l 5,151,-1
 321 260 l 5,152,-1
 300 288 l 5,153,-1
 307 321 l 5,147,-1
343 316 m 5,154,-1
 375 331 l 5,155,-1
 406 316 l 5,156,-1
 414 282 l 5,157,-1
 392 255 l 5,158,-1
 357 255 l 5,159,-1
 336 282 l 5,160,-1
 343 316 l 5,154,-1
352 361 m 5,161,-1
 383 377 l 5,162,-1
 414 361 l 5,163,-1
 422 328 l 5,164,-1
 400 300 l 5,165,-1
 366 300 l 5,166,-1
 344 328 l 5,167,-1
 352 361 l 5,161,-1
362 336 m 5,168,-1
 394 352 l 5,169,-1
 425 336 l 5,170,-1
 432 303 l 5,171,-1
 411 275 l 5,172,-1
 376 275 l 5,173,-1
 355 303 l 5,174,-1
 362 336 l 5,168,-1
362 136 m 5,175,-1
 394 152 l 5,176,-1
 425 136 l 5,177,-1
 432 103 l 5,178,-1
 411 75 l 5,179,-1
 376 75 l 5,180,-1
 355 103 l 5,181,-1
 362 136 l 5,175,-1
362 86 m 5,182,-1
 394 102 l 5,183,-1
 425 86 l 5,184,-1
 432 53 l 5,185,-1
 411 25 l 5,186,-1
 376 25 l 5,187,-1
 355 53 l 5,188,-1
 362 86 l 5,182,-1
362 37 m 5,189,-1
 393 53 l 5,190,-1
 425 37 l 5,191,-1
 432 4 l 5,192,-1
 411 -23 l 5,193,-1
 376 -23 l 5,194,-1
 354 4 l 5,195,-1
 362 37 l 5,189,-1
357 -10 m 5,196,-1
 388 4 l 5,197,-1
 419 -10 l 5,198,-1
 427 -44 l 5,199,-1
 405 -71 l 5,200,-1
 371 -71 l 5,201,-1
 349 -44 l 5,202,-1
 357 -10 l 5,196,-1
339 -57 m 5,203,-1
 370 -42 l 5,204,-1
 401 -57 l 5,205,-1
 409 -90 l 5,206,-1
 387 -118 l 5,207,-1
 353 -118 l 5,208,-1
 331 -90 l 5,209,-1
 339 -57 l 5,203,-1
307 -91 m 5,210,-1
 338 -76 l 5,211,-1
 369 -91 l 5,212,-1
 377 -124 l 5,213,-1
 355 -152 l 5,214,-1
 320 -152 l 5,215,-1
 299 -124 l 5,216,-1
 307 -91 l 5,210,-1
259 -111 m 5,217,-1
 291 -96 l 5,218,-1
 322 -111 l 5,219,-1
 330 -145 l 5,220,-1
 308 -172 l 5,221,-1
 273 -172 l 5,222,-1
 252 -145 l 5,223,-1
 259 -111 l 5,217,-1
197 -118 m 5,224,-1
 229 -103 l 5,225,-1
 260 -118 l 5,226,-1
 267 -151 l 5,227,-1
 246 -179 l 5,228,-1
 211 -179 l 5,229,-1
 190 -151 l 5,230,-1
 197 -118 l 5,224,-1
252 53 m 5,231,-1
 283 68 l 5,232,-1
 315 53 l 5,233,-1
 322 20 l 5,234,-1
 301 -8 l 5,235,-1
 266 -8 l 5,236,-1
 244 20 l 5,237,-1
 252 53 l 5,231,-1
297 77 m 5,238,-1
 328 92 l 5,239,-1
 359 77 l 5,240,-1
 367 43 l 5,241,-1
 345 16 l 5,242,-1
 311 16 l 5,243,-1
 289 43 l 5,244,-1
 297 77 l 5,238,-1
339 163 m 5,245,-1
 370 178 l 5,246,-1
 401 163 l 5,247,-1
 409 129 l 5,248,-1
 388 102 l 5,249,-1
 353 102 l 5,250,-1
 331 129 l 5,251,-1
 339 163 l 5,245,-1
342 209 m 5,252,-1
 373 224 l 5,253,-1
 405 209 l 5,254,-1
 412 176 l 5,255,-1
 391 148 l 5,256,-1
 356 148 l 5,257,-1
 334 176 l 5,258,-1
 342 209 l 5,252,-1
337 260 m 5,259,-1
 368 275 l 5,260,-1
 399 260 l 5,261,-1
 407 226 l 5,262,-1
 385 199 l 5,263,-1
 351 199 l 5,264,-1
 329 226 l 5,265,-1
 337 260 l 5,259,-1
318 306 m 5,266,-1
 350 321 l 5,267,-1
 381 306 l 5,268,-1
 389 272 l 5,269,-1
 367 245 l 5,270,-1
 332 245 l 5,271,-1
 311 272 l 5,272,-1
 318 306 l 5,266,-1
EndSplineSet
EndChar

